SplineFontDB: 3.0
FontName: ShortStack
FullName: Short Stack
FamilyName: Short Stack
Weight: Book
Copyright: Copyright (c) 2011, Sorkin Type Co (www.sorkintype.com)\nwith Reserved Font Names "Short Stack" and "Short Stack One".
Version: 1.002
ItalicAngle: 0
UnderlinePosition: -103
UnderlineWidth: 102
Ascent: 1638
Descent: 410
LayerCount: 2
Layer: 0 1 "Back"  1
Layer: 1 1 "Fore"  0
XUID: [1021 631 1661839179 10470960]
FSType: 0
OS2Version: 3
OS2_WeightWidthSlopeOnly: 0
OS2_UseTypoMetrics: 1
CreationTime: 1313112480
ModificationTime: 1313099139
PfmFamily: 17
TTFWeight: 400
TTFWidth: 5
LineGap: 0
VLineGap: 0
Panose: 2 1 5 0 4 0 0 0 0 7
OS2TypoAscent: 275
OS2TypoAOffset: 1
OS2TypoDescent: -199
OS2TypoDOffset: 1
OS2TypoLinegap: 0
OS2WinAscent: 0
OS2WinAOffset: 1
OS2WinDescent: 0
OS2WinDOffset: 1
HheadAscent: 0
HheadAOffset: 1
HheadDescent: 0
HheadDOffset: 1
OS2SubXSize: 1434
OS2SubYSize: 1331
OS2SubXOff: 0
OS2SubYOff: 287
OS2SupXSize: 1434
OS2SupYSize: 1331
OS2SupXOff: 0
OS2SupYOff: 977
OS2StrikeYSize: 102
OS2StrikeYPos: 512
OS2Vendor: 'STC '
OS2CodePages: 20000111.40000000
OS2UnicodeRanges: 800000af.4000204a.00000000.00000000
Lookup: 258 0 0 "'kern' Horizontal Kerning in Latin lookup 0"  {"'kern' Horizontal Kerning in Latin lookup 0 subtable"  } ['kern' ('latn' <'dflt' > ) ]
DEI: 91125
TtTable: prep
PUSHW_1
 511
SCANCTRL
PUSHB_1
 4
SCANTYPE
EndTTInstrs
ShortTable: maxp 16
  1
  0
  279
  381
  12
  0
  0
  1
  0
  0
  0
  0
  0
  0
  0
  0
EndShort

StartChar: .notdef
Encoding: 65536 -1 0
Width: 2099
Flags: W
LayerCount: 2
Fore
SplineSet
174 -3 m 0,0,1
 176 39 176 39 179 97 c 128,-1,2
 182 155 182 155 185.5 222 c 128,-1,3
 189 289 189 289 192 360.5 c 128,-1,4
 195 432 195 432 198 500.5 c 128,-1,5
 201 569 201 569 204 630.5 c 128,-1,6
 207 692 207 692 209 739 c 0,7,8
 210 779 210 779 210.5 843.5 c 128,-1,9
 211 908 211 908 210.5 984.5 c 128,-1,10
 210 1061 210 1061 209.5 1144 c 128,-1,11
 209 1227 209 1227 208.5 1303.5 c 128,-1,12
 208 1380 208 1380 208 1445 c 128,-1,13
 208 1510 208 1510 209 1552 c 1,14,15
 211 1580 211 1580 217.5 1600.5 c 128,-1,16
 224 1621 224 1621 239.5 1634.5 c 128,-1,17
 255 1648 255 1648 282 1654.5 c 128,-1,18
 309 1661 309 1661 352 1661 c 0,19,20
 358 1661 358 1661 396.5 1661 c 128,-1,21
 435 1661 435 1661 497.5 1661 c 128,-1,22
 560 1661 560 1661 642.5 1660.5 c 128,-1,23
 725 1660 725 1660 818.5 1660 c 128,-1,24
 912 1660 912 1660 1013 1659.5 c 128,-1,25
 1114 1659 1114 1659 1213.5 1659 c 128,-1,26
 1313 1659 1313 1659 1407 1658.5 c 128,-1,27
 1501 1658 1501 1658 1581 1658 c 128,-1,28
 1661 1658 1661 1658 1723 1658 c 128,-1,29
 1785 1658 1785 1658 1820 1658 c 0,30,31
 1838 1658 1838 1658 1857.5 1654 c 128,-1,32
 1877 1650 1877 1650 1893.5 1640 c 128,-1,33
 1910 1630 1910 1630 1921.5 1612 c 128,-1,34
 1933 1594 1933 1594 1935 1566 c 0,35,36
 1942 1483 1942 1483 1944 1377 c 128,-1,37
 1946 1271 1946 1271 1945.5 1159.5 c 128,-1,38
 1945 1048 1945 1048 1943.5 937.5 c 128,-1,39
 1942 827 1942 827 1942 735 c 0,40,41
 1942 694 1942 694 1942 629.5 c 128,-1,42
 1942 565 1942 565 1942.5 488.5 c 128,-1,43
 1943 412 1943 412 1943 329.5 c 128,-1,44
 1943 247 1943 247 1943 170.5 c 128,-1,45
 1943 94 1943 94 1943 28.5 c 128,-1,46
 1943 -37 1943 -37 1942 -78 c 1,47,48
 1940 -106 1940 -106 1933.5 -126.5 c 128,-1,49
 1927 -147 1927 -147 1911.5 -160.5 c 128,-1,50
 1896 -174 1896 -174 1869 -180.5 c 128,-1,51
 1842 -187 1842 -187 1799 -187 c 0,52,53
 1588 -187 1588 -187 1413 -189.5 c 128,-1,54
 1238 -192 1238 -192 1093 -196 c 128,-1,55
 948 -200 948 -200 829.5 -204.5 c 128,-1,56
 711 -209 711 -209 613.5 -213 c 128,-1,57
 516 -217 516 -217 436 -219.5 c 128,-1,58
 356 -222 356 -222 288 -222 c 0,59,60
 270 -222 270 -222 250 -218 c 128,-1,61
 230 -214 230 -214 213 -204 c 128,-1,62
 196 -194 196 -194 185 -176 c 128,-1,63
 174 -158 174 -158 173 -130 c 1,64,65
 173 -92 173 -92 172.5 -61.5 c 128,-1,66
 172 -31 172 -31 174 -3 c 0,0,1
370 10 m 0,67,68
 370 -12 370 -12 381 -20.5 c 128,-1,69
 392 -29 392 -29 420 -29 c 0,70,71
 428 -29 428 -29 447.5 -27 c 128,-1,72
 467 -25 467 -25 514.5 -22 c 128,-1,73
 562 -19 562 -19 646 -15.5 c 128,-1,74
 730 -12 730 -12 867.5 -9 c 128,-1,75
 1005 -6 1005 -6 1204 -4.5 c 128,-1,76
 1403 -3 1403 -3 1680 -3 c 0,77,78
 1709 -3 1709 -3 1724 -4.5 c 128,-1,79
 1739 -6 1739 -6 1745 -3.5 c 128,-1,80
 1751 -1 1751 -1 1751 8 c 128,-1,81
 1751 17 1751 17 1751 38 c 1,82,83
 1755 95 1755 95 1758.5 171.5 c 128,-1,84
 1762 248 1762 248 1764.5 337 c 128,-1,85
 1767 426 1767 426 1768 524.5 c 128,-1,86
 1769 623 1769 623 1769 723.5 c 128,-1,87
 1769 824 1769 824 1767 922.5 c 128,-1,88
 1765 1021 1765 1021 1761.5 1111 c 128,-1,89
 1758 1201 1758 1201 1752 1278.5 c 128,-1,90
 1746 1356 1746 1356 1738 1414 c 0,91,92
 1737 1423 1737 1423 1736 1432.5 c 128,-1,93
 1735 1442 1735 1442 1730 1449 c 128,-1,94
 1725 1456 1725 1456 1714.5 1460.5 c 128,-1,95
 1704 1465 1704 1465 1684 1465 c 0,96,97
 1674 1465 1674 1465 1646 1466 c 128,-1,98
 1618 1467 1618 1467 1561.5 1468 c 128,-1,99
 1505 1469 1505 1469 1415 1471 c 128,-1,100
 1325 1473 1325 1473 1191.5 1474 c 128,-1,101
 1058 1475 1058 1475 876 1476 c 128,-1,102
 694 1477 694 1477 453 1477 c 0,103,104
 400 1477 400 1477 400 1433 c 0,105,106
 400 1375 400 1375 398.5 1295.5 c 128,-1,107
 397 1216 397 1216 394 1123 c 128,-1,108
 391 1030 391 1030 388 927 c 128,-1,109
 385 824 385 824 381.5 719 c 128,-1,110
 378 614 378 614 375 511.5 c 128,-1,111
 372 409 372 409 370.5 316.5 c 128,-1,112
 369 224 369 224 368.5 145.5 c 128,-1,113
 368 67 368 67 370 10 c 0,67,68
535 247 m 0,114,115
 535 288 535 288 550.5 316 c 128,-1,116
 566 344 566 344 589 368 c 128,-1,117
 612 392 612 392 639.5 416.5 c 128,-1,118
 667 441 667 441 691 475 c 0,119,120
 700 488 700 488 716 508 c 128,-1,121
 732 528 732 528 751.5 551.5 c 128,-1,122
 771 575 771 575 792 600 c 128,-1,123
 813 625 813 625 831 646.5 c 128,-1,124
 849 668 849 668 862 684.5 c 128,-1,125
 875 701 875 701 879 709 c 1,126,127
 879 708 879 708 869 723.5 c 128,-1,128
 859 739 859 739 843 766.5 c 128,-1,129
 827 794 827 794 805.5 829.5 c 128,-1,130
 784 865 784 865 761.5 903.5 c 128,-1,131
 739 942 739 942 716 981 c 128,-1,132
 693 1020 693 1020 673 1053 c 0,133,134
 660 1075 660 1075 642.5 1096.5 c 128,-1,135
 625 1118 625 1118 609.5 1141.5 c 128,-1,136
 594 1165 594 1165 583.5 1191 c 128,-1,137
 573 1217 573 1217 573 1248 c 0,138,139
 573 1264 573 1264 580.5 1279 c 128,-1,140
 588 1294 588 1294 602 1305 c 128,-1,141
 616 1316 616 1316 635.5 1323 c 128,-1,142
 655 1330 655 1330 678 1330 c 0,143,144
 703 1330 703 1330 733.5 1302 c 128,-1,145
 764 1274 764 1274 796 1231 c 128,-1,146
 828 1188 828 1188 861 1135 c 128,-1,147
 894 1082 894 1082 923.5 1031.5 c 128,-1,148
 953 981 953 981 978.5 939.5 c 128,-1,149
 1004 898 1004 898 1021 877 c 1,150,151
 1045 907 1045 907 1079 952.5 c 128,-1,152
 1113 998 1113 998 1153 1049 c 128,-1,153
 1193 1100 1193 1100 1237 1151 c 128,-1,154
 1281 1202 1281 1202 1326.5 1243 c 128,-1,155
 1372 1284 1372 1284 1416.5 1309.5 c 128,-1,156
 1461 1335 1461 1335 1502 1335 c 0,157,158
 1551 1335 1551 1335 1577 1311 c 128,-1,159
 1603 1287 1603 1287 1603 1258 c 0,160,161
 1603 1244 1603 1244 1597 1230 c 128,-1,162
 1591 1216 1591 1216 1578 1204 c 2,163,164
 1578 1204 1578 1204 1563.5 1190.5 c 128,-1,165
 1549 1177 1549 1177 1525.5 1156.5 c 128,-1,166
 1502 1136 1502 1136 1473.5 1110 c 128,-1,167
 1445 1084 1445 1084 1417.5 1058 c 128,-1,168
 1390 1032 1390 1032 1366.5 1009 c 128,-1,169
 1343 986 1343 986 1330 971 c 0,170,171
 1304 942 1304 942 1280.5 914 c 128,-1,172
 1257 886 1257 886 1233.5 857 c 128,-1,173
 1210 828 1210 828 1185.5 796.5 c 128,-1,174
 1161 765 1161 765 1134 729 c 1,175,176
 1146 709 1146 709 1161 685.5 c 128,-1,177
 1176 662 1176 662 1193.5 638 c 128,-1,178
 1211 614 1211 614 1229 589.5 c 128,-1,179
 1247 565 1247 565 1265 544 c 0,180,181
 1301 500 1301 500 1334 461 c 128,-1,182
 1367 422 1367 422 1399.5 392 c 128,-1,183
 1432 362 1432 362 1464 344.5 c 128,-1,184
 1496 327 1496 327 1531 327 c 0,185,186
 1543 327 1543 327 1551.5 328.5 c 128,-1,187
 1560 330 1560 330 1567.5 330 c 128,-1,188
 1575 330 1575 330 1582.5 326.5 c 128,-1,189
 1590 323 1590 323 1599 313 c 0,190,191
 1616 292 1616 292 1621.5 274.5 c 128,-1,192
 1627 257 1627 257 1627 236 c 0,193,194
 1627 199 1627 199 1616 174.5 c 128,-1,195
 1605 150 1605 150 1587 135 c 128,-1,196
 1569 120 1569 120 1547.5 113.5 c 128,-1,197
 1526 107 1526 107 1505 107 c 0,198,199
 1467 107 1467 107 1425 125 c 128,-1,200
 1383 143 1383 143 1341.5 171 c 128,-1,201
 1300 199 1300 199 1261.5 232.5 c 128,-1,202
 1223 266 1223 266 1192 296 c 0,203,204
 1169 318 1169 318 1136 359 c 128,-1,205
 1103 400 1103 400 1071 442 c 0,206,207
 1034 490 1034 490 995 544 c 1,208,209
 969 516 969 516 935 476.5 c 128,-1,210
 901 437 901 437 870 399 c 128,-1,211
 839 361 839 361 817 331.5 c 128,-1,212
 795 302 795 302 793 294 c 0,213,214
 789 280 789 280 783 256 c 128,-1,215
 777 232 777 232 764 208.5 c 128,-1,216
 751 185 751 185 730 167.5 c 128,-1,217
 709 150 709 150 675 150 c 0,218,219
 648 150 648 150 623 154 c 128,-1,220
 598 158 598 158 578.5 169 c 128,-1,221
 559 180 559 180 547 199 c 128,-1,222
 535 218 535 218 535 247 c 0,114,115
EndSplineSet
EndChar

StartChar: B
Encoding: 66 66 1
Width: 1373
Flags: W
LayerCount: 2
Fore
SplineSet
198 88 m 0,0,1
 198 111 198 111 202 129.5 c 128,-1,2
 206 148 206 148 208 168 c 0,3,4
 208 176 208 176 203 194.5 c 128,-1,5
 198 213 198 213 199 235 c 2,6,-1
 207 562 l 1,7,-1
 207 752 l 2,8,9
 207 799 207 799 207 853.5 c 128,-1,10
 207 908 207 908 207.5 967 c 128,-1,11
 208 1026 208 1026 209 1088.5 c 128,-1,12
 210 1151 210 1151 212 1214 c 0,13,14
 213 1235 213 1235 222 1255 c 128,-1,15
 231 1275 231 1275 243.5 1291.5 c 128,-1,16
 256 1308 256 1308 272 1319.5 c 128,-1,17
 288 1331 288 1331 305 1336 c 0,18,19
 409 1362 409 1362 515 1376.5 c 128,-1,20
 621 1391 621 1391 717 1391 c 0,21,22
 760 1391 760 1391 811 1377.5 c 128,-1,23
 862 1364 862 1364 906 1338 c 128,-1,24
 950 1312 950 1312 979.5 1273.5 c 128,-1,25
 1009 1235 1009 1235 1009 1186 c 0,26,27
 1009 1151 1009 1151 997 1121 c 128,-1,28
 985 1091 985 1091 966.5 1065.5 c 128,-1,29
 948 1040 948 1040 925.5 1019.5 c 128,-1,30
 903 999 903 999 882 983 c 1,31,32
 967 963 967 963 1037.5 925 c 128,-1,33
 1108 887 1108 887 1158.5 830.5 c 128,-1,34
 1209 774 1209 774 1236.5 699 c 128,-1,35
 1264 624 1264 624 1264 530 c 0,36,37
 1264 393 1264 393 1217.5 302 c 128,-1,38
 1171 211 1171 211 1093 153.5 c 128,-1,39
 1015 96 1015 96 913 66.5 c 128,-1,40
 811 37 811 37 699 24 c 0,41,42
 657 19 657 19 627 15.5 c 128,-1,43
 597 12 597 12 573.5 9.5 c 128,-1,44
 550 7 550 7 530.5 6 c 128,-1,45
 511 5 511 5 490 5 c 0,46,47
 479 5 479 5 466 7 c 128,-1,48
 453 9 453 9 441 9 c 256,49,50
 429 9 429 9 421.5 5 c 128,-1,51
 414 1 414 1 406.5 -3.5 c 128,-1,52
 399 -8 399 -8 387.5 -11.5 c 128,-1,53
 376 -15 376 -15 355 -15 c 256,54,55
 334 -15 334 -15 307 -8.5 c 128,-1,56
 280 -2 280 -2 255.5 10.5 c 128,-1,57
 231 23 231 23 214.5 42.5 c 128,-1,58
 198 62 198 62 198 88 c 0,0,1
379 952 m 1,59,60
 409 959 409 959 436 974.5 c 128,-1,61
 463 990 463 990 495 999 c 1,62,63
 507 1001 507 1001 525.5 1003.5 c 128,-1,64
 544 1006 544 1006 565.5 1008.5 c 128,-1,65
 587 1011 587 1011 609.5 1013.5 c 128,-1,66
 632 1016 632 1016 653 1018 c 1,67,68
 671 1029 671 1029 700.5 1041.5 c 128,-1,69
 730 1054 730 1054 758 1070 c 128,-1,70
 786 1086 786 1086 806 1107 c 128,-1,71
 826 1128 826 1128 826 1156 c 0,72,73
 826 1183 826 1183 777.5 1202 c 128,-1,74
 729 1221 729 1221 644 1221 c 0,75,76
 630 1221 630 1221 605.5 1219.5 c 128,-1,77
 581 1218 581 1218 552 1213.5 c 128,-1,78
 523 1209 523 1209 493 1202.5 c 128,-1,79
 463 1196 463 1196 439 1185.5 c 128,-1,80
 415 1175 415 1175 399 1161.5 c 128,-1,81
 383 1148 383 1148 383 1130 c 2,82,-1
 379 952 l 1,59,60
397 207 m 0,83,84
 397 206 397 206 414.5 204.5 c 128,-1,85
 432 203 432 203 455 201.5 c 128,-1,86
 478 200 478 200 500.5 199 c 128,-1,87
 523 198 523 198 533 198 c 0,88,89
 596 198 596 198 661.5 203 c 128,-1,90
 727 208 727 208 788.5 222 c 128,-1,91
 850 236 850 236 904 260.5 c 128,-1,92
 958 285 958 285 998 323.5 c 128,-1,93
 1038 362 1038 362 1061.5 417.5 c 128,-1,94
 1085 473 1085 473 1085 548 c 0,95,96
 1085 621 1085 621 1049.5 677.5 c 128,-1,97
 1014 734 1014 734 958 773 c 128,-1,98
 902 812 902 812 833.5 832 c 128,-1,99
 765 852 765 852 698 852 c 0,100,101
 661 852 661 852 630.5 838.5 c 128,-1,102
 600 825 600 825 573 809.5 c 128,-1,103
 546 794 546 794 520.5 780.5 c 128,-1,104
 495 767 495 767 469 767 c 0,105,106
 456 767 456 767 441.5 769.5 c 128,-1,107
 427 772 427 772 418 772 c 0,108,109
 411 772 411 772 402 766 c 128,-1,110
 393 760 393 760 385 750 c 1,111,112
 385 727 385 727 383.5 700.5 c 128,-1,113
 382 674 382 674 382 651 c 0,114,115
 382 560 382 560 390.5 467.5 c 128,-1,116
 399 375 399 375 399 281 c 0,117,118
 399 263 399 263 398.5 244.5 c 128,-1,119
 398 226 398 226 397 207 c 0,83,84
EndSplineSet
EndChar

StartChar: C
Encoding: 67 67 2
Width: 1434
Flags: W
LayerCount: 2
Fore
SplineSet
149 532 m 0,0,1
 149 587 149 587 157 648.5 c 128,-1,2
 165 710 165 710 179 772.5 c 128,-1,3
 193 835 193 835 210.5 896 c 128,-1,4
 228 957 228 957 248 1011 c 0,5,6
 272 1075 272 1075 316.5 1143 c 128,-1,7
 361 1211 361 1211 424.5 1266.5 c 128,-1,8
 488 1322 488 1322 569.5 1358 c 128,-1,9
 651 1394 651 1394 749 1394 c 0,10,11
 835 1394 835 1394 919.5 1369 c 128,-1,12
 1004 1344 1004 1344 1071.5 1295 c 128,-1,13
 1139 1246 1139 1246 1181 1174.5 c 128,-1,14
 1223 1103 1223 1103 1223 1009 c 0,15,16
 1223 992 1223 992 1219 969.5 c 128,-1,17
 1215 947 1215 947 1205.5 926.5 c 128,-1,18
 1196 906 1196 906 1179 892 c 128,-1,19
 1162 878 1162 878 1135 878 c 0,20,21
 1104 878 1104 878 1087.5 895.5 c 128,-1,22
 1071 913 1071 913 1063.5 939 c 128,-1,23
 1056 965 1056 965 1054.5 996.5 c 128,-1,24
 1053 1028 1053 1028 1053 1056 c 0,25,26
 1053 1090 1053 1090 1024 1120.5 c 128,-1,27
 995 1151 995 1151 951 1174 c 128,-1,28
 907 1197 907 1197 855 1210.5 c 128,-1,29
 803 1224 803 1224 758 1224 c 0,30,31
 674 1224 674 1224 609 1185 c 128,-1,32
 544 1146 544 1146 496 1083 c 128,-1,33
 448 1020 448 1020 415.5 942 c 128,-1,34
 383 864 383 864 363 786.5 c 128,-1,35
 343 709 343 709 334.5 639 c 128,-1,36
 326 569 326 569 326 524 c 0,37,38
 326 435 326 435 364 365 c 128,-1,39
 402 295 402 295 464 246.5 c 128,-1,40
 526 198 526 198 604 172.5 c 128,-1,41
 682 147 682 147 763 147 c 0,42,43
 803 147 803 147 857 150 c 128,-1,44
 911 153 911 153 967 160.5 c 128,-1,45
 1023 168 1023 168 1076.5 181 c 128,-1,46
 1130 194 1130 194 1168 213 c 0,47,48
 1184 221 1184 221 1195 232.5 c 128,-1,49
 1206 244 1206 244 1217.5 254.5 c 128,-1,50
 1229 265 1229 265 1243.5 272.5 c 128,-1,51
 1258 280 1258 280 1280 280 c 0,52,53
 1323 280 1323 280 1348.5 251 c 128,-1,54
 1374 222 1374 222 1374 180 c 0,55,56
 1374 152 1374 152 1367 134.5 c 128,-1,57
 1360 117 1360 117 1343 103 c 0,58,59
 1305 71 1305 71 1238.5 48 c 128,-1,60
 1172 25 1172 25 1094 10 c 128,-1,61
 1016 -5 1016 -5 935.5 -12 c 128,-1,62
 855 -19 855 -19 788 -19 c 0,63,64
 710 -19 710 -19 632.5 -9 c 128,-1,65
 555 1 555 1 484 24.5 c 128,-1,66
 413 48 413 48 351.5 88.5 c 128,-1,67
 290 129 290 129 245 190.5 c 128,-1,68
 200 252 200 252 174.5 336 c 128,-1,69
 149 420 149 420 149 532 c 0,0,1
EndSplineSet
EndChar

StartChar: D
Encoding: 68 68 3
Width: 1566
Flags: W
LayerCount: 2
Fore
SplineSet
193 1187 m 2,0,1
 193 1244 193 1244 211 1279.5 c 128,-1,2
 229 1315 229 1315 256.5 1334.5 c 128,-1,3
 284 1354 284 1354 317.5 1360.5 c 128,-1,4
 351 1367 351 1367 384 1367 c 2,5,-1
 581 1367 l 2,6,7
 667 1367 667 1367 763.5 1345.5 c 128,-1,8
 860 1324 860 1324 955.5 1282 c 128,-1,9
 1051 1240 1051 1240 1138 1178.5 c 128,-1,10
 1225 1117 1225 1117 1292 1036.5 c 128,-1,11
 1359 956 1359 956 1398.5 857.5 c 128,-1,12
 1438 759 1438 759 1438 643 c 0,13,14
 1438 521 1438 521 1400 425 c 128,-1,15
 1362 329 1362 329 1298 257 c 128,-1,16
 1234 185 1234 185 1149.5 134.5 c 128,-1,17
 1065 84 1065 84 973 52.5 c 128,-1,18
 881 21 881 21 787 7 c 128,-1,19
 693 -7 693 -7 609 -7 c 0,20,21
 587 -7 587 -7 556.5 -6.5 c 128,-1,22
 526 -6 526 -6 494 -4.5 c 128,-1,23
 462 -3 462 -3 432.5 0 c 128,-1,24
 403 3 403 3 382 7 c 1,25,26
 363 -4 363 -4 341.5 -13 c 128,-1,27
 320 -22 320 -22 309 -22 c 0,28,29
 270 -22 270 -22 246 4.5 c 128,-1,30
 222 31 222 31 209 70 c 128,-1,31
 196 109 196 109 191.5 154.5 c 128,-1,32
 187 200 187 200 187 238 c 2,33,-1
 193 1187 l 2,0,1
400 190 m 1,34,35
 403 187 403 187 412 183.5 c 128,-1,36
 421 180 421 180 434 178 c 128,-1,37
 447 176 447 176 462.5 174.5 c 128,-1,38
 478 173 478 173 494 173 c 2,39,-1
 655 173 l 2,40,41
 713 173 713 173 780.5 186 c 128,-1,42
 848 199 848 199 915 224.5 c 128,-1,43
 982 250 982 250 1043.5 287.5 c 128,-1,44
 1105 325 1105 325 1152 373 c 128,-1,45
 1199 421 1199 421 1227.5 479.5 c 128,-1,46
 1256 538 1256 538 1256 606 c 0,47,48
 1256 689 1256 689 1228.5 765.5 c 128,-1,49
 1201 842 1201 842 1154 908 c 128,-1,50
 1107 974 1107 974 1044 1028 c 128,-1,51
 981 1082 981 1082 909 1120.5 c 128,-1,52
 837 1159 837 1159 760.5 1180 c 128,-1,53
 684 1201 684 1201 610 1201 c 0,54,55
 590 1201 590 1201 556 1200.5 c 128,-1,56
 522 1200 522 1200 487.5 1198 c 128,-1,57
 453 1196 453 1196 425 1193 c 128,-1,58
 397 1190 397 1190 388 1184 c 1,59,60
 380 1148 380 1148 376.5 1114 c 128,-1,61
 373 1080 373 1080 371.5 1045.5 c 128,-1,62
 370 1011 370 1011 370 975 c 128,-1,63
 370 939 370 939 370 898 c 0,64,65
 370 856 370 856 370.5 800.5 c 128,-1,66
 371 745 371 745 372 682 c 128,-1,67
 373 619 373 619 375.5 552 c 128,-1,68
 378 485 378 485 381 420 c 128,-1,69
 384 355 384 355 389 296 c 128,-1,70
 394 237 394 237 400 190 c 1,34,35
EndSplineSet
EndChar

StartChar: E
Encoding: 69 69 4
Width: 1316
Flags: W
LayerCount: 2
Fore
SplineSet
214 643 m 1,0,1
 204 659 204 659 201 677.5 c 128,-1,2
 198 696 198 696 198 715 c 0,3,4
 198 732 198 732 204 750 c 128,-1,5
 210 768 210 768 214 786 c 1,6,7
 209 871 209 871 204.5 955 c 128,-1,8
 200 1039 200 1039 200 1127 c 0,9,10
 200 1145 200 1145 199.5 1168.5 c 128,-1,11
 199 1192 199 1192 201 1217.5 c 128,-1,12
 203 1243 203 1243 208 1267.5 c 128,-1,13
 213 1292 213 1292 224 1311.5 c 128,-1,14
 235 1331 235 1331 253.5 1343 c 128,-1,15
 272 1355 272 1355 301 1355 c 0,16,17
 323 1355 323 1355 343.5 1347.5 c 128,-1,18
 364 1340 364 1340 384.5 1331.5 c 128,-1,19
 405 1323 405 1323 426 1315.5 c 128,-1,20
 447 1308 447 1308 471 1308 c 0,21,22
 531 1308 531 1308 611 1309.5 c 128,-1,23
 691 1311 691 1311 779 1314 c 0,24,25
 827 1315 827 1315 874.5 1316 c 128,-1,26
 922 1317 922 1317 968 1318 c 128,-1,27
 1014 1319 1014 1319 1056 1319 c 128,-1,28
 1098 1319 1098 1319 1134 1319 c 0,29,30
 1178 1319 1178 1319 1207.5 1317 c 128,-1,31
 1237 1315 1237 1315 1254.5 1305.5 c 128,-1,32
 1272 1296 1272 1296 1279.5 1277 c 128,-1,33
 1287 1258 1287 1258 1287 1224 c 0,34,35
 1287 1209 1287 1209 1279.5 1194 c 128,-1,36
 1272 1179 1272 1179 1259 1167 c 128,-1,37
 1246 1155 1246 1155 1230 1147 c 128,-1,38
 1214 1139 1214 1139 1198 1139 c 0,39,40
 1005 1140 1005 1140 869.5 1141 c 128,-1,41
 734 1142 734 1142 643 1143 c 128,-1,42
 552 1144 552 1144 500 1144.5 c 128,-1,43
 448 1145 448 1145 422 1145.5 c 128,-1,44
 396 1146 396 1146 388.5 1146 c 128,-1,45
 381 1146 381 1146 381 1147 c 2,46,-1
 381 822 l 2,47,48
 381 809 381 809 390 809 c 0,49,50
 427 809 427 809 465 808.5 c 128,-1,51
 503 808 503 808 544.5 807 c 128,-1,52
 586 806 586 806 633 805.5 c 128,-1,53
 680 805 680 805 736 805 c 0,54,55
 773 805 773 805 809.5 811.5 c 128,-1,56
 846 818 846 818 887 818 c 256,57,58
 928 818 928 818 956.5 794.5 c 128,-1,59
 985 771 985 771 985 718 c 0,60,61
 985 711 985 711 980 697.5 c 128,-1,62
 975 684 975 684 965.5 670.5 c 128,-1,63
 956 657 956 657 941 647 c 128,-1,64
 926 637 926 637 906 637 c 2,65,-1
 475 637 l 2,66,67
 446 637 446 637 429 636.5 c 128,-1,68
 412 636 412 636 403 635 c 128,-1,69
 394 634 394 634 391.5 632.5 c 128,-1,70
 389 631 389 631 389 629 c 0,71,72
 389 615 389 615 392.5 601 c 128,-1,73
 396 587 396 587 396 567 c 0,74,75
 396 562 396 562 396 543.5 c 128,-1,76
 396 525 396 525 396.5 499.5 c 128,-1,77
 397 474 397 474 397.5 443.5 c 128,-1,78
 398 413 398 413 399 384 c 1,79,-1
 399 224 l 1,80,81
 395 218 395 218 408 214.5 c 128,-1,82
 421 211 421 211 443 209.5 c 128,-1,83
 465 208 465 208 492 207 c 128,-1,84
 519 206 519 206 543 203 c 1,85,86
 577 201 577 201 627 198.5 c 128,-1,87
 677 196 677 196 730 194.5 c 128,-1,88
 783 193 783 193 834.5 191.5 c 128,-1,89
 886 190 886 190 923 188.5 c 128,-1,90
 960 187 960 187 977 186.5 c 128,-1,91
 994 186 994 186 980 186 c 0,92,93
 961 186 961 186 964 186 c 128,-1,94
 967 186 967 186 982.5 185.5 c 128,-1,95
 998 185 998 185 1022 185 c 128,-1,96
 1046 185 1046 185 1071 184.5 c 128,-1,97
 1096 184 1096 184 1116.5 184 c 128,-1,98
 1137 184 1137 184 1146 184 c 0,99,100
 1173 184 1173 184 1190.5 173 c 128,-1,101
 1208 162 1208 162 1218 145.5 c 128,-1,102
 1228 129 1228 129 1232 109 c 128,-1,103
 1236 89 1236 89 1236 71 c 0,104,105
 1236 44 1236 44 1225 25 c 128,-1,106
 1214 6 1214 6 1195.5 -5 c 128,-1,107
 1177 -16 1177 -16 1151.5 -21 c 128,-1,108
 1126 -26 1126 -26 1098 -26 c 0,109,110
 1077 -26 1077 -26 1047 -18.5 c 128,-1,111
 1017 -11 1017 -11 994 0 c 1,112,113
 983 4 983 4 950 9 c 128,-1,114
 917 14 917 14 865.5 18 c 128,-1,115
 814 22 814 22 745 25 c 128,-1,116
 676 28 676 28 593 28 c 0,117,118
 531 28 531 28 464.5 22.5 c 128,-1,119
 398 17 398 17 326 17 c 0,120,121
 302 17 302 17 281.5 26 c 128,-1,122
 261 35 261 35 246 50.5 c 128,-1,123
 231 66 231 66 222.5 87.5 c 128,-1,124
 214 109 214 109 214 135 c 2,125,-1
 214 643 l 1,0,1
EndSplineSet
EndChar

StartChar: F
Encoding: 70 70 5
Width: 1297
Flags: W
LayerCount: 2
Fore
SplineSet
187 145 m 0,0,1
 187 152 187 152 190 171 c 128,-1,2
 193 190 193 190 196 213 c 128,-1,3
 199 236 199 236 202 259.5 c 128,-1,4
 205 283 205 283 205 300 c 2,5,-1
 205 1092 l 2,6,7
 205 1108 205 1108 205.5 1134 c 128,-1,8
 206 1160 206 1160 208.5 1190.5 c 128,-1,9
 211 1221 211 1221 217.5 1252 c 128,-1,10
 224 1283 224 1283 235 1308 c 128,-1,11
 246 1333 246 1333 263 1349 c 128,-1,12
 280 1365 280 1365 305 1365 c 0,13,14
 331 1365 331 1365 356.5 1360.5 c 128,-1,15
 382 1356 382 1356 407.5 1350.5 c 128,-1,16
 433 1345 433 1345 458.5 1340.5 c 128,-1,17
 484 1336 484 1336 511 1336 c 2,18,-1
 1017 1336 l 2,19,20
 1027 1336 1027 1336 1044 1338.5 c 128,-1,21
 1061 1341 1061 1341 1079 1343.5 c 128,-1,22
 1097 1346 1097 1346 1114 1348.5 c 128,-1,23
 1131 1351 1131 1351 1142 1351 c 0,24,25
 1161 1351 1161 1351 1184 1340 c 128,-1,26
 1207 1329 1207 1329 1226.5 1311 c 128,-1,27
 1246 1293 1246 1293 1259 1270.5 c 128,-1,28
 1272 1248 1272 1248 1272 1224 c 0,29,30
 1272 1179 1272 1179 1250 1155.5 c 128,-1,31
 1228 1132 1228 1132 1179 1132 c 0,32,33
 1171 1132 1171 1132 1145.5 1136.5 c 128,-1,34
 1120 1141 1120 1141 1091.5 1146.5 c 128,-1,35
 1063 1152 1063 1152 1037.5 1157.5 c 128,-1,36
 1012 1163 1012 1163 1004 1165 c 1,37,38
 999 1165 999 1165 971 1164.5 c 128,-1,39
 943 1164 943 1164 900 1163 c 128,-1,40
 857 1162 857 1162 804 1161 c 128,-1,41
 751 1160 751 1160 696 1159 c 0,42,43
 568 1156 568 1156 406 1153 c 0,44,45
 398 1153 398 1153 392.5 1146 c 128,-1,46
 387 1139 387 1139 387 1136 c 0,47,48
 384 1107 384 1107 382 1081.5 c 128,-1,49
 380 1056 380 1056 379 1022.5 c 128,-1,50
 378 989 378 989 377.5 940 c 128,-1,51
 377 891 377 891 377 814 c 0,52,53
 377 803 377 803 383.5 796.5 c 128,-1,54
 390 790 390 790 400.5 785.5 c 128,-1,55
 411 781 411 781 424 779.5 c 128,-1,56
 437 778 437 778 450 778 c 0,57,58
 544 778 544 778 641.5 790.5 c 128,-1,59
 739 803 739 803 836 815 c 0,60,61
 852 817 852 817 867.5 821 c 128,-1,62
 883 825 883 825 899.5 829 c 128,-1,63
 916 833 916 833 934 836 c 128,-1,64
 952 839 952 839 972 839 c 0,65,66
 1002 839 1002 839 1018.5 826.5 c 128,-1,67
 1035 814 1035 814 1042.5 798 c 128,-1,68
 1050 782 1050 782 1051.5 766 c 128,-1,69
 1053 750 1053 750 1053 742 c 0,70,71
 1053 708 1053 708 1040.5 687.5 c 128,-1,72
 1028 667 1028 667 1003.5 656 c 128,-1,73
 979 645 979 645 943 641.5 c 128,-1,74
 907 638 907 638 860 638 c 0,75,76
 801 638 801 638 742.5 631.5 c 128,-1,77
 684 625 684 625 625 617.5 c 128,-1,78
 566 610 566 610 506.5 603.5 c 128,-1,79
 447 597 447 597 386 597 c 1,80,81
 386 565 386 565 386.5 547 c 128,-1,82
 387 529 387 529 387 526 c 0,83,84
 387 437 387 437 391.5 344.5 c 128,-1,85
 396 252 396 252 396 143 c 0,86,87
 396 122 396 122 393.5 97.5 c 128,-1,88
 391 73 391 73 382 52.5 c 128,-1,89
 373 32 373 32 356.5 18.5 c 128,-1,90
 340 5 340 5 312 5 c 0,91,92
 277 5 277 5 253 16 c 128,-1,93
 229 27 229 27 214.5 46 c 128,-1,94
 200 65 200 65 193.5 90.5 c 128,-1,95
 187 116 187 116 187 145 c 0,0,1
EndSplineSet
EndChar

StartChar: G
Encoding: 71 71 6
Width: 1464
Flags: W
LayerCount: 2
Fore
SplineSet
166 675 m 0,0,1
 166 728 166 728 186 800.5 c 128,-1,2
 206 873 206 873 245 950.5 c 128,-1,3
 284 1028 284 1028 340.5 1104.5 c 128,-1,4
 397 1181 397 1181 470 1241 c 128,-1,5
 543 1301 543 1301 631.5 1338 c 128,-1,6
 720 1375 720 1375 823 1375 c 0,7,8
 870 1375 870 1375 917.5 1367 c 128,-1,9
 965 1359 965 1359 1008.5 1345.5 c 128,-1,10
 1052 1332 1052 1332 1090 1313.5 c 128,-1,11
 1128 1295 1128 1295 1156 1274 c 0,12,13
 1177 1258 1177 1258 1198 1240.5 c 128,-1,14
 1219 1223 1219 1223 1236 1201.5 c 128,-1,15
 1253 1180 1253 1180 1264 1152.5 c 128,-1,16
 1275 1125 1275 1125 1275 1090 c 0,17,18
 1275 1061 1275 1061 1265.5 1044 c 128,-1,19
 1256 1027 1256 1027 1245 1017 c 0,20,21
 1232 1006 1232 1006 1216 1000 c 1,22,23
 1191 1000 1191 1000 1173 1015 c 128,-1,24
 1155 1030 1155 1030 1139.5 1049.5 c 128,-1,25
 1124 1069 1124 1069 1109 1089 c 128,-1,26
 1094 1109 1094 1109 1076 1118 c 1,27,28
 1015 1167 1015 1167 951 1184 c 128,-1,29
 887 1201 887 1201 816 1201 c 0,30,31
 759 1201 759 1201 702 1176 c 128,-1,32
 645 1151 645 1151 592.5 1109 c 128,-1,33
 540 1067 540 1067 495 1010.5 c 128,-1,34
 450 954 450 954 416.5 891 c 128,-1,35
 383 828 383 828 364 762 c 128,-1,36
 345 696 345 696 345 634 c 0,37,38
 345 508 345 508 382 419.5 c 128,-1,39
 419 331 419 331 484.5 274.5 c 128,-1,40
 550 218 550 218 639 192 c 128,-1,41
 728 166 728 166 833 166 c 0,42,43
 928 166 928 166 986.5 179 c 128,-1,44
 1045 192 1045 192 1076.5 218 c 128,-1,45
 1108 244 1108 244 1118.5 282.5 c 128,-1,46
 1129 321 1129 321 1129 373 c 0,47,48
 1129 385 1129 385 1128.5 406 c 128,-1,49
 1128 427 1128 427 1127.5 450.5 c 128,-1,50
 1127 474 1127 474 1126.5 497.5 c 128,-1,51
 1126 521 1126 521 1126 537 c 1,52,53
 1078 529 1078 529 1026.5 528 c 128,-1,54
 975 527 975 527 930 527 c 0,55,56
 907 527 907 527 882 533.5 c 128,-1,57
 857 540 857 540 836.5 553 c 128,-1,58
 816 566 816 566 803 585 c 128,-1,59
 790 604 790 604 790 629 c 0,60,61
 790 656 790 656 800.5 672.5 c 128,-1,62
 811 689 811 689 828.5 699 c 128,-1,63
 846 709 846 709 869 712.5 c 128,-1,64
 892 716 892 716 918 716 c 0,65,66
 938 716 938 716 962.5 714.5 c 128,-1,67
 987 713 987 713 1009 711 c 0,68,69
 1035 709 1035 709 1060 707 c 1,70,71
 1081 707 1081 707 1106.5 711 c 128,-1,72
 1132 715 1132 715 1158 719.5 c 128,-1,73
 1184 724 1184 724 1209.5 728 c 128,-1,74
 1235 732 1235 732 1258 732 c 0,75,76
 1278 732 1278 732 1296 723 c 128,-1,77
 1314 714 1314 714 1327.5 699.5 c 128,-1,78
 1341 685 1341 685 1349 667.5 c 128,-1,79
 1357 650 1357 650 1357 634 c 0,80,81
 1357 601 1357 601 1343 581 c 128,-1,82
 1329 561 1329 561 1306 548 c 1,83,84
 1305 485 1305 485 1302 416.5 c 128,-1,85
 1299 348 1299 348 1303 287 c 0,86,87
 1306 248 1306 248 1308 224 c 128,-1,88
 1310 200 1310 200 1311.5 185 c 128,-1,89
 1313 170 1313 170 1314 162.5 c 128,-1,90
 1315 155 1315 155 1315 150 c 0,91,92
 1315 112 1315 112 1310 89 c 128,-1,93
 1305 66 1305 66 1296 53.5 c 128,-1,94
 1287 41 1287 41 1274 37 c 128,-1,95
 1261 33 1261 33 1245 33 c 0,96,97
 1218 33 1218 33 1201 38 c 128,-1,98
 1184 43 1184 43 1172.5 51.5 c 128,-1,99
 1161 60 1161 60 1154.5 69.5 c 128,-1,100
 1148 79 1148 79 1143 88 c 1,101,102
 1114 72 1114 72 1076.5 56 c 128,-1,103
 1039 40 1039 40 995 27.5 c 128,-1,104
 951 15 951 15 902.5 7.5 c 128,-1,105
 854 0 854 0 803 0 c 0,106,107
 642 0 642 0 522 44 c 128,-1,108
 402 88 402 88 323 173.5 c 128,-1,109
 244 259 244 259 205 385 c 128,-1,110
 166 511 166 511 166 675 c 0,0,1
EndSplineSet
EndChar

StartChar: H
Encoding: 72 72 7
Width: 1461
Flags: W
LayerCount: 2
Fore
SplineSet
208 85 m 0,0,1
 208 182 208 182 207 266 c 128,-1,2
 206 350 206 350 205 430 c 128,-1,3
 204 510 204 510 202.5 592.5 c 128,-1,4
 201 675 201 675 200 770.5 c 128,-1,5
 199 866 199 866 198 980 c 128,-1,6
 197 1094 197 1094 197 1237 c 0,7,8
 197 1255 197 1255 199.5 1276.5 c 128,-1,9
 202 1298 202 1298 210.5 1316 c 128,-1,10
 219 1334 219 1334 236 1346.5 c 128,-1,11
 253 1359 253 1359 282 1359 c 0,12,13
 297 1359 297 1359 313.5 1348 c 128,-1,14
 330 1337 330 1337 344 1319.5 c 128,-1,15
 358 1302 358 1302 367.5 1281 c 128,-1,16
 377 1260 377 1260 377 1239 c 2,17,-1
 381 789 l 2,18,19
 381 770 381 770 397 770 c 0,20,21
 565 770 565 770 680.5 769.5 c 128,-1,22
 796 769 796 769 871 769 c 128,-1,23
 946 769 946 769 987 769 c 128,-1,24
 1028 769 1028 769 1048 769 c 128,-1,25
 1068 769 1068 769 1073.5 770.5 c 128,-1,26
 1079 772 1079 772 1082 774 c 1,27,28
 1080 892 1080 892 1074.5 1007.5 c 128,-1,29
 1069 1123 1069 1123 1069 1241 c 0,30,31
 1069 1267 1069 1267 1073 1290.5 c 128,-1,32
 1077 1314 1077 1314 1087 1331.5 c 128,-1,33
 1097 1349 1097 1349 1113.5 1359 c 128,-1,34
 1130 1369 1130 1369 1155 1369 c 0,35,36
 1187 1369 1187 1369 1206 1354 c 128,-1,37
 1225 1339 1225 1339 1234.5 1315.5 c 128,-1,38
 1244 1292 1244 1292 1247 1262 c 128,-1,39
 1250 1232 1250 1232 1250 1202 c 0,40,41
 1250 1168 1250 1168 1251 1126 c 128,-1,42
 1252 1084 1252 1084 1254 1032 c 128,-1,43
 1256 980 1256 980 1258.5 917 c 128,-1,44
 1261 854 1261 854 1264 778 c 1,45,46
 1267 772 1267 772 1271.5 762 c 128,-1,47
 1276 752 1276 752 1279.5 740 c 128,-1,48
 1283 728 1283 728 1285.5 716 c 128,-1,49
 1288 704 1288 704 1288 695 c 256,50,51
 1288 686 1288 686 1285.5 672.5 c 128,-1,52
 1283 659 1283 659 1281 647 c 1,53,54
 1277 633 1277 633 1274 618 c 1,55,56
 1280 486 1280 486 1284 394.5 c 128,-1,57
 1288 303 1288 303 1290 242 c 128,-1,58
 1292 181 1292 181 1293 146.5 c 128,-1,59
 1294 112 1294 112 1294 94 c 0,60,61
 1294 54 1294 54 1268 24.5 c 128,-1,62
 1242 -5 1242 -5 1198 -5 c 0,63,64
 1151 -5 1151 -5 1128 27 c 128,-1,65
 1105 59 1105 59 1105 143 c 1,66,-1
 1099 593 l 1,67,68
 1093 593 1093 593 1078 593 c 128,-1,69
 1063 593 1063 593 1032 592.5 c 128,-1,70
 1001 592 1001 592 951 591.5 c 128,-1,71
 901 591 901 591 825.5 590.5 c 128,-1,72
 750 590 750 590 645.5 589.5 c 128,-1,73
 541 589 541 589 401 589 c 0,74,75
 396 589 396 589 390.5 578.5 c 128,-1,76
 385 568 385 568 385 557 c 0,77,78
 385 445 385 445 393 321 c 128,-1,79
 401 197 401 197 401 76 c 0,80,81
 401 62 401 62 390 49 c 128,-1,82
 379 36 379 36 363.5 26 c 128,-1,83
 348 16 348 16 330 10.5 c 128,-1,84
 312 5 312 5 298 5 c 256,85,86
 284 5 284 5 268.5 10 c 128,-1,87
 253 15 253 15 239.5 25.5 c 128,-1,88
 226 36 226 36 217 50.5 c 128,-1,89
 208 65 208 65 208 85 c 0,0,1
EndSplineSet
EndChar

StartChar: I
Encoding: 73 73 8
Width: 908
Flags: W
LayerCount: 2
Fore
SplineSet
153 90 m 0,0,1
 153 107 153 107 159 124.5 c 128,-1,2
 165 142 165 142 176 156.5 c 128,-1,3
 187 171 187 171 203.5 180 c 128,-1,4
 220 189 220 189 241 189 c 0,5,6
 243 189 243 189 256.5 187.5 c 128,-1,7
 270 186 270 186 287.5 184 c 128,-1,8
 305 182 305 182 323 180.5 c 128,-1,9
 341 179 341 179 353 178 c 1,10,-1
 353 264 l 2,11,12
 353 320 353 320 353.5 394 c 128,-1,13
 354 468 354 468 355 551 c 128,-1,14
 356 634 356 634 357.5 721.5 c 128,-1,15
 359 809 359 809 361 892 c 128,-1,16
 363 975 363 975 366.5 1048 c 128,-1,17
 370 1121 370 1121 374 1176 c 1,18,-1
 297 1176 l 2,19,20
 274 1176 274 1176 251 1177.5 c 128,-1,21
 228 1179 228 1179 208.5 1187.5 c 128,-1,22
 189 1196 189 1196 177 1212.5 c 128,-1,23
 165 1229 165 1229 165 1259 c 0,24,25
 165 1287 165 1287 172.5 1306.5 c 128,-1,26
 180 1326 180 1326 198 1338.5 c 128,-1,27
 216 1351 216 1351 246 1357 c 128,-1,28
 276 1363 276 1363 321 1363 c 0,29,30
 342 1363 342 1363 368.5 1363.5 c 128,-1,31
 395 1364 395 1364 423.5 1364.5 c 128,-1,32
 452 1365 452 1365 480 1365.5 c 128,-1,33
 508 1366 508 1366 531 1366 c 0,34,35
 545 1366 545 1366 567.5 1366.5 c 128,-1,36
 590 1367 590 1367 632 1367 c 0,37,38
 666 1367 666 1367 696.5 1375.5 c 128,-1,39
 727 1384 727 1384 758 1384 c 0,40,41
 774 1384 774 1384 791.5 1373.5 c 128,-1,42
 809 1363 809 1363 823.5 1348 c 128,-1,43
 838 1333 838 1333 847.5 1317 c 128,-1,44
 857 1301 857 1301 857 1291 c 0,45,46
 857 1260 857 1260 842.5 1238 c 128,-1,47
 828 1216 828 1216 806 1201.5 c 128,-1,48
 784 1187 784 1187 759 1180.5 c 128,-1,49
 734 1174 734 1174 713 1174 c 0,50,51
 706 1174 706 1174 697 1177.5 c 128,-1,52
 688 1181 688 1181 679 1184.5 c 128,-1,53
 670 1188 670 1188 662.5 1191.5 c 128,-1,54
 655 1195 655 1195 652 1195 c 2,55,-1
 552 1189 l 1,56,57
 548 1157 548 1157 545 1098 c 128,-1,58
 542 1039 542 1039 539.5 964 c 128,-1,59
 537 889 537 889 536 802.5 c 128,-1,60
 535 716 535 716 535 629 c 0,61,62
 535 576 535 576 536 519 c 128,-1,63
 537 462 537 462 540 404.5 c 128,-1,64
 543 347 543 347 547.5 289 c 128,-1,65
 552 231 552 231 559 177 c 1,66,67
 589 174 589 174 616 174.5 c 128,-1,68
 643 175 643 175 664 176 c 128,-1,69
 685 177 685 177 699 177.5 c 128,-1,70
 713 178 713 178 716 176 c 0,71,72
 747 156 747 156 761 131 c 128,-1,73
 775 106 775 106 775 80 c 0,74,75
 775 62 775 62 765 46.5 c 128,-1,76
 755 31 755 31 739.5 20.5 c 128,-1,77
 724 10 724 10 704.5 4 c 128,-1,78
 685 -2 685 -2 667 -2 c 2,79,-1
 325 -2 l 2,80,81
 307 -2 307 -2 278 2 c 128,-1,82
 249 6 249 6 221.5 16.5 c 128,-1,83
 194 27 194 27 173.5 45 c 128,-1,84
 153 63 153 63 153 90 c 0,0,1
EndSplineSet
EndChar

StartChar: J
Encoding: 74 74 9
Width: 1060
Flags: W
LayerCount: 2
Fore
SplineSet
93 140 m 0,0,1
 93 156 93 156 100 175.5 c 128,-1,2
 107 195 107 195 120.5 211.5 c 128,-1,3
 134 228 134 228 153.5 239 c 128,-1,4
 173 250 173 250 199 250 c 0,5,6
 217 250 217 250 230.5 241.5 c 128,-1,7
 244 233 244 233 256 220.5 c 128,-1,8
 268 208 268 208 279.5 194.5 c 128,-1,9
 291 181 291 181 303 172 c 0,10,11
 310 167 310 167 322 163.5 c 128,-1,12
 334 160 334 160 346.5 158 c 128,-1,13
 359 156 359 156 371 155.5 c 128,-1,14
 383 155 383 155 390 155 c 0,15,16
 450 155 450 155 510 177.5 c 128,-1,17
 570 200 570 200 618.5 238 c 128,-1,18
 667 276 667 276 697 327 c 128,-1,19
 727 378 727 378 727 434 c 0,20,21
 727 454 727 454 731.5 565.5 c 128,-1,22
 736 677 736 677 736 882 c 0,23,24
 736 968 736 968 728.5 1052.5 c 128,-1,25
 721 1137 721 1137 721 1225 c 0,26,27
 721 1252 721 1252 726 1279.5 c 128,-1,28
 731 1307 731 1307 743.5 1328.5 c 128,-1,29
 756 1350 756 1350 777 1363.5 c 128,-1,30
 798 1377 798 1377 831 1377 c 0,31,32
 855 1377 855 1377 870.5 1363.5 c 128,-1,33
 886 1350 886 1350 895 1331 c 128,-1,34
 904 1312 904 1312 907.5 1292 c 128,-1,35
 911 1272 911 1272 911 1259 c 0,36,37
 911 1214 911 1214 913 1157 c 128,-1,38
 915 1100 915 1100 917 1035 c 128,-1,39
 919 970 919 970 921 899.5 c 128,-1,40
 923 829 923 829 923 757 c 0,41,42
 923 718 923 718 921.5 670.5 c 128,-1,43
 920 623 920 623 917 573.5 c 128,-1,44
 914 524 914 524 910 476 c 128,-1,45
 906 428 906 428 900.5 388 c 128,-1,46
 895 348 895 348 889 319 c 128,-1,47
 883 290 883 290 877 279 c 0,48,49
 782 120 782 120 651 49 c 128,-1,50
 520 -22 520 -22 357 -22 c 0,51,52
 326 -22 326 -22 281 -15 c 128,-1,53
 236 -8 236 -8 194 10 c 128,-1,54
 152 28 152 28 122.5 59.5 c 128,-1,55
 93 91 93 91 93 140 c 0,0,1
EndSplineSet
EndChar

StartChar: K
Encoding: 75 75 10
Width: 1365
Flags: W
LayerCount: 2
Fore
SplineSet
223 50 m 0,0,1
 218 117 218 117 218 197.5 c 128,-1,2
 218 278 218 278 218 375 c 0,3,4
 218 448 218 448 218 531.5 c 128,-1,5
 218 615 218 615 218 700.5 c 128,-1,6
 218 786 218 786 218.5 871 c 128,-1,7
 219 956 219 956 219.5 1033 c 128,-1,8
 220 1110 220 1110 220 1175.5 c 128,-1,9
 220 1241 220 1241 221 1289 c 0,10,11
 222 1306 222 1306 227 1324 c 128,-1,12
 232 1342 232 1342 243 1356.5 c 128,-1,13
 254 1371 254 1371 271 1380.5 c 128,-1,14
 288 1390 288 1390 313 1390 c 0,15,16
 328 1390 328 1390 343.5 1385 c 128,-1,17
 359 1380 359 1380 371 1370 c 128,-1,18
 383 1360 383 1360 390.5 1344 c 128,-1,19
 398 1328 398 1328 398 1306 c 2,20,-1
 391 907 l 2,21,22
 391 897 391 897 391.5 879 c 128,-1,23
 392 861 392 861 393 840 c 128,-1,24
 394 819 394 819 395.5 799 c 128,-1,25
 397 779 397 779 399 765 c 1,26,-1
 562 947 l 1,27,28
 580 994 580 994 608 1018 c 128,-1,29
 636 1042 636 1042 675 1050 c 1,30,31
 691 1070 691 1070 720.5 1105 c 128,-1,32
 750 1140 750 1140 780 1175 c 1,33,34
 796 1192 796 1192 811 1209 c 128,-1,35
 826 1226 826 1226 839 1240.5 c 128,-1,36
 852 1255 852 1255 861.5 1267 c 128,-1,37
 871 1279 871 1279 876 1285 c 0,38,39
 891 1305 891 1305 902 1320 c 128,-1,40
 913 1335 913 1335 927 1345 c 128,-1,41
 941 1355 941 1355 961 1360 c 128,-1,42
 981 1365 981 1365 1014 1365 c 0,43,44
 1023 1365 1023 1365 1035.5 1361 c 128,-1,45
 1048 1357 1048 1357 1058.5 1348 c 128,-1,46
 1069 1339 1069 1339 1076.5 1324 c 128,-1,47
 1084 1309 1084 1309 1084 1287 c 0,48,49
 1084 1243 1084 1243 1068.5 1217 c 128,-1,50
 1053 1191 1053 1191 1030 1171 c 128,-1,51
 1007 1151 1007 1151 980.5 1132 c 128,-1,52
 954 1113 954 1113 931 1084 c 0,53,54
 928 1081 928 1081 911.5 1061.5 c 128,-1,55
 895 1042 895 1042 874 1015.5 c 128,-1,56
 853 989 853 989 831.5 960.5 c 128,-1,57
 810 932 810 932 795 911 c 1,58,59
 805 888 805 888 820.5 866.5 c 128,-1,60
 836 845 836 845 849 823 c 0,61,62
 908 723 908 723 963.5 619.5 c 128,-1,63
 1019 516 1019 516 1086 403 c 0,64,65
 1102 375 1102 375 1123 340 c 128,-1,66
 1144 305 1144 305 1166 266 c 128,-1,67
 1188 227 1188 227 1209 187 c 128,-1,68
 1230 147 1230 147 1246.5 110.5 c 128,-1,69
 1263 74 1263 74 1273 43 c 128,-1,70
 1283 12 1283 12 1283 -9 c 0,71,72
 1283 -32 1283 -32 1278 -53 c 128,-1,73
 1273 -74 1273 -74 1261 -89.5 c 128,-1,74
 1249 -105 1249 -105 1229 -114 c 128,-1,75
 1209 -123 1209 -123 1179 -123 c 0,76,77
 1161 -123 1161 -123 1143 -109.5 c 128,-1,78
 1125 -96 1125 -96 1109 -74.5 c 128,-1,79
 1093 -53 1093 -53 1078.5 -26.5 c 128,-1,80
 1064 0 1064 0 1052.5 26 c 128,-1,81
 1041 52 1041 52 1032 73.5 c 128,-1,82
 1023 95 1023 95 1018 108 c 0,83,84
 1013 119 1013 119 997.5 153 c 128,-1,85
 982 187 982 187 959 234.5 c 128,-1,86
 936 282 936 282 907 340 c 128,-1,87
 878 398 878 398 847.5 457 c 128,-1,88
 817 516 817 516 787 572 c 128,-1,89
 757 628 757 628 731 673 c 128,-1,90
 705 718 705 718 685 747.5 c 128,-1,91
 665 777 665 777 655 782 c 1,92,93
 584 725 584 725 521.5 648.5 c 128,-1,94
 459 572 459 572 408 498 c 1,95,96
 406 476 406 476 405.5 460.5 c 128,-1,97
 405 445 405 445 405 424 c 0,98,99
 405 376 405 376 409.5 327 c 128,-1,100
 414 278 414 278 421 229 c 1,101,102
 425 186 425 186 428 141.5 c 128,-1,103
 431 97 431 97 433 50 c 0,104,105
 433 38 433 38 424 24 c 128,-1,106
 415 10 415 10 400.5 -1.5 c 128,-1,107
 386 -13 386 -13 369 -20.5 c 128,-1,108
 352 -28 352 -28 336 -28 c 0,109,110
 315 -28 315 -28 295.5 -22 c 128,-1,111
 276 -16 276 -16 260 -5.5 c 128,-1,112
 244 5 244 5 234 19.5 c 128,-1,113
 224 34 224 34 223 50 c 0,0,1
EndSplineSet
EndChar

StartChar: L
Encoding: 76 76 11
Width: 1188
Flags: W
LayerCount: 2
Fore
SplineSet
200 59 m 256,0,1
 200 93 200 93 204.5 108 c 128,-1,2
 209 123 209 123 211 130 c 1,3,4
 211 172 211 172 211.5 199 c 128,-1,5
 212 226 212 226 213 243.5 c 128,-1,6
 214 261 214 261 215.5 273 c 128,-1,7
 217 285 217 285 218 297 c 128,-1,8
 219 309 219 309 219.5 323.5 c 128,-1,9
 220 338 220 338 220 362 c 0,10,11
 220 450 220 450 215 539.5 c 128,-1,12
 210 629 210 629 203.5 720.5 c 128,-1,13
 197 812 197 812 192 905 c 128,-1,14
 187 998 187 998 187 1093 c 0,15,16
 187 1172 187 1172 188.5 1225.5 c 128,-1,17
 190 1279 190 1279 198 1311 c 128,-1,18
 206 1343 206 1343 222.5 1357 c 128,-1,19
 239 1371 239 1371 269 1371 c 0,20,21
 289 1371 289 1371 308 1362 c 128,-1,22
 327 1353 327 1353 341.5 1337.5 c 128,-1,23
 356 1322 356 1322 364.5 1301.5 c 128,-1,24
 373 1281 373 1281 373 1259 c 0,25,26
 373 1219 373 1219 371 1178 c 128,-1,27
 369 1137 369 1137 369 1099 c 0,28,29
 369 992 369 992 372.5 885 c 128,-1,30
 376 778 376 778 380.5 669 c 128,-1,31
 385 560 385 560 389 447.5 c 128,-1,32
 393 335 393 335 395 218 c 0,33,34
 395 201 395 201 397.5 198.5 c 128,-1,35
 400 196 400 196 420 196 c 0,36,37
 446 195 446 195 492.5 193 c 128,-1,38
 539 191 539 191 602 189 c 128,-1,39
 665 187 665 187 743.5 185.5 c 128,-1,40
 822 184 822 184 913 184 c 0,41,42
 951 184 951 184 989 191.5 c 128,-1,43
 1027 199 1027 199 1069 199 c 0,44,45
 1089 199 1089 199 1106.5 190 c 128,-1,46
 1124 181 1124 181 1137 166.5 c 128,-1,47
 1150 152 1150 152 1157.5 133.5 c 128,-1,48
 1165 115 1165 115 1165 95 c 0,49,50
 1165 77 1165 77 1155 58 c 128,-1,51
 1145 39 1145 39 1129 24 c 128,-1,52
 1113 9 1113 9 1093 -1 c 128,-1,53
 1073 -11 1073 -11 1054 -11 c 0,54,55
 1025 -11 1025 -11 1003.5 -6.5 c 128,-1,56
 982 -2 982 -2 958.5 4 c 128,-1,57
 935 10 935 10 906.5 14.5 c 128,-1,58
 878 19 878 19 835 19 c 0,59,60
 735 19 735 19 633.5 8.5 c 128,-1,61
 532 -2 532 -2 431 -2 c 0,62,63
 397 -2 397 -2 363.5 4.5 c 128,-1,64
 330 11 330 11 294 11 c 0,65,66
 288 11 288 11 274 9.5 c 128,-1,67
 260 8 260 8 247 8 c 0,68,69
 228 8 228 8 214 16.5 c 128,-1,70
 200 25 200 25 200 59 c 256,0,1
EndSplineSet
EndChar

StartChar: M
Encoding: 77 77 12
Width: 1696
Flags: W
LayerCount: 2
Fore
SplineSet
188 177 m 0,0,1
 188 200 188 200 193 224 c 128,-1,2
 198 248 198 248 198 270 c 0,3,4
 198 489 198 489 200 639.5 c 128,-1,5
 202 790 202 790 204.5 890 c 128,-1,6
 207 990 207 990 209 1049.5 c 128,-1,7
 211 1109 211 1109 211 1146 c 0,8,9
 211 1191 211 1191 219.5 1232 c 128,-1,10
 228 1273 228 1273 243 1304.5 c 128,-1,11
 258 1336 258 1336 279 1354.5 c 128,-1,12
 300 1373 300 1373 326 1373 c 0,13,14
 348 1373 348 1373 364 1362.5 c 128,-1,15
 380 1352 380 1352 391 1336 c 128,-1,16
 402 1320 402 1320 407.5 1300 c 128,-1,17
 413 1280 413 1280 413 1261 c 2,18,-1
 413 1256 l 1,19,20
 417 1243 417 1243 420 1224 c 0,21,22
 423 1204 423 1204 438.5 1165.5 c 128,-1,23
 454 1127 454 1127 477 1079 c 128,-1,24
 500 1031 500 1031 527.5 978 c 128,-1,25
 555 925 555 925 581 875 c 128,-1,26
 607 825 607 825 629.5 783 c 128,-1,27
 652 741 652 741 665 715 c 0,28,29
 673 698 673 698 685.5 672.5 c 128,-1,30
 698 647 698 647 712 619 c 128,-1,31
 726 591 726 591 740.5 563 c 128,-1,32
 755 535 755 535 767 513 c 128,-1,33
 779 491 779 491 787.5 477 c 128,-1,34
 796 463 796 463 799 463 c 0,35,36
 809 463 809 463 822 472.5 c 128,-1,37
 835 482 835 482 847.5 495 c 128,-1,38
 860 508 860 508 869.5 520 c 128,-1,39
 879 532 879 532 883 538 c 0,40,41
 891 551 891 551 902 567.5 c 128,-1,42
 913 584 913 584 928.5 608.5 c 128,-1,43
 944 633 944 633 965 667.5 c 128,-1,44
 986 702 986 702 1016 752 c 0,45,46
 1047 804 1047 804 1085.5 863 c 128,-1,47
 1124 922 1124 922 1163 982.5 c 128,-1,48
 1202 1043 1202 1043 1237.5 1102 c 128,-1,49
 1273 1161 1273 1161 1297 1212 c 0,50,51
 1305 1230 1305 1230 1313 1251 c 128,-1,52
 1321 1272 1321 1272 1332 1292 c 1,53,54
 1338 1309 1338 1309 1345.5 1324.5 c 128,-1,55
 1353 1340 1353 1340 1363.5 1351.5 c 128,-1,56
 1374 1363 1374 1363 1387.5 1370 c 128,-1,57
 1401 1377 1401 1377 1420 1377 c 0,58,59
 1471 1377 1471 1377 1500.5 1347.5 c 128,-1,60
 1530 1318 1530 1318 1530 1267 c 0,61,62
 1530 966 1530 966 1520.5 656 c 128,-1,63
 1511 346 1511 346 1511 30 c 0,64,65
 1511 10 1511 10 1501.5 -2.5 c 128,-1,66
 1492 -15 1492 -15 1479.5 -22 c 128,-1,67
 1467 -29 1467 -29 1455 -32 c 128,-1,68
 1443 -35 1443 -35 1437 -35 c 0,69,70
 1434 -35 1434 -35 1412.5 -30.5 c 128,-1,71
 1391 -26 1391 -26 1365.5 -14 c 128,-1,72
 1340 -2 1340 -2 1319.5 19.5 c 128,-1,73
 1299 41 1299 41 1299 76 c 0,74,75
 1299 100 1299 100 1305 125.5 c 128,-1,76
 1311 151 1311 151 1318.5 176 c 128,-1,77
 1326 201 1326 201 1333 225.5 c 128,-1,78
 1340 250 1340 250 1342 274 c 1,79,-1
 1342 778 l 2,80,81
 1342 815 1342 815 1341.5 855.5 c 128,-1,82
 1341 896 1341 896 1339 937 c 1,83,84
 1300 886 1300 886 1263.5 825.5 c 128,-1,85
 1227 765 1227 765 1190.5 701 c 128,-1,86
 1154 637 1154 637 1118 573 c 128,-1,87
 1082 509 1082 509 1045 450.5 c 128,-1,88
 1008 392 1008 392 968.5 342.5 c 128,-1,89
 929 293 929 293 887 258 c 0,90,91
 882 254 882 254 876.5 248.5 c 128,-1,92
 871 243 871 243 861 238 c 128,-1,93
 851 233 851 233 835 229.5 c 128,-1,94
 819 226 819 226 793 226 c 0,95,96
 771 226 771 226 744.5 248 c 128,-1,97
 718 270 718 270 690 305 c 128,-1,98
 662 340 662 340 634 383 c 128,-1,99
 606 426 606 426 582 467.5 c 128,-1,100
 558 509 558 509 539 544.5 c 128,-1,101
 520 580 520 580 510 601 c 2,102,-1
 379 869 l 1,103,104
 377 819 377 819 376 754.5 c 128,-1,105
 375 690 375 690 375 608 c 2,106,-1
 375 247 l 1,107,108
 378 227 378 227 386 202 c 128,-1,109
 394 177 394 177 394 154 c 0,110,111
 394 88 394 88 376.5 47.5 c 128,-1,112
 359 7 359 7 314 7 c 256,113,114
 269 7 269 7 243.5 20 c 128,-1,115
 218 33 218 33 206 56 c 128,-1,116
 194 79 194 79 191 110 c 128,-1,117
 188 141 188 141 188 177 c 0,0,1
EndSplineSet
EndChar

StartChar: N
Encoding: 78 78 13
Width: 1434
Flags: W
LayerCount: 2
Fore
SplineSet
209 177 m 0,0,1
 209 216 209 216 208 265 c 128,-1,2
 207 314 207 314 207 356 c 0,3,4
 207 420 207 420 208 491 c 128,-1,5
 209 562 209 562 210 635.5 c 128,-1,6
 211 709 211 709 212 783 c 128,-1,7
 213 857 213 857 213 929 c 0,8,9
 213 1003 213 1003 207.5 1077 c 128,-1,10
 202 1151 202 1151 202 1234 c 0,11,12
 202 1248 202 1248 206.5 1269 c 128,-1,13
 211 1290 211 1290 221 1309.5 c 128,-1,14
 231 1329 231 1329 246 1342.5 c 128,-1,15
 261 1356 261 1356 282 1356 c 0,16,17
 324 1356 324 1356 352.5 1336.5 c 128,-1,18
 381 1317 381 1317 400.5 1285 c 128,-1,19
 420 1253 420 1253 433 1212 c 128,-1,20
 446 1171 446 1171 457.5 1128 c 128,-1,21
 469 1085 469 1085 481.5 1043.5 c 128,-1,22
 494 1002 494 1002 513 969 c 0,23,24
 546 910 546 910 586 841 c 128,-1,25
 626 772 626 772 667.5 703 c 128,-1,26
 709 634 709 634 748.5 569.5 c 128,-1,27
 788 505 788 505 821 455 c 1,28,29
 859 404 859 404 894.5 357 c 128,-1,30
 930 310 930 310 959 274.5 c 128,-1,31
 988 239 988 239 1008.5 218 c 128,-1,32
 1029 197 1029 197 1038 197 c 0,33,34
 1041 197 1041 197 1044.5 220 c 128,-1,35
 1048 243 1048 243 1051 279.5 c 128,-1,36
 1054 316 1054 316 1057.5 361.5 c 128,-1,37
 1061 407 1061 407 1063.5 451.5 c 128,-1,38
 1066 496 1066 496 1068.5 535 c 128,-1,39
 1071 574 1071 574 1072 598 c 0,40,41
 1073 728 1073 728 1074 827 c 128,-1,42
 1075 926 1075 926 1075.5 1003.5 c 128,-1,43
 1076 1081 1076 1081 1076 1142 c 128,-1,44
 1076 1203 1076 1203 1076 1257 c 0,45,46
 1076 1307 1076 1307 1080 1345 c 128,-1,47
 1084 1383 1084 1383 1095.5 1409 c 128,-1,48
 1107 1435 1107 1435 1126.5 1448.5 c 128,-1,49
 1146 1462 1146 1462 1176 1462 c 0,50,51
 1201 1462 1201 1462 1219 1458.5 c 128,-1,52
 1237 1455 1237 1455 1249 1442.5 c 128,-1,53
 1261 1430 1261 1430 1266.5 1405.5 c 128,-1,54
 1272 1381 1272 1381 1272 1339 c 0,55,56
 1272 1236 1272 1236 1267 1135.5 c 128,-1,57
 1262 1035 1262 1035 1259 931 c 0,58,59
 1254 754 1254 754 1244 570.5 c 128,-1,60
 1234 387 1234 387 1224 205 c 0,61,62
 1221 163 1221 163 1219 115 c 128,-1,63
 1217 67 1217 67 1203.5 26.5 c 128,-1,64
 1190 -14 1190 -14 1158.5 -40.5 c 128,-1,65
 1127 -67 1127 -67 1063 -67 c 0,66,67
 1049 -67 1049 -67 1036 -62 c 128,-1,68
 1023 -57 1023 -57 1011.5 -50.5 c 128,-1,69
 1000 -44 1000 -44 991 -36 c 128,-1,70
 982 -28 982 -28 978 -22 c 1,71,72
 890 69 890 69 808.5 174.5 c 128,-1,73
 727 280 727 280 652 391 c 128,-1,74
 577 502 577 502 509.5 615.5 c 128,-1,75
 442 729 442 729 384 837 c 1,76,77
 384 588 384 588 391 462 c 128,-1,78
 398 336 398 336 400 322 c 0,79,80
 406 291 406 291 412.5 249 c 128,-1,81
 419 207 419 207 419 159 c 0,82,83
 419 131 419 131 414.5 106 c 128,-1,84
 410 81 410 81 399 62 c 128,-1,85
 388 43 388 43 370 32 c 128,-1,86
 352 21 352 21 325 21 c 0,87,88
 286 21 286 21 263 33.5 c 128,-1,89
 240 46 240 46 228 67.5 c 128,-1,90
 216 89 216 89 212.5 117.5 c 128,-1,91
 209 146 209 146 209 177 c 0,0,1
EndSplineSet
EndChar

StartChar: O
Encoding: 79 79 14
Width: 1658
Flags: W
LayerCount: 2
Fore
SplineSet
128 681 m 0,0,1
 128 810 128 810 156.5 913 c 128,-1,2
 185 1016 185 1016 235.5 1094.5 c 128,-1,3
 286 1173 286 1173 355.5 1229 c 128,-1,4
 425 1285 425 1285 506 1321 c 128,-1,5
 587 1357 587 1357 676.5 1373.5 c 128,-1,6
 766 1390 766 1390 857 1390 c 0,7,8
 1014 1390 1014 1390 1139 1339 c 128,-1,9
 1264 1288 1264 1288 1351 1192.5 c 128,-1,10
 1438 1097 1438 1097 1484 959.5 c 128,-1,11
 1530 822 1530 822 1530 649 c 0,12,13
 1530 549 1530 549 1503.5 460 c 128,-1,14
 1477 371 1477 371 1430 296 c 128,-1,15
 1383 221 1383 221 1318.5 161.5 c 128,-1,16
 1254 102 1254 102 1177 60 c 128,-1,17
 1100 18 1100 18 1014 -4 c 128,-1,18
 928 -26 928 -26 839 -26 c 0,19,20
 744 -26 744 -26 654.5 4 c 128,-1,21
 565 34 565 34 486 86 c 128,-1,22
 407 138 407 138 341 207 c 128,-1,23
 275 276 275 276 228 355 c 128,-1,24
 181 434 181 434 154.5 517.5 c 128,-1,25
 128 601 128 601 128 681 c 0,0,1
310 711 m 0,26,27
 310 643 310 643 329.5 574.5 c 128,-1,28
 349 506 349 506 384.5 443 c 128,-1,29
 420 380 420 380 468 325.5 c 128,-1,30
 516 271 516 271 573.5 230.5 c 128,-1,31
 631 190 631 190 695 166.5 c 128,-1,32
 759 143 759 143 826 143 c 0,33,34
 932 143 932 143 1027.5 177.5 c 128,-1,35
 1123 212 1123 212 1195 279 c 128,-1,36
 1267 346 1267 346 1309 445 c 128,-1,37
 1351 544 1351 544 1351 673 c 0,38,39
 1351 799 1351 799 1315.5 900 c 128,-1,40
 1280 1001 1280 1001 1217 1072 c 128,-1,41
 1154 1143 1154 1143 1068 1181 c 128,-1,42
 982 1219 982 1219 881 1219 c 0,43,44
 772 1219 772 1219 669.5 1188 c 128,-1,45
 567 1157 567 1157 487 1094 c 128,-1,46
 407 1031 407 1031 358.5 935.5 c 128,-1,47
 310 840 310 840 310 711 c 0,26,27
EndSplineSet
EndChar

StartChar: P
Encoding: 80 80 15
Width: 1316
Flags: W
LayerCount: 2
Fore
SplineSet
265 13 m 0,0,1
 255 20 255 20 247.5 43 c 128,-1,2
 240 66 240 66 236 99.5 c 128,-1,3
 232 133 232 133 229.5 173.5 c 128,-1,4
 227 214 227 214 226 255.5 c 128,-1,5
 225 297 225 297 225 337.5 c 128,-1,6
 225 378 225 378 225 412 c 2,7,-1
 225 494 l 1,8,9
 214 511 214 511 205.5 530.5 c 128,-1,10
 197 550 197 550 197 565 c 0,11,12
 197 573 197 573 199.5 581 c 128,-1,13
 202 589 202 589 206 597 c 0,14,15
 210 606 210 606 215 614 c 1,16,17
 219 713 219 713 221 773.5 c 128,-1,18
 223 834 223 834 224 872.5 c 128,-1,19
 225 911 225 911 225 934.5 c 128,-1,20
 225 958 225 958 225 983 c 0,21,22
 225 1024 225 1024 227 1066 c 128,-1,23
 229 1108 229 1108 237 1148 c 128,-1,24
 245 1188 245 1188 261 1223.5 c 128,-1,25
 277 1259 277 1259 306 1287 c 0,26,27
 314 1295 314 1295 329.5 1299.5 c 128,-1,28
 345 1304 345 1304 359 1304 c 0,29,30
 383 1304 383 1304 403 1292 c 1,31,32
 424 1297 424 1297 450.5 1310 c 128,-1,33
 477 1323 477 1323 512 1336.5 c 128,-1,34
 547 1350 547 1350 593 1360.5 c 128,-1,35
 639 1371 639 1371 700 1371 c 0,36,37
 963 1371 963 1371 1094 1280.5 c 128,-1,38
 1225 1190 1225 1190 1225 1015 c 0,39,40
 1225 933 1225 933 1210.5 874.5 c 128,-1,41
 1196 816 1196 816 1177 777 c 128,-1,42
 1158 738 1158 738 1138.5 716 c 128,-1,43
 1119 694 1119 694 1110 685 c 0,44,45
 1088 663 1088 663 1050 639.5 c 128,-1,46
 1012 616 1012 616 963 594 c 128,-1,47
 914 572 914 572 856.5 551.5 c 128,-1,48
 799 531 799 531 739 514.5 c 128,-1,49
 679 498 679 498 619 487 c 128,-1,50
 559 476 559 476 505 473 c 0,51,52
 491 472 491 472 473.5 473 c 128,-1,53
 456 474 456 474 440 476 c 0,54,55
 422 478 422 478 403 481 c 1,56,57
 407 415 407 415 413.5 361.5 c 128,-1,58
 420 308 420 308 426.5 258.5 c 128,-1,59
 433 209 433 209 438 159.5 c 128,-1,60
 443 110 443 110 443 52 c 0,61,62
 443 32 443 32 433.5 20 c 128,-1,63
 424 8 424 8 410 2 c 128,-1,64
 396 -4 396 -4 380 -5.5 c 128,-1,65
 364 -7 364 -7 351 -7 c 0,66,67
 332 -7 332 -7 307 -2.5 c 128,-1,68
 282 2 282 2 265 13 c 0,0,1
399 680 m 1,69,70
 423 678 423 678 443 674.5 c 128,-1,71
 463 671 463 671 482 667.5 c 128,-1,72
 501 664 501 664 519 661 c 128,-1,73
 537 658 537 658 557 658 c 0,74,75
 585 658 585 658 623 663.5 c 128,-1,76
 661 669 661 669 703.5 678 c 128,-1,77
 746 687 746 687 788.5 699.5 c 128,-1,78
 831 712 831 712 868.5 726 c 128,-1,79
 906 740 906 740 934 754.5 c 128,-1,80
 962 769 962 769 975 783 c 0,81,82
 1004 815 1004 815 1026.5 862 c 128,-1,83
 1049 909 1049 909 1049 962 c 0,84,85
 1049 1021 1049 1021 1030.5 1066.5 c 128,-1,86
 1012 1112 1012 1112 972 1143 c 128,-1,87
 932 1174 932 1174 869 1190 c 128,-1,88
 806 1206 806 1206 717 1206 c 0,89,90
 679 1206 679 1206 638 1202.5 c 128,-1,91
 597 1199 597 1199 560.5 1189.5 c 128,-1,92
 524 1180 524 1180 496.5 1164 c 128,-1,93
 469 1148 469 1148 460 1124 c 0,94,95
 459 1121 459 1121 456 1109.5 c 128,-1,96
 453 1098 453 1098 446.5 1083.5 c 128,-1,97
 440 1069 440 1069 429 1055 c 128,-1,98
 418 1041 418 1041 401 1032 c 1,99,100
 399 1017 399 1017 397.5 994 c 128,-1,101
 396 971 396 971 395.5 945.5 c 128,-1,102
 395 920 395 920 394.5 894.5 c 128,-1,103
 394 869 394 869 394 849 c 0,104,105
 394 831 394 831 394.5 808 c 128,-1,106
 395 785 395 785 395.5 762 c 128,-1,107
 396 739 396 739 397 717.5 c 128,-1,108
 398 696 398 696 399 680 c 1,69,70
EndSplineSet
EndChar

StartChar: Q
Encoding: 81 81 16
Width: 1687
Flags: W
LayerCount: 2
Fore
SplineSet
129 716 m 0,0,1
 129 815 129 815 155.5 904 c 128,-1,2
 182 993 182 993 229 1068 c 128,-1,3
 276 1143 276 1143 340.5 1202.5 c 128,-1,4
 405 1262 405 1262 482 1303.5 c 128,-1,5
 559 1345 559 1345 645 1367.5 c 128,-1,6
 731 1390 731 1390 820 1390 c 0,7,8
 915 1390 915 1390 1004.5 1360 c 128,-1,9
 1094 1330 1094 1330 1173 1278.5 c 128,-1,10
 1252 1227 1252 1227 1318 1158 c 128,-1,11
 1384 1089 1384 1089 1431 1011 c 128,-1,12
 1478 933 1478 933 1504.5 849 c 128,-1,13
 1531 765 1531 765 1531 685 c 0,14,15
 1531 531 1531 531 1491.5 416 c 128,-1,16
 1452 301 1452 301 1384 217 c 1,17,18
 1417 182 1417 182 1446.5 147 c 128,-1,19
 1476 112 1476 112 1499 81 c 128,-1,20
 1522 50 1522 50 1535.5 24 c 128,-1,21
 1549 -2 1549 -2 1549 -20 c 0,22,23
 1549 -51 1549 -51 1528 -71.5 c 128,-1,24
 1507 -92 1507 -92 1467 -92 c 0,25,26
 1454 -92 1454 -92 1435 -90 c 128,-1,27
 1416 -88 1416 -88 1397.5 -83 c 128,-1,28
 1379 -78 1379 -78 1362.5 -69.5 c 128,-1,29
 1346 -61 1346 -61 1339 -47 c 1,30,31
 1334 -40 1334 -40 1307.5 -3 c 128,-1,32
 1281 34 1281 34 1238 88 c 1,33,34
 1142 28 1142 28 1030.5 1 c 128,-1,35
 919 -26 919 -26 803 -26 c 0,36,37
 645 -26 645 -26 520 25 c 128,-1,38
 395 76 395 76 308 172 c 128,-1,39
 221 268 221 268 175 405.5 c 128,-1,40
 129 543 129 543 129 716 c 0,0,1
313 688 m 0,41,42
 313 563 313 563 348.5 462 c 128,-1,43
 384 361 384 361 446.5 290.5 c 128,-1,44
 509 220 509 220 594.5 182 c 128,-1,45
 680 144 680 144 781 144 c 0,46,47
 872 144 872 144 958 165 c 128,-1,48
 1044 186 1044 186 1118 229 c 1,49,50
 1066 288 1066 288 1008.5 343.5 c 128,-1,51
 951 399 951 399 892 444 c 1,52,-1
 892 474 l 2,53,54
 892 517 892 517 907 542.5 c 128,-1,55
 922 568 922 568 957 568 c 0,56,57
 982 568 982 568 1013 552 c 128,-1,58
 1044 536 1044 536 1074.5 514.5 c 128,-1,59
 1105 493 1105 493 1131.5 469.5 c 128,-1,60
 1158 446 1158 446 1173 431 c 0,61,62
 1187 416 1187 416 1208.5 395 c 128,-1,63
 1230 374 1230 374 1256 349 c 1,64,65
 1301 407 1301 407 1327 481.5 c 128,-1,66
 1353 556 1353 556 1353 649 c 0,67,68
 1353 717 1353 717 1333.5 786.5 c 128,-1,69
 1314 856 1314 856 1278.5 919.5 c 128,-1,70
 1243 983 1243 983 1195 1038.5 c 128,-1,71
 1147 1094 1147 1094 1089.5 1135.5 c 128,-1,72
 1032 1177 1032 1177 968 1200.5 c 128,-1,73
 904 1224 904 1224 837 1224 c 0,74,75
 731 1224 731 1224 636 1188.5 c 128,-1,76
 541 1153 541 1153 469 1085 c 128,-1,77
 397 1017 397 1017 355 917 c 128,-1,78
 313 817 313 817 313 688 c 0,41,42
EndSplineSet
EndChar

StartChar: R
Encoding: 82 82 17
Width: 1414
Flags: W
LayerCount: 2
Fore
SplineSet
236 139 m 0,0,1
 236 168 236 168 241 196 c 128,-1,2
 246 224 246 224 246 255 c 0,3,4
 246 277 246 277 241.5 316.5 c 128,-1,5
 237 356 237 356 231 406 c 128,-1,6
 225 456 225 456 217 513.5 c 128,-1,7
 209 571 209 571 203 628.5 c 128,-1,8
 197 686 197 686 192.5 741 c 128,-1,9
 188 796 188 796 188 841 c 0,10,11
 188 880 188 880 189 929.5 c 128,-1,12
 190 979 190 979 196.5 1027.5 c 128,-1,13
 203 1076 203 1076 217.5 1117.5 c 128,-1,14
 232 1159 232 1159 259 1183 c 0,15,16
 363 1274 363 1274 484 1328 c 128,-1,17
 605 1382 605 1382 747 1382 c 0,18,19
 816 1382 816 1382 884 1364 c 128,-1,20
 952 1346 952 1346 1007 1308 c 128,-1,21
 1062 1270 1062 1270 1096 1210.5 c 128,-1,22
 1130 1151 1130 1151 1130 1069 c 0,23,24
 1130 1008 1130 1008 1103.5 962 c 128,-1,25
 1077 916 1077 916 1037 882.5 c 128,-1,26
 997 849 997 849 949.5 825.5 c 128,-1,27
 902 802 902 802 859 787 c 1,28,29
 902 786 902 786 953 773.5 c 128,-1,30
 1004 761 1004 761 1052 741 c 128,-1,31
 1100 721 1100 721 1139 695 c 128,-1,32
 1178 669 1178 669 1197 640 c 0,33,34
 1234 581 1234 581 1255.5 513 c 128,-1,35
 1277 445 1277 445 1287.5 368 c 128,-1,36
 1298 291 1298 291 1300.5 206 c 128,-1,37
 1303 121 1303 121 1303 28 c 0,38,39
 1303 6 1303 6 1291.5 -12 c 128,-1,40
 1280 -30 1280 -30 1264 -43 c 128,-1,41
 1248 -56 1248 -56 1229.5 -63.5 c 128,-1,42
 1211 -71 1211 -71 1198 -71 c 0,43,44
 1168 -71 1168 -71 1150.5 -59.5 c 128,-1,45
 1133 -48 1133 -48 1124 -28 c 128,-1,46
 1115 -8 1115 -8 1112.5 18.5 c 128,-1,47
 1110 45 1110 45 1110 75 c 0,48,49
 1110 106 1110 106 1114.5 137.5 c 128,-1,50
 1119 169 1119 169 1119 209 c 0,51,52
 1119 239 1119 239 1117 273.5 c 128,-1,53
 1115 308 1115 308 1110.5 341.5 c 128,-1,54
 1106 375 1106 375 1099 406.5 c 128,-1,55
 1092 438 1092 438 1082 463 c 0,56,57
 1056 524 1056 524 1007.5 561.5 c 128,-1,58
 959 599 959 599 898.5 620 c 128,-1,59
 838 641 838 641 772 648 c 128,-1,60
 706 655 706 655 645 655 c 0,61,62
 630 655 630 655 596.5 650 c 128,-1,63
 563 645 563 645 525 636 c 128,-1,64
 487 627 487 627 451.5 614 c 128,-1,65
 416 601 416 601 397 585 c 1,66,67
 397 534 397 534 402 476.5 c 128,-1,68
 407 419 407 419 415 360 c 128,-1,69
 423 301 423 301 434 244.5 c 128,-1,70
 445 188 445 188 456 139 c 0,71,72
 457 134 457 134 457.5 130 c 128,-1,73
 458 126 458 126 458 121 c 0,74,75
 458 101 458 101 448 84 c 128,-1,76
 438 67 438 67 421.5 55 c 128,-1,77
 405 43 405 43 383 36.5 c 128,-1,78
 361 30 361 30 336 30 c 0,79,80
 316 30 316 30 297.5 40 c 128,-1,81
 279 50 279 50 265.5 65.5 c 128,-1,82
 252 81 252 81 244 100.5 c 128,-1,83
 236 120 236 120 236 139 c 0,0,1
376 790 m 1,84,85
 404 791 404 791 457 801.5 c 128,-1,86
 510 812 510 812 573.5 830 c 128,-1,87
 637 848 637 848 703.5 872 c 128,-1,88
 770 896 770 896 824.5 924 c 128,-1,89
 879 952 879 952 913.5 983.5 c 128,-1,90
 948 1015 948 1015 948 1047 c 0,91,92
 948 1100 948 1100 929.5 1133.5 c 128,-1,93
 911 1167 911 1167 881 1186 c 128,-1,94
 851 1205 851 1205 813.5 1212 c 128,-1,95
 776 1219 776 1219 739 1219 c 0,96,97
 705 1219 705 1219 664 1213 c 128,-1,98
 623 1207 623 1207 582 1194.5 c 128,-1,99
 541 1182 541 1182 502.5 1164 c 128,-1,100
 464 1146 464 1146 434 1123 c 128,-1,101
 404 1100 404 1100 386 1071 c 128,-1,102
 368 1042 368 1042 368 1009 c 0,103,104
 368 950 368 950 369 897 c 128,-1,105
 370 844 370 844 376 790 c 1,84,85
EndSplineSet
EndChar

StartChar: S
Encoding: 83 83 18
Width: 1279
Flags: W
LayerCount: 2
Fore
SplineSet
213 218 m 0,0,1
 213 234 213 234 224 261.5 c 128,-1,2
 235 289 235 289 252 311 c 128,-1,3
 269 333 269 333 289.5 340 c 128,-1,4
 310 347 310 347 329 322 c 1,5,6
 362 262 362 262 389.5 228 c 128,-1,7
 417 194 417 194 447 177.5 c 128,-1,8
 477 161 477 161 513.5 157 c 128,-1,9
 550 153 550 153 601 153 c 0,10,11
 663 153 663 153 728 174 c 128,-1,12
 793 195 793 195 846.5 227 c 128,-1,13
 900 259 900 259 934 297 c 128,-1,14
 968 335 968 335 968 368 c 0,15,16
 968 392 968 392 947 416 c 128,-1,17
 926 440 926 440 889.5 462 c 128,-1,18
 853 484 853 484 804 503 c 128,-1,19
 755 522 755 522 700 535 c 1,20,21
 637 544 637 544 571 555.5 c 128,-1,22
 505 567 505 567 442 583.5 c 128,-1,23
 379 600 379 600 324 625 c 128,-1,24
 269 650 269 650 227 686 c 128,-1,25
 185 722 185 722 161 771.5 c 128,-1,26
 137 821 137 821 137 889 c 0,27,28
 137 967 137 967 161 1034 c 128,-1,29
 185 1101 185 1101 226.5 1156 c 128,-1,30
 268 1211 268 1211 324 1253.5 c 128,-1,31
 380 1296 380 1296 444.5 1325 c 128,-1,32
 509 1354 509 1354 578.5 1369 c 128,-1,33
 648 1384 648 1384 717 1384 c 0,34,35
 789 1384 789 1384 847.5 1364 c 128,-1,36
 906 1344 906 1344 947 1310 c 128,-1,37
 988 1276 988 1276 1010.5 1232.5 c 128,-1,38
 1033 1189 1033 1189 1033 1142 c 0,39,40
 1033 1117 1033 1117 1032 1085 c 128,-1,41
 1031 1053 1031 1053 1023 1024.5 c 128,-1,42
 1015 996 1015 996 998 976 c 128,-1,43
 981 956 981 956 948 956 c 0,44,45
 928 956 928 956 917 964 c 128,-1,46
 906 972 906 972 901 984 c 128,-1,47
 896 996 896 996 895 1010 c 128,-1,48
 894 1024 894 1024 894 1036 c 0,49,50
 894 1089 894 1089 880 1123 c 128,-1,51
 866 1157 866 1157 839.5 1176.5 c 128,-1,52
 813 1196 813 1196 774.5 1203.5 c 128,-1,53
 736 1211 736 1211 687 1211 c 0,54,55
 653 1211 653 1211 613 1199 c 128,-1,56
 573 1187 573 1187 532 1166 c 128,-1,57
 491 1145 491 1145 452.5 1116.5 c 128,-1,58
 414 1088 414 1088 384 1053.5 c 128,-1,59
 354 1019 354 1019 336 980.5 c 128,-1,60
 318 942 318 942 318 902 c 0,61,62
 318 855 318 855 350.5 823.5 c 128,-1,63
 383 792 383 792 435.5 771 c 128,-1,64
 488 750 488 750 554.5 736 c 128,-1,65
 621 722 621 722 690 710 c 0,66,67
 746 700 746 700 802.5 687 c 128,-1,68
 859 674 859 674 910 656 c 128,-1,69
 961 638 961 638 1005 613 c 128,-1,70
 1049 588 1049 588 1081.5 553.5 c 128,-1,71
 1114 519 1114 519 1132.5 474 c 128,-1,72
 1151 429 1151 429 1151 371 c 0,73,74
 1151 300 1151 300 1119.5 244 c 128,-1,75
 1088 188 1088 188 1037 145 c 128,-1,76
 986 102 986 102 922.5 71 c 128,-1,77
 859 40 859 40 795 20.5 c 128,-1,78
 731 1 731 1 672.5 -8 c 128,-1,79
 614 -17 614 -17 574 -17 c 0,80,81
 543 -17 543 -17 504 -14 c 128,-1,82
 465 -11 465 -11 425 -2.5 c 128,-1,83
 385 6 385 6 347 22 c 128,-1,84
 309 38 309 38 279 64 c 128,-1,85
 249 90 249 90 231 128 c 128,-1,86
 213 166 213 166 213 218 c 0,0,1
EndSplineSet
EndChar

StartChar: T
Encoding: 84 84 19
Width: 1249
Flags: W
LayerCount: 2
Fore
SplineSet
568 158 m 0,0,1
 568 182 568 182 570 206 c 128,-1,2
 572 230 572 230 572 256 c 0,3,4
 572 288 572 288 568.5 319.5 c 128,-1,5
 565 351 565 351 561 383 c 128,-1,6
 557 415 557 415 553.5 448 c 128,-1,7
 550 481 550 481 550 515 c 0,8,9
 550 569 550 569 545.5 622 c 128,-1,10
 541 675 541 675 536 729 c 128,-1,11
 531 783 531 783 526.5 838.5 c 128,-1,12
 522 894 522 894 521 952 c 2,13,-1
 519 1163 l 1,14,15
 487 1162 487 1162 449 1157.5 c 128,-1,16
 411 1153 411 1153 371.5 1147.5 c 128,-1,17
 332 1142 332 1142 291.5 1138 c 128,-1,18
 251 1134 251 1134 215 1134 c 0,19,20
 149 1134 149 1134 120.5 1149.5 c 128,-1,21
 92 1165 92 1165 90 1197 c 0,22,23
 87 1240 87 1240 101 1267 c 128,-1,24
 115 1294 115 1294 138 1309.5 c 128,-1,25
 161 1325 161 1325 190.5 1331 c 128,-1,26
 220 1337 220 1337 248 1337 c 0,27,28
 396 1337 396 1337 546.5 1343 c 128,-1,29
 697 1349 697 1349 857 1349 c 0,30,31
 880 1349 880 1349 903 1352.5 c 128,-1,32
 926 1356 926 1356 949.5 1360 c 128,-1,33
 973 1364 973 1364 996.5 1367.5 c 128,-1,34
 1020 1371 1020 1371 1045 1371 c 0,35,36
 1069 1371 1069 1371 1088 1360 c 128,-1,37
 1107 1349 1107 1349 1121 1331.5 c 128,-1,38
 1135 1314 1135 1314 1142.5 1291.5 c 128,-1,39
 1150 1269 1150 1269 1150 1246 c 0,40,41
 1150 1232 1150 1232 1141 1213.5 c 128,-1,42
 1132 1195 1132 1195 1117 1178 c 128,-1,43
 1102 1161 1102 1161 1083 1149.5 c 128,-1,44
 1064 1138 1064 1138 1045 1138 c 0,45,46
 1022 1138 1022 1138 1003 1145.5 c 128,-1,47
 984 1153 984 1153 967.5 1162.5 c 128,-1,48
 951 1172 951 1172 937 1179.5 c 128,-1,49
 923 1187 923 1187 911 1187 c 0,50,51
 901 1187 901 1187 872.5 1186.5 c 128,-1,52
 844 1186 844 1186 810.5 1185 c 128,-1,53
 777 1184 777 1184 746.5 1182 c 128,-1,54
 716 1180 716 1180 701 1177 c 1,55,-1
 701 1155 l 2,56,57
 701 1139 701 1139 701.5 1105.5 c 128,-1,58
 702 1072 702 1072 702 1009 c 0,59,60
 702 908 702 908 709.5 807.5 c 128,-1,61
 717 707 717 707 730 604 c 1,62,63
 736 506 736 506 739.5 408 c 128,-1,64
 743 310 743 310 757 208 c 0,65,66
 758 200 758 200 763 182 c 128,-1,67
 768 164 768 164 773 143.5 c 128,-1,68
 778 123 778 123 782.5 104 c 128,-1,69
 787 85 787 85 787 76 c 0,70,71
 787 53 787 53 784 37.5 c 128,-1,72
 781 22 781 22 771 12 c 128,-1,73
 761 2 761 2 742 -3 c 128,-1,74
 723 -8 723 -8 692 -9 c 0,75,76
 648 -11 648 -11 623 2 c 128,-1,77
 598 15 598 15 586 38.5 c 128,-1,78
 574 62 574 62 571 93 c 128,-1,79
 568 124 568 124 568 158 c 0,0,1
EndSplineSet
EndChar

StartChar: U
Encoding: 85 85 20
Width: 1396
Flags: W
LayerCount: 2
Fore
SplineSet
616 -31 m 0,0,1
 526 -31 526 -31 458 2.5 c 128,-1,2
 390 36 390 36 341 92.5 c 128,-1,3
 292 149 292 149 260 224 c 128,-1,4
 228 299 228 299 209 382 c 128,-1,5
 190 465 190 465 182.5 551 c 128,-1,6
 175 637 175 637 175 716 c 0,7,8
 175 774 175 774 179 844.5 c 128,-1,9
 183 915 183 915 190 987 c 128,-1,10
 197 1059 197 1059 206.5 1128 c 128,-1,11
 216 1197 216 1197 228 1252 c 0,12,13
 234 1280 234 1280 261 1303 c 128,-1,14
 288 1326 288 1326 328 1326 c 0,15,16
 352 1326 352 1326 367 1319 c 128,-1,17
 382 1312 382 1312 391 1300 c 128,-1,18
 400 1288 400 1288 403.5 1272.5 c 128,-1,19
 407 1257 407 1257 407 1239 c 0,20,21
 407 1228 407 1228 406 1215 c 128,-1,22
 405 1202 405 1202 403 1190 c 0,23,24
 395 1145 395 1145 387.5 1090.5 c 128,-1,25
 380 1036 380 1036 374 979.5 c 128,-1,26
 368 923 368 923 364.5 868.5 c 128,-1,27
 361 814 361 814 361 769 c 0,28,29
 361 704 361 704 364.5 632 c 128,-1,30
 368 560 368 560 378.5 489.5 c 128,-1,31
 389 419 389 419 408 355 c 128,-1,32
 427 291 427 291 459 242 c 128,-1,33
 491 193 491 193 537.5 164 c 128,-1,34
 584 135 584 135 648 135 c 0,35,36
 724 135 724 135 787.5 155 c 128,-1,37
 851 175 851 175 897 213.5 c 128,-1,38
 943 252 943 252 969.5 307 c 128,-1,39
 996 362 996 362 999 432 c 2,40,-1
 1023 984 l 2,41,42
 1028 1089 1028 1089 1040 1161.5 c 128,-1,43
 1052 1234 1052 1234 1071 1278 c 128,-1,44
 1090 1322 1090 1322 1116 1341.5 c 128,-1,45
 1142 1361 1142 1361 1174 1361 c 0,46,47
 1207 1361 1207 1361 1227 1325.5 c 128,-1,48
 1247 1290 1247 1290 1247 1239 c 0,49,50
 1247 1227 1247 1227 1238 1177 c 128,-1,51
 1229 1127 1229 1127 1217.5 1049.5 c 128,-1,52
 1206 972 1206 972 1197 873.5 c 128,-1,53
 1188 775 1188 775 1188 667 c 0,54,55
 1188 612 1188 612 1189 552 c 128,-1,56
 1190 492 1190 492 1191.5 430.5 c 128,-1,57
 1193 369 1193 369 1194.5 307 c 128,-1,58
 1196 245 1196 245 1196 187 c 0,59,60
 1196 157 1196 157 1185 135 c 128,-1,61
 1174 113 1174 113 1157 98 c 128,-1,62
 1140 83 1140 83 1118.5 75.5 c 128,-1,63
 1097 68 1097 68 1075 68 c 0,64,65
 1064 68 1064 68 1055 76.5 c 128,-1,66
 1046 85 1046 85 1038.5 96.5 c 128,-1,67
 1031 108 1031 108 1025.5 120 c 128,-1,68
 1020 132 1020 132 1016 140 c 1,69,70
 980 103 980 103 939 72 c 128,-1,71
 898 41 898 41 849 18 c 128,-1,72
 800 -5 800 -5 742.5 -18 c 128,-1,73
 685 -31 685 -31 616 -31 c 0,0,1
EndSplineSet
EndChar

StartChar: V
Encoding: 86 86 21
Width: 1394
Flags: W
LayerCount: 2
Fore
SplineSet
517 -4 m 0,0,1
 510 -4 510 -4 488.5 39 c 128,-1,2
 467 82 467 82 437.5 154 c 128,-1,3
 408 226 408 226 372.5 320 c 128,-1,4
 337 414 337 414 301.5 515.5 c 128,-1,5
 266 617 266 617 232 719 c 128,-1,6
 198 821 198 821 172 909.5 c 128,-1,7
 146 998 146 998 130.5 1065.5 c 128,-1,8
 115 1133 115 1133 115 1165 c 0,9,10
 115 1177 115 1177 115.5 1195.5 c 128,-1,11
 116 1214 116 1214 123 1231.5 c 128,-1,12
 130 1249 130 1249 145.5 1261 c 128,-1,13
 161 1273 161 1273 190 1273 c 0,14,15
 203 1273 203 1273 218.5 1268.5 c 128,-1,16
 234 1264 234 1264 248 1255 c 128,-1,17
 262 1246 262 1246 273 1232.5 c 128,-1,18
 284 1219 284 1219 288 1202 c 0,19,20
 302 1139 302 1139 322 1064.5 c 128,-1,21
 342 990 342 990 364.5 911 c 128,-1,22
 387 832 387 832 411.5 752 c 128,-1,23
 436 672 436 672 460 598.5 c 128,-1,24
 484 525 484 525 507 462 c 128,-1,25
 530 399 530 399 550 354 c 1,26,27
 551 348 551 348 554 332.5 c 128,-1,28
 557 317 557 317 560.5 301.5 c 128,-1,29
 564 286 564 286 569 274 c 128,-1,30
 574 262 574 262 579 262 c 0,31,32
 587 262 587 262 597 279 c 128,-1,33
 607 296 607 296 617 319.5 c 128,-1,34
 627 343 627 343 637 368 c 128,-1,35
 647 393 647 393 655 408 c 1,36,37
 722 516 722 516 786.5 628.5 c 128,-1,38
 851 741 851 741 915.5 853.5 c 128,-1,39
 980 966 980 966 1045.5 1077.5 c 128,-1,40
 1111 1189 1111 1189 1182 1296 c 0,41,42
 1204 1330 1204 1330 1229 1348.5 c 128,-1,43
 1254 1367 1254 1367 1299 1367 c 0,44,45
 1306 1367 1306 1367 1316.5 1361.5 c 128,-1,46
 1327 1356 1327 1356 1337 1345 c 128,-1,47
 1347 1334 1347 1334 1354 1316 c 128,-1,48
 1361 1298 1361 1298 1361 1274 c 0,49,50
 1361 1265 1361 1265 1358.5 1252.5 c 128,-1,51
 1356 1240 1356 1240 1352 1228 c 128,-1,52
 1348 1216 1348 1216 1343.5 1206 c 128,-1,53
 1339 1196 1339 1196 1336 1191 c 0,54,55
 1320 1167 1320 1167 1287 1114.5 c 128,-1,56
 1254 1062 1254 1062 1210.5 991 c 128,-1,57
 1167 920 1167 920 1116.5 836 c 128,-1,58
 1066 752 1066 752 1014 664.5 c 128,-1,59
 962 577 962 577 912 492 c 128,-1,60
 862 407 862 407 819.5 334.5 c 128,-1,61
 777 262 777 262 745.5 207 c 128,-1,62
 714 152 714 152 699 125 c 0,63,64
 686 101 686 101 679 82 c 128,-1,65
 672 63 672 63 666 48.5 c 128,-1,66
 660 34 660 34 651.5 24 c 128,-1,67
 643 14 643 14 627.5 8 c 128,-1,68
 612 2 612 2 585.5 -1 c 128,-1,69
 559 -4 559 -4 517 -4 c 0,0,1
EndSplineSet
EndChar

StartChar: W
Encoding: 87 87 22
Width: 1781
Flags: W
LayerCount: 2
Fore
SplineSet
387 73 m 0,0,1
 364 208 364 208 338 336 c 128,-1,2
 312 464 312 464 282.5 590.5 c 128,-1,3
 253 717 253 717 219.5 845.5 c 128,-1,4
 186 974 186 974 148 1111 c 0,5,6
 142 1134 142 1134 134.5 1161 c 128,-1,7
 127 1188 127 1188 120.5 1215 c 128,-1,8
 114 1242 114 1242 109.5 1267.5 c 128,-1,9
 105 1293 105 1293 105 1312 c 0,10,11
 105 1325 105 1325 112 1342.5 c 128,-1,12
 119 1360 119 1360 131 1376.5 c 128,-1,13
 143 1393 143 1393 160 1404.5 c 128,-1,14
 177 1416 177 1416 197 1416 c 0,15,16
 230 1416 230 1416 249 1398 c 128,-1,17
 268 1380 268 1380 279.5 1351 c 128,-1,18
 291 1322 291 1322 297 1286.5 c 128,-1,19
 303 1251 303 1251 310 1216 c 0,20,21
 321 1162 321 1162 332 1116.5 c 128,-1,22
 343 1071 343 1071 355 1025.5 c 128,-1,23
 367 980 367 980 381.5 929.5 c 128,-1,24
 396 879 396 879 413.5 814 c 128,-1,25
 431 749 431 749 452.5 664 c 128,-1,26
 474 579 474 579 500 466 c 0,27,28
 508 431 508 431 512 395.5 c 128,-1,29
 516 360 516 360 527 346 c 1,30,-1
 555 432 l 2,31,32
 565 462 565 462 579 506 c 128,-1,33
 593 550 593 550 610 602.5 c 128,-1,34
 627 655 627 655 646.5 713 c 128,-1,35
 666 771 666 771 687.5 829 c 128,-1,36
 709 887 709 887 731 942 c 128,-1,37
 753 997 753 997 775 1043 c 256,38,39
 797 1089 797 1089 814.5 1123.5 c 128,-1,40
 832 1158 832 1158 848 1181 c 128,-1,41
 864 1204 864 1204 879.5 1215 c 128,-1,42
 895 1226 895 1226 914 1226 c 0,43,44
 949 1226 949 1226 981 1169 c 128,-1,45
 1013 1112 1013 1112 1030 997 c 0,46,47
 1044 904 1044 904 1057.5 822.5 c 128,-1,48
 1071 741 1071 741 1086.5 664.5 c 128,-1,49
 1102 588 1102 588 1122 512 c 128,-1,50
 1142 436 1142 436 1169 353 c 1,51,52
 1192 409 1192 409 1210.5 480.5 c 128,-1,53
 1229 552 1229 552 1249 635.5 c 128,-1,54
 1269 719 1269 719 1293.5 813 c 128,-1,55
 1318 907 1318 907 1352 1009 c 0,56,57
 1369 1060 1369 1060 1387.5 1109 c 128,-1,58
 1406 1158 1406 1158 1423 1199.5 c 128,-1,59
 1440 1241 1440 1241 1454 1273 c 128,-1,60
 1468 1305 1468 1305 1477 1321 c 1,61,62
 1483 1345 1483 1345 1493.5 1379.5 c 128,-1,63
 1504 1414 1504 1414 1521.5 1445.5 c 128,-1,64
 1539 1477 1539 1477 1565 1499 c 128,-1,65
 1591 1521 1591 1521 1628 1521 c 0,66,67
 1650 1521 1650 1521 1668.5 1510.5 c 128,-1,68
 1687 1500 1687 1500 1700 1484 c 128,-1,69
 1713 1468 1713 1468 1720.5 1449 c 128,-1,70
 1728 1430 1728 1430 1728 1412 c 0,71,72
 1728 1400 1728 1400 1722.5 1387 c 128,-1,73
 1717 1374 1717 1374 1707.5 1359 c 128,-1,74
 1698 1344 1698 1344 1684 1325 c 128,-1,75
 1670 1306 1670 1306 1653 1281 c 0,76,77
 1633 1252 1633 1252 1615.5 1221 c 128,-1,78
 1598 1190 1598 1190 1579.5 1146.5 c 128,-1,79
 1561 1103 1561 1103 1540.5 1041 c 128,-1,80
 1520 979 1520 979 1494.5 888 c 128,-1,81
 1469 797 1469 797 1437.5 670.5 c 128,-1,82
 1406 544 1406 544 1366 372 c 0,83,84
 1360 344 1360 344 1350.5 305 c 128,-1,85
 1341 266 1341 266 1328.5 224.5 c 128,-1,86
 1316 183 1316 183 1299 141.5 c 128,-1,87
 1282 100 1282 100 1260 67.5 c 128,-1,88
 1238 35 1238 35 1210.5 15 c 128,-1,89
 1183 -5 1183 -5 1149 -5 c 0,90,91
 1134 -5 1134 -5 1118 -0.5 c 128,-1,92
 1102 4 1102 4 1087.5 13 c 128,-1,93
 1073 22 1073 22 1062 36.5 c 128,-1,94
 1051 51 1051 51 1047 71 c 0,95,96
 1030 155 1030 155 1007 246.5 c 128,-1,97
 984 338 984 338 959.5 433.5 c 128,-1,98
 935 529 935 529 911.5 628 c 128,-1,99
 888 727 888 727 872 827 c 1,100,101
 858 787 858 787 839 732.5 c 128,-1,102
 820 678 820 678 799.5 616.5 c 128,-1,103
 779 555 779 555 757.5 491.5 c 128,-1,104
 736 428 736 428 717.5 370.5 c 128,-1,105
 699 313 699 313 684 265.5 c 128,-1,106
 669 218 669 218 661 190 c 1,107,-1
 661 192 l 1,108,109
 658 183 658 183 649 163 c 128,-1,110
 640 143 640 143 627.5 118.5 c 128,-1,111
 615 94 615 94 600 68.5 c 128,-1,112
 585 43 585 43 569.5 22 c 128,-1,113
 554 1 554 1 539 -12.5 c 128,-1,114
 524 -26 524 -26 512 -26 c 0,115,116
 453 -26 453 -26 424 -0.5 c 128,-1,117
 395 25 395 25 387 73 c 0,0,1
EndSplineSet
EndChar

StartChar: X
Encoding: 88 88 23
Width: 1055
Flags: W
LayerCount: 2
Fore
SplineSet
138 157 m 0,0,1
 138 164 138 164 148 189 c 128,-1,2
 158 214 158 214 173.5 249 c 128,-1,3
 189 284 189 284 209 325 c 128,-1,4
 229 366 229 366 248 405 c 128,-1,5
 267 444 267 444 283.5 476 c 128,-1,6
 300 508 300 508 310 526 c 0,7,8
 315 535 315 535 323.5 554.5 c 128,-1,9
 332 574 332 574 341 596.5 c 128,-1,10
 350 619 350 619 358 640.5 c 128,-1,11
 366 662 366 662 371 675 c 1,12,13
 371 709 371 709 349.5 756.5 c 128,-1,14
 328 804 328 804 295 862 c 128,-1,15
 262 920 262 920 222.5 987.5 c 128,-1,16
 183 1055 183 1055 147 1129 c 0,17,18
 134 1155 134 1155 124.5 1184 c 128,-1,19
 115 1213 115 1213 115 1239 c 0,20,21
 115 1253 115 1253 120.5 1269.5 c 128,-1,22
 126 1286 126 1286 136 1300.5 c 128,-1,23
 146 1315 146 1315 159.5 1324.5 c 128,-1,24
 173 1334 173 1334 189 1334 c 0,25,26
 219 1334 219 1334 245 1312 c 128,-1,27
 271 1290 271 1290 295 1254 c 128,-1,28
 319 1218 319 1218 342 1171 c 128,-1,29
 365 1124 365 1124 389 1074 c 128,-1,30
 413 1024 413 1024 437.5 974.5 c 128,-1,31
 462 925 462 925 489 884 c 1,32,33
 519 938 519 938 547 989 c 128,-1,34
 575 1040 575 1040 604.5 1093 c 128,-1,35
 634 1146 634 1146 665 1204 c 128,-1,36
 696 1262 696 1262 732 1332 c 0,37,38
 748 1363 748 1363 768 1397 c 128,-1,39
 788 1431 788 1431 810 1459 c 128,-1,40
 832 1487 832 1487 855.5 1505 c 128,-1,41
 879 1523 879 1523 904 1523 c 0,42,43
 920 1523 920 1523 934 1514.5 c 128,-1,44
 948 1506 948 1506 958.5 1493.5 c 128,-1,45
 969 1481 969 1481 974.5 1465.5 c 128,-1,46
 980 1450 980 1450 980 1435 c 0,47,48
 980 1429 980 1429 969.5 1405 c 128,-1,49
 959 1381 959 1381 943 1348.5 c 128,-1,50
 927 1316 927 1316 908 1279 c 128,-1,51
 889 1242 889 1242 872 1210 c 128,-1,52
 855 1178 855 1178 842 1155 c 128,-1,53
 829 1132 829 1132 826 1127 c 0,54,55
 817 1115 817 1115 795.5 1080 c 128,-1,56
 774 1045 774 1045 747 999.5 c 128,-1,57
 720 954 720 954 691.5 903 c 128,-1,58
 663 852 663 852 639 808.5 c 128,-1,59
 615 765 615 765 599.5 734 c 128,-1,60
 584 703 584 703 584 697 c 0,61,62
 584 683 584 683 598 649 c 128,-1,63
 612 615 612 615 634.5 569.5 c 128,-1,64
 657 524 657 524 685 472.5 c 128,-1,65
 713 421 713 421 741 372.5 c 128,-1,66
 769 324 769 324 794.5 283.5 c 128,-1,67
 820 243 820 243 837 220 c 0,68,69
 859 189 859 189 882.5 170.5 c 128,-1,70
 906 152 906 152 925.5 133.5 c 128,-1,71
 945 115 945 115 957 89 c 128,-1,72
 969 63 969 63 969 17 c 0,73,74
 969 -50 969 -50 901 -50 c 0,75,76
 845 -50 845 -50 805 -32 c 128,-1,77
 765 -14 765 -14 732 20 c 128,-1,78
 699 54 699 54 669.5 103.5 c 128,-1,79
 640 153 640 153 607 215 c 0,80,81
 556 309 556 309 526 369.5 c 128,-1,82
 496 430 496 430 480 459 c 1,83,84
 466 430 466 430 447 391 c 128,-1,85
 428 352 428 352 409.5 312 c 128,-1,86
 391 272 391 272 376.5 235.5 c 128,-1,87
 362 199 362 199 357 174 c 0,88,89
 352 147 352 147 352 119.5 c 128,-1,90
 352 92 352 92 346 69 c 128,-1,91
 340 46 340 46 322 31.5 c 128,-1,92
 304 17 304 17 264 17 c 0,93,94
 234 17 234 17 210.5 28.5 c 128,-1,95
 187 40 187 40 171 59 c 128,-1,96
 155 78 155 78 146.5 103.5 c 128,-1,97
 138 129 138 129 138 157 c 0,0,1
EndSplineSet
EndChar

StartChar: Y
Encoding: 89 89 24
Width: 1163
Flags: W
LayerCount: 2
Fore
SplineSet
297 -17 m 0,0,1
 297 12 297 12 312.5 62.5 c 128,-1,2
 328 113 328 113 352 170.5 c 128,-1,3
 376 228 376 228 404 286 c 128,-1,4
 432 344 432 344 457 387 c 0,5,6
 474 415 474 415 487 439 c 128,-1,7
 500 463 500 463 500 477 c 0,8,9
 500 494 500 494 491.5 515 c 128,-1,10
 483 536 483 536 475 549 c 0,11,12
 460 574 460 574 423.5 624 c 128,-1,13
 387 674 387 674 340.5 738 c 128,-1,14
 294 802 294 802 244 873.5 c 128,-1,15
 194 945 194 945 152.5 1012 c 128,-1,16
 111 1079 111 1079 84.5 1135.5 c 128,-1,17
 58 1192 58 1192 58 1226 c 0,18,19
 58 1241 58 1241 64.5 1254.5 c 128,-1,20
 71 1268 71 1268 81.5 1278.5 c 128,-1,21
 92 1289 92 1289 106 1295 c 128,-1,22
 120 1301 120 1301 134 1301 c 0,23,24
 162 1301 162 1301 178 1292.5 c 128,-1,25
 194 1284 194 1284 211 1256 c 0,26,27
 222 1237 222 1237 251 1192.5 c 128,-1,28
 280 1148 280 1148 318 1090.5 c 128,-1,29
 356 1033 356 1033 399.5 968 c 128,-1,30
 443 903 443 903 484.5 843.5 c 128,-1,31
 526 784 526 784 560.5 736.5 c 128,-1,32
 595 689 595 689 616 666 c 1,33,34
 621 673 621 673 628.5 683.5 c 128,-1,35
 636 694 636 694 643 705 c 128,-1,36
 650 716 650 716 656 725 c 128,-1,37
 662 734 662 734 665 739 c 0,38,39
 702 803 702 803 745 881 c 128,-1,40
 788 959 788 959 832 1035.5 c 128,-1,41
 876 1112 876 1112 918 1179 c 128,-1,42
 960 1246 960 1246 995 1289 c 0,43,44
 1012 1310 1012 1310 1026.5 1327 c 128,-1,45
 1041 1344 1041 1344 1055.5 1356 c 128,-1,46
 1070 1368 1070 1368 1086 1374.5 c 128,-1,47
 1102 1381 1102 1381 1122 1381 c 0,48,49
 1151 1381 1151 1381 1170 1360.5 c 128,-1,50
 1189 1340 1189 1340 1189 1312 c 0,51,52
 1189 1307 1189 1307 1186.5 1300.5 c 128,-1,53
 1184 1294 1184 1294 1174 1275 c 128,-1,54
 1164 1256 1164 1256 1144.5 1221.5 c 128,-1,55
 1125 1187 1125 1187 1091 1127 c 1,56,57
 1045 1049 1045 1049 992.5 957.5 c 128,-1,58
 940 866 940 866 885 767 c 128,-1,59
 830 668 830 668 775 564.5 c 128,-1,60
 720 461 720 461 669 359 c 128,-1,61
 618 257 618 257 573 158.5 c 128,-1,62
 528 60 528 60 494 -28 c 0,63,64
 491 -36 491 -36 484 -50 c 128,-1,65
 477 -64 477 -64 467 -77.5 c 128,-1,66
 457 -91 457 -91 444 -101 c 128,-1,67
 431 -111 431 -111 417 -111 c 0,68,69
 406 -111 406 -111 386 -103 c 128,-1,70
 366 -95 366 -95 346 -81.5 c 128,-1,71
 326 -68 326 -68 311.5 -51 c 128,-1,72
 297 -34 297 -34 297 -17 c 0,0,1
EndSplineSet
EndChar

StartChar: Z
Encoding: 90 90 25
Width: 1361
Flags: W
LayerCount: 2
Fore
SplineSet
187 99 m 0,0,1
 187 173 187 173 216.5 241 c 128,-1,2
 246 309 246 309 293 381 c 0,3,4
 356 478 356 478 424 571 c 128,-1,5
 492 664 492 664 560 759 c 128,-1,6
 628 854 628 854 694.5 955 c 128,-1,7
 761 1056 761 1056 821 1169 c 1,8,-1
 661 1178 l 2,9,10
 600 1181 600 1181 533 1179 c 128,-1,11
 466 1177 466 1177 406 1173.5 c 128,-1,12
 346 1170 346 1170 298.5 1166 c 128,-1,13
 251 1162 251 1162 229 1162 c 0,14,15
 174 1162 174 1162 138 1194.5 c 128,-1,16
 102 1227 102 1227 102 1281 c 0,17,18
 102 1303 102 1303 111 1318.5 c 128,-1,19
 120 1334 120 1334 135 1344 c 128,-1,20
 150 1354 150 1354 169.5 1359 c 128,-1,21
 189 1364 189 1364 209 1364 c 0,22,23
 239 1364 239 1364 267 1362 c 128,-1,24
 295 1360 295 1360 323 1357 c 128,-1,25
 351 1354 351 1354 379.5 1352 c 128,-1,26
 408 1350 408 1350 439 1350 c 0,27,28
 507 1350 507 1350 579 1352 c 128,-1,29
 651 1354 651 1354 729 1354 c 0,30,31
 797 1354 797 1354 869.5 1351.5 c 128,-1,32
 942 1349 942 1349 1020 1342 c 0,33,34
 1035 1340 1035 1340 1044.5 1332 c 128,-1,35
 1054 1324 1054 1324 1059.5 1312 c 128,-1,36
 1065 1300 1065 1300 1067 1285.5 c 128,-1,37
 1069 1271 1069 1271 1069 1258 c 0,38,39
 1069 1239 1069 1239 1051.5 1200.5 c 128,-1,40
 1034 1162 1034 1162 1005 1111 c 128,-1,41
 976 1060 976 1060 938 999.5 c 128,-1,42
 900 939 900 939 858 876.5 c 128,-1,43
 816 814 816 814 773 751.5 c 128,-1,44
 730 689 730 689 691.5 635 c 128,-1,45
 653 581 653 581 622 537.5 c 128,-1,46
 591 494 591 494 572 468 c 0,47,48
 558 448 558 448 534.5 412 c 128,-1,49
 511 376 511 376 487 336 c 128,-1,50
 463 296 463 296 443 257.5 c 128,-1,51
 423 219 423 219 415 195 c 1,52,-1
 1023 183 l 2,53,54
 1048 182 1048 182 1077 187 c 128,-1,55
 1106 192 1106 192 1127 203 c 0,56,57
 1141 211 1141 211 1163.5 222.5 c 128,-1,58
 1186 234 1186 234 1212 234 c 0,59,60
 1241 234 1241 234 1260 226 c 128,-1,61
 1279 218 1279 218 1290.5 205 c 128,-1,62
 1302 192 1302 192 1307 174.5 c 128,-1,63
 1312 157 1312 157 1312 138 c 256,64,65
 1312 119 1312 119 1306 96.5 c 128,-1,66
 1300 74 1300 74 1288 55 c 128,-1,67
 1276 36 1276 36 1257.5 23 c 128,-1,68
 1239 10 1239 10 1215 10 c 256,69,70
 1191 10 1191 10 1169.5 13.5 c 128,-1,71
 1148 17 1148 17 1127 21.5 c 128,-1,72
 1106 26 1106 26 1086 30 c 128,-1,73
 1066 34 1066 34 1045 34 c 0,74,75
 1009 34 1009 34 946 29.5 c 128,-1,76
 883 25 883 25 806 20 c 128,-1,77
 729 15 729 15 645.5 10.5 c 128,-1,78
 562 6 562 6 486 6 c 0,79,80
 469 6 469 6 450.5 6.5 c 128,-1,81
 432 7 432 7 407 8.5 c 128,-1,82
 382 10 382 10 346.5 12.5 c 128,-1,83
 311 15 311 15 259 19 c 0,84,85
 215 23 215 23 201 45.5 c 128,-1,86
 187 68 187 68 187 99 c 0,0,1
EndSplineSet
EndChar

StartChar: exclam
Encoding: 33 33 26
Width: 719
Flags: W
LayerCount: 2
Fore
SplineSet
364 382 m 0,0,1
 344 382 344 382 329.5 389.5 c 128,-1,2
 315 397 315 397 305.5 409 c 128,-1,3
 296 421 296 421 291.5 437 c 128,-1,4
 287 453 287 453 287 470 c 0,5,6
 288 536 288 536 292.5 612.5 c 128,-1,7
 297 689 297 689 301 767 c 128,-1,8
 305 845 305 845 308.5 920.5 c 128,-1,9
 312 996 312 996 312 1061 c 0,10,11
 312 1097 312 1097 307.5 1133 c 128,-1,12
 303 1169 303 1169 297.5 1205.5 c 128,-1,13
 292 1242 292 1242 287.5 1280 c 128,-1,14
 283 1318 283 1318 283 1357 c 0,15,16
 283 1385 283 1385 291.5 1409.5 c 128,-1,17
 300 1434 300 1434 314 1452 c 128,-1,18
 328 1470 328 1470 347.5 1480.5 c 128,-1,19
 367 1491 367 1491 389 1491 c 0,20,21
 450 1491 450 1491 474 1461 c 128,-1,22
 498 1431 498 1431 498 1371 c 0,23,24
 498 1336 498 1336 495.5 1274 c 128,-1,25
 493 1212 493 1212 488 1118.5 c 128,-1,26
 483 1025 483 1025 474 899.5 c 128,-1,27
 465 774 465 774 453 613 c 0,28,29
 452 600 452 600 450.5 578 c 128,-1,30
 449 556 449 556 445.5 530.5 c 128,-1,31
 442 505 442 505 436 478.5 c 128,-1,32
 430 452 430 452 420.5 430.5 c 128,-1,33
 411 409 411 409 397 395.5 c 128,-1,34
 383 382 383 382 364 382 c 0,0,1
220 127 m 0,35,36
 220 154 220 154 231 174 c 128,-1,37
 242 194 242 194 259.5 207.5 c 128,-1,38
 277 221 277 221 299 228 c 128,-1,39
 321 235 321 235 344 235 c 0,40,41
 380 235 380 235 400.5 220 c 128,-1,42
 421 205 421 205 432 181 c 128,-1,43
 443 157 443 157 446 127 c 128,-1,44
 449 97 449 97 449 67 c 0,45,46
 449 52 449 52 446.5 35 c 128,-1,47
 444 18 444 18 435.5 3 c 128,-1,48
 427 -12 427 -12 410 -22 c 128,-1,49
 393 -32 393 -32 364 -32 c 0,50,51
 286 -32 286 -32 253 10 c 128,-1,52
 220 52 220 52 220 127 c 0,35,36
EndSplineSet
EndChar

StartChar: quotedbl
Encoding: 34 34 27
Width: 947
Flags: W
LayerCount: 2
Fore
SplineSet
678 846 m 0,0,1
 638 853 638 853 617.5 878 c 128,-1,2
 597 903 597 903 588.5 940.5 c 128,-1,3
 580 978 580 978 580 1025.5 c 128,-1,4
 580 1073 580 1073 582 1124 c 1,5,6
 582 1154 582 1154 579.5 1184.5 c 128,-1,7
 577 1215 577 1215 574 1245.5 c 128,-1,8
 571 1276 571 1276 569.5 1305.5 c 128,-1,9
 568 1335 568 1335 570 1364 c 1,10,11
 573 1382 573 1382 586.5 1401 c 128,-1,12
 600 1420 600 1420 617.5 1434.5 c 128,-1,13
 635 1449 635 1449 654 1457.5 c 128,-1,14
 673 1466 673 1466 686 1464 c 0,15,16
 717 1460 717 1460 735 1424 c 128,-1,17
 753 1388 753 1388 761.5 1334.5 c 128,-1,18
 770 1281 770 1281 771.5 1217.5 c 128,-1,19
 773 1154 773 1154 771 1096.5 c 128,-1,20
 769 1039 769 1039 765.5 995.5 c 128,-1,21
 762 952 762 952 761 937 c 1,22,23
 758 922 758 922 748.5 905.5 c 128,-1,24
 739 889 739 889 726.5 875 c 128,-1,25
 714 861 714 861 700.5 852.5 c 128,-1,26
 687 844 687 844 678 846 c 0,0,1
325 872 m 0,27,28
 285 872 285 872 261 894.5 c 128,-1,29
 237 917 237 917 224.5 953.5 c 128,-1,30
 212 990 212 990 208 1036 c 128,-1,31
 204 1082 204 1082 204 1129 c 0,32,33
 204 1187 204 1187 203.5 1220.5 c 128,-1,34
 203 1254 203 1254 203 1274 c 128,-1,35
 203 1294 203 1294 202.5 1305 c 128,-1,36
 202 1316 202 1316 202 1329 c 0,37,38
 202 1338 202 1338 208 1355.5 c 128,-1,39
 214 1373 214 1373 225.5 1389.5 c 128,-1,40
 237 1406 237 1406 254 1418.5 c 128,-1,41
 271 1431 271 1431 294 1431 c 0,42,43
 328 1431 328 1431 349 1401.5 c 128,-1,44
 370 1372 370 1372 381.5 1328.5 c 128,-1,45
 393 1285 393 1285 397 1235.5 c 128,-1,46
 401 1186 401 1186 401 1147 c 0,47,48
 401 1010 401 1010 385.5 941 c 128,-1,49
 370 872 370 872 325 872 c 0,27,28
EndSplineSet
EndChar

StartChar: numbersign
Encoding: 35 35 28
Width: 1746
Flags: W
LayerCount: 2
Fore
SplineSet
365 405 m 0,0,1
 342 405 342 405 317.5 408.5 c 128,-1,2
 293 412 293 412 273 422 c 128,-1,3
 253 432 253 432 240 450.5 c 128,-1,4
 227 469 227 469 227 499 c 0,5,6
 227 511 227 511 234 529 c 128,-1,7
 241 547 241 547 253 563 c 128,-1,8
 265 579 265 579 282 590.5 c 128,-1,9
 299 602 299 602 320 602 c 0,10,11
 344 602 344 602 358.5 600 c 128,-1,12
 373 598 373 598 381 596 c 128,-1,13
 389 594 389 594 391.5 592 c 128,-1,14
 394 590 394 590 394 590 c 1,15,16
 404 590 404 590 427 591 c 128,-1,17
 450 592 450 592 477 593.5 c 128,-1,18
 504 595 504 595 530.5 596 c 128,-1,19
 557 597 557 597 574 597 c 1,20,21
 574 625 574 625 573.5 656.5 c 128,-1,22
 573 688 573 688 572 720 c 128,-1,23
 571 752 571 752 569.5 782.5 c 128,-1,24
 568 813 568 813 565 838 c 1,25,-1
 297 838 l 2,26,27
 291 838 291 838 265.5 842 c 128,-1,28
 240 846 240 846 211.5 855.5 c 128,-1,29
 183 865 183 865 160 881 c 128,-1,30
 137 897 137 897 137 921 c 256,31,32
 137 945 137 945 148.5 962.5 c 128,-1,33
 160 980 160 980 177 991 c 128,-1,34
 194 1002 194 1002 214 1007 c 128,-1,35
 234 1012 234 1012 252 1012 c 2,36,-1
 565 1012 l 1,37,-1
 565 1035 l 2,38,39
 565 1063 565 1063 567 1092 c 128,-1,40
 569 1121 569 1121 579.5 1144.5 c 128,-1,41
 590 1168 590 1168 611.5 1183 c 128,-1,42
 633 1198 633 1198 671 1198 c 0,43,44
 695 1198 695 1198 709.5 1189 c 128,-1,45
 724 1180 724 1180 732 1165 c 128,-1,46
 740 1150 740 1150 742.5 1130.5 c 128,-1,47
 745 1111 745 1111 745 1090 c 0,48,49
 745 1074 745 1074 745 1057.5 c 128,-1,50
 745 1041 745 1041 744 1026 c 1,51,52
 753 1027 753 1027 767 1029 c 128,-1,53
 781 1031 781 1031 811.5 1034 c 128,-1,54
 842 1037 842 1037 896 1043 c 128,-1,55
 950 1049 950 1049 1040 1060 c 1,56,57
 1036 1137 1036 1137 1030 1223 c 128,-1,58
 1024 1309 1024 1309 1024 1390 c 0,59,60
 1024 1417 1024 1417 1025 1441.5 c 128,-1,61
 1026 1466 1026 1466 1033.5 1485.5 c 128,-1,62
 1041 1505 1041 1505 1057 1516.5 c 128,-1,63
 1073 1528 1073 1528 1102 1528 c 0,64,65
 1130 1528 1130 1528 1147.5 1519 c 128,-1,66
 1165 1510 1165 1510 1175 1494 c 128,-1,67
 1185 1478 1185 1478 1188.5 1456.5 c 128,-1,68
 1192 1435 1192 1435 1192 1411 c 0,69,70
 1192 1398 1192 1398 1193 1373.5 c 128,-1,71
 1194 1349 1194 1349 1195.5 1318 c 128,-1,72
 1197 1287 1197 1287 1199 1252.5 c 128,-1,73
 1201 1218 1201 1218 1203 1185 c 128,-1,74
 1205 1152 1205 1152 1206.5 1123.5 c 128,-1,75
 1208 1095 1208 1095 1209 1076 c 1,76,77
 1237 1077 1237 1077 1269 1082.5 c 128,-1,78
 1301 1088 1301 1088 1330 1094 c 128,-1,79
 1359 1100 1359 1100 1383 1104.5 c 128,-1,80
 1407 1109 1407 1109 1421 1109 c 0,81,82
 1462 1109 1462 1109 1484.5 1080.5 c 128,-1,83
 1507 1052 1507 1052 1507 1010 c 256,84,85
 1507 968 1507 968 1479 938.5 c 128,-1,86
 1451 909 1451 909 1400 909 c 0,87,88
 1378 909 1378 909 1348.5 918 c 128,-1,89
 1319 927 1319 927 1287 927 c 0,90,91
 1272 927 1272 927 1251.5 928 c 128,-1,92
 1231 929 1231 929 1219 922 c 1,93,94
 1219 892 1219 892 1220 857.5 c 128,-1,95
 1221 823 1221 823 1222 788.5 c 128,-1,96
 1223 754 1223 754 1224.5 720 c 128,-1,97
 1226 686 1226 686 1226 657 c 1,98,99
 1258 661 1258 661 1296.5 661.5 c 128,-1,100
 1335 662 1335 662 1369 661 c 0,101,102
 1409 660 1409 660 1449 657 c 1,103,104
 1471 657 1471 657 1486 648 c 128,-1,105
 1501 639 1501 639 1510.5 625 c 128,-1,106
 1520 611 1520 611 1524.5 595 c 128,-1,107
 1529 579 1529 579 1529 565 c 0,108,109
 1529 512 1529 512 1500.5 488 c 128,-1,110
 1472 464 1472 464 1421 464 c 0,111,112
 1395 464 1395 464 1373.5 467.5 c 128,-1,113
 1352 471 1352 471 1331 475 c 128,-1,114
 1310 479 1310 479 1288.5 482 c 128,-1,115
 1267 485 1267 485 1241 483 c 1,116,117
 1241 457 1241 457 1242.5 432 c 128,-1,118
 1244 407 1244 407 1246 380 c 128,-1,119
 1248 353 1248 353 1249.5 322.5 c 128,-1,120
 1251 292 1251 292 1251 256 c 0,121,122
 1251 239 1251 239 1244.5 224 c 128,-1,123
 1238 209 1238 209 1226.5 198 c 128,-1,124
 1215 187 1215 187 1200.5 180.5 c 128,-1,125
 1186 174 1186 174 1171 174 c 0,126,127
 1160 174 1160 174 1142.5 178.5 c 128,-1,128
 1125 183 1125 183 1108.5 192 c 128,-1,129
 1092 201 1092 201 1080.5 214.5 c 128,-1,130
 1069 228 1069 228 1069 246 c 2,131,-1
 1069 486 l 1,132,133
 1042 483 1042 483 1001.5 479.5 c 128,-1,134
 961 476 961 476 916.5 471.5 c 128,-1,135
 872 467 872 467 829.5 462 c 128,-1,136
 787 457 787 457 755 453 c 1,137,138
 755 451 755 451 756 437.5 c 128,-1,139
 757 424 757 424 758.5 406 c 128,-1,140
 760 388 760 388 761 371 c 128,-1,141
 762 354 762 354 763 345 c 0,142,143
 766 309 766 309 771.5 286.5 c 128,-1,144
 777 264 777 264 782.5 243.5 c 128,-1,145
 788 223 788 223 792 199 c 128,-1,146
 796 175 796 175 796 135 c 0,147,148
 796 92 796 92 776 68.5 c 128,-1,149
 756 45 756 45 708 45 c 0,150,151
 688 45 688 45 667 51.5 c 128,-1,152
 646 58 646 58 629 69.5 c 128,-1,153
 612 81 612 81 601.5 97.5 c 128,-1,154
 591 114 591 114 591 135 c 0,155,156
 591 213 591 213 585 287 c 128,-1,157
 579 361 579 361 579 418 c 1,158,159
 531 413 531 413 497 410.5 c 128,-1,160
 463 408 463 408 438.5 407 c 128,-1,161
 414 406 414 406 397 405.5 c 128,-1,162
 380 405 380 405 365 405 c 0,0,1
746 610 m 1,163,164
 747 611 747 611 753.5 611 c 128,-1,165
 760 611 760 611 769 611 c 128,-1,166
 778 611 778 611 786.5 610.5 c 128,-1,167
 795 610 795 610 800 610 c 0,168,169
 830 611 830 611 864.5 613.5 c 128,-1,170
 899 616 899 616 933.5 620 c 128,-1,171
 968 624 968 624 1000 629 c 128,-1,172
 1032 634 1032 634 1058 639 c 1,173,174
 1058 646 1058 646 1057 667 c 128,-1,175
 1056 688 1056 688 1055 715.5 c 128,-1,176
 1054 743 1054 743 1053 774.5 c 128,-1,177
 1052 806 1052 806 1051.5 833 c 128,-1,178
 1051 860 1051 860 1051 880 c 128,-1,179
 1051 900 1051 900 1052 905 c 1,180,181
 974 904 974 904 899.5 896 c 128,-1,182
 825 888 825 888 741 872 c 1,183,-1
 746 610 l 1,163,164
EndSplineSet
EndChar

StartChar: dollar
Encoding: 36 36 29
Width: 1414
Flags: W
LayerCount: 2
Fore
SplineSet
202 358 m 0,0,1
 202 372 202 372 209 389.5 c 128,-1,2
 216 407 216 407 227 422.5 c 128,-1,3
 238 438 238 438 252.5 448.5 c 128,-1,4
 267 459 267 459 281 459 c 0,5,6
 299 459 299 459 313 451 c 128,-1,7
 327 443 327 443 339.5 428 c 128,-1,8
 352 413 352 413 364.5 391 c 128,-1,9
 377 369 377 369 393 341 c 1,10,11
 412 326 412 326 438.5 312.5 c 128,-1,12
 465 299 465 299 494 289.5 c 128,-1,13
 523 280 523 280 553.5 274 c 128,-1,14
 584 268 584 268 610 268 c 0,15,16
 623 268 623 268 627.5 277 c 128,-1,17
 632 286 632 286 632 303 c 0,18,19
 632 324 632 324 633 340 c 128,-1,20
 634 356 634 356 634 381.5 c 128,-1,21
 634 407 634 407 633 449 c 128,-1,22
 632 491 632 491 628 562 c 1,23,24
 520 585 520 585 444 612 c 128,-1,25
 368 639 368 639 319 675 c 128,-1,26
 270 711 270 711 247.5 759.5 c 128,-1,27
 225 808 225 808 225 874 c 0,28,29
 225 924 225 924 239.5 973.5 c 128,-1,30
 254 1023 254 1023 280 1068 c 128,-1,31
 306 1113 306 1113 341 1150.5 c 128,-1,32
 376 1188 376 1188 417 1214 c 0,33,34
 449 1234 449 1234 491.5 1249.5 c 128,-1,35
 534 1265 534 1265 599 1285 c 1,36,37
 599 1311 599 1311 598.5 1329 c 128,-1,38
 598 1347 598 1347 598 1364 c 0,39,40
 598 1397 598 1397 601 1426 c 128,-1,41
 604 1455 604 1455 614.5 1477.5 c 128,-1,42
 625 1500 625 1500 645.5 1513 c 128,-1,43
 666 1526 666 1526 701 1526 c 0,44,45
 710 1526 710 1526 724 1520 c 128,-1,46
 738 1514 738 1514 751 1503 c 128,-1,47
 764 1492 764 1492 773.5 1475 c 128,-1,48
 783 1458 783 1458 783 1436 c 2,49,-1
 783 1292 l 1,50,51
 808 1289 808 1289 836.5 1282.5 c 128,-1,52
 865 1276 865 1276 891.5 1268 c 128,-1,53
 918 1260 918 1260 939.5 1251.5 c 128,-1,54
 961 1243 961 1243 972 1237 c 0,55,56
 1006 1218 1006 1218 1032 1188 c 128,-1,57
 1058 1158 1058 1158 1076 1121.5 c 128,-1,58
 1094 1085 1094 1085 1103.5 1044.5 c 128,-1,59
 1113 1004 1113 1004 1113 964 c 0,60,61
 1113 958 1113 958 1109.5 944.5 c 128,-1,62
 1106 931 1106 931 1097.5 917 c 128,-1,63
 1089 903 1089 903 1075.5 892.5 c 128,-1,64
 1062 882 1062 882 1042 882 c 0,65,66
 1007 882 1007 882 989.5 899 c 128,-1,67
 972 916 972 916 962 942 c 128,-1,68
 952 968 952 968 944.5 998.5 c 128,-1,69
 937 1029 937 1029 921 1055.5 c 128,-1,70
 905 1082 905 1082 876 1101 c 128,-1,71
 847 1120 847 1120 794 1122 c 1,72,73
 794 1056 794 1056 794 991.5 c 128,-1,74
 794 927 794 927 794.5 871 c 128,-1,75
 795 815 795 815 796.5 769.5 c 128,-1,76
 798 724 798 724 800 696 c 1,77,78
 876 683 876 683 949.5 657 c 128,-1,79
 1023 631 1023 631 1081.5 588.5 c 128,-1,80
 1140 546 1140 546 1176 486.5 c 128,-1,81
 1212 427 1212 427 1212 346 c 0,82,83
 1212 288 1212 288 1191.5 246.5 c 128,-1,84
 1171 205 1171 205 1137.5 177 c 128,-1,85
 1104 149 1104 149 1061.5 132.5 c 128,-1,86
 1019 116 1019 116 975 107.5 c 128,-1,87
 931 99 931 99 889.5 95.5 c 128,-1,88
 848 92 848 92 816 90 c 1,89,-1
 816 -88 l 2,90,91
 816 -104 816 -104 804 -116.5 c 128,-1,92
 792 -129 792 -129 776.5 -137 c 128,-1,93
 761 -145 761 -145 745 -149.5 c 128,-1,94
 729 -154 729 -154 721 -154 c 0,95,96
 718 -154 718 -154 702 -151.5 c 128,-1,97
 686 -149 686 -149 668 -141.5 c 128,-1,98
 650 -134 650 -134 635.5 -121.5 c 128,-1,99
 621 -109 621 -109 621 -88 c 2,100,-1
 621 99 l 1,101,102
 607 103 607 103 570.5 108.5 c 128,-1,103
 534 114 534 114 487 124.5 c 128,-1,104
 440 135 440 135 390 152.5 c 128,-1,105
 340 170 340 170 298 197.5 c 128,-1,106
 256 225 256 225 229 264 c 128,-1,107
 202 303 202 303 202 358 c 0,0,1
398 853 m 0,108,109
 398 830 398 830 421 809.5 c 128,-1,110
 444 789 444 789 478.5 773 c 128,-1,111
 513 757 513 757 552.5 746.5 c 128,-1,112
 592 736 592 736 624 732 c 1,113,114
 624 740 624 740 625 753 c 128,-1,115
 626 766 626 766 626 782 c 0,116,117
 626 805 626 805 626.5 835.5 c 128,-1,118
 627 866 627 866 625.5 906 c 128,-1,119
 624 946 624 946 620.5 996.5 c 128,-1,120
 617 1047 617 1047 610 1110 c 1,121,122
 569 1105 569 1105 531 1082.5 c 128,-1,123
 493 1060 493 1060 463.5 1025.5 c 128,-1,124
 434 991 434 991 416 946.5 c 128,-1,125
 398 902 398 902 398 853 c 0,108,109
816 258 m 1,126,127
 838 258 838 258 874 262 c 128,-1,128
 910 266 910 266 945 276 c 128,-1,129
 980 286 980 286 1005.5 303 c 128,-1,130
 1031 320 1031 320 1031 346 c 0,131,132
 1031 391 1031 391 1011.5 424.5 c 128,-1,133
 992 458 992 458 961 481 c 128,-1,134
 930 504 930 504 891.5 519 c 128,-1,135
 853 534 853 534 816 542 c 1,136,-1
 816 258 l 1,126,127
EndSplineSet
EndChar

StartChar: percent
Encoding: 37 37 30
Width: 1833
Flags: W
LayerCount: 2
Fore
SplineSet
224 -49 m 0,0,1
 224 -37 224 -37 238 -12 c 128,-1,2
 252 13 252 13 275.5 46 c 128,-1,3
 299 79 299 79 329 117 c 128,-1,4
 359 155 359 155 390 194 c 128,-1,5
 421 233 421 233 450.5 269.5 c 128,-1,6
 480 306 480 306 504 336 c 0,7,8
 540 381 540 381 581 433 c 128,-1,9
 622 485 622 485 662.5 540 c 128,-1,10
 703 595 703 595 742 650 c 128,-1,11
 781 705 781 705 814 755 c 0,12,13
 870 839 870 839 936.5 930 c 128,-1,14
 1003 1021 1003 1021 1075 1112.5 c 128,-1,15
 1147 1204 1147 1204 1222 1293.5 c 128,-1,16
 1297 1383 1297 1383 1370 1464 c 0,17,18
 1380 1475 1380 1475 1393 1487 c 128,-1,19
 1406 1499 1406 1499 1421.5 1508.5 c 128,-1,20
 1437 1518 1437 1518 1453.5 1524.5 c 128,-1,21
 1470 1531 1470 1531 1486 1531 c 0,22,23
 1554 1531 1554 1531 1554 1462 c 0,24,25
 1554 1451 1554 1451 1551.5 1429 c 128,-1,26
 1549 1407 1549 1407 1527 1384 c 0,27,28
 1412 1264 1412 1264 1297 1137.5 c 128,-1,29
 1182 1011 1182 1011 1086 869 c 0,30,31
 1006 749 1006 749 939.5 657 c 128,-1,32
 873 565 873 565 813 481 c 1,33,34
 773 423 773 423 732 365.5 c 128,-1,35
 691 308 691 308 646.5 243.5 c 128,-1,36
 602 179 602 179 552.5 105 c 128,-1,37
 503 31 503 31 445 -60 c 1,38,39
 436 -78 436 -78 427 -96 c 128,-1,40
 418 -114 418 -114 403.5 -129 c 128,-1,41
 389 -144 389 -144 368 -153.5 c 128,-1,42
 347 -163 347 -163 314 -163 c 0,43,44
 285 -163 285 -163 267.5 -150.5 c 128,-1,45
 250 -138 250 -138 240 -120 c 128,-1,46
 230 -102 230 -102 227 -82.5 c 128,-1,47
 224 -63 224 -63 224 -49 c 0,0,1
445 877 m 0,48,49
 312 877 312 877 246 948 c 128,-1,50
 180 1019 180 1019 180 1143 c 0,51,52
 180 1163 180 1163 186.5 1195 c 128,-1,53
 193 1227 193 1227 206 1263 c 128,-1,54
 219 1299 219 1299 237.5 1335 c 128,-1,55
 256 1371 256 1371 280 1400 c 128,-1,56
 304 1429 304 1429 332.5 1447 c 128,-1,57
 361 1465 361 1465 395 1465 c 0,58,59
 417 1465 417 1465 433.5 1463 c 128,-1,60
 450 1461 450 1461 461 1453.5 c 128,-1,61
 472 1446 472 1446 478 1430.5 c 128,-1,62
 484 1415 484 1415 484 1388 c 1,63,64
 528 1382 528 1382 551.5 1374.5 c 128,-1,65
 575 1367 575 1367 590 1364 c 0,66,67
 615 1359 615 1359 637 1352 c 128,-1,68
 659 1345 659 1345 675 1328.5 c 128,-1,69
 691 1312 691 1312 700 1282.5 c 128,-1,70
 709 1253 709 1253 709 1204 c 0,71,72
 709 1151 709 1151 690.5 1093 c 128,-1,73
 672 1035 672 1035 637.5 987 c 128,-1,74
 603 939 603 939 554 908 c 128,-1,75
 505 877 505 877 445 877 c 0,48,49
462 1022 m 0,76,77
 479 1022 479 1022 495 1041.5 c 128,-1,78
 511 1061 511 1061 523 1089 c 128,-1,79
 535 1117 535 1117 542.5 1146.5 c 128,-1,80
 550 1176 550 1176 550 1196 c 0,81,82
 550 1210 550 1210 535 1223 c 128,-1,83
 520 1236 520 1236 498.5 1245.5 c 128,-1,84
 477 1255 477 1255 454.5 1260.5 c 128,-1,85
 432 1266 432 1266 417 1266 c 0,86,87
 406 1266 406 1266 393 1253.5 c 128,-1,88
 380 1241 380 1241 369 1223 c 128,-1,89
 358 1205 358 1205 351 1184.5 c 128,-1,90
 344 1164 344 1164 344 1147 c 0,91,92
 344 1082 344 1082 376 1052 c 128,-1,93
 408 1022 408 1022 462 1022 c 0,76,77
1048 300 m 0,94,95
 1048 325 1048 325 1056.5 358 c 128,-1,96
 1065 391 1065 391 1081.5 425 c 128,-1,97
 1098 459 1098 459 1122.5 491.5 c 128,-1,98
 1147 524 1147 524 1177.5 549.5 c 128,-1,99
 1208 575 1208 575 1245.5 590.5 c 128,-1,100
 1283 606 1283 606 1326 606 c 0,101,102
 1346 606 1346 606 1378 603 c 128,-1,103
 1410 600 1410 600 1446 591.5 c 128,-1,104
 1482 583 1482 583 1519 567.5 c 128,-1,105
 1556 552 1556 552 1586 526 c 128,-1,106
 1616 500 1616 500 1634.5 462.5 c 128,-1,107
 1653 425 1653 425 1653 373 c 0,108,109
 1653 313 1653 313 1632 247 c 128,-1,110
 1611 181 1611 181 1572 126.5 c 128,-1,111
 1533 72 1533 72 1476.5 36 c 128,-1,112
 1420 0 1420 0 1350 0 c 0,113,114
 1275 0 1275 0 1218 21 c 128,-1,115
 1161 42 1161 42 1123.5 81 c 128,-1,116
 1086 120 1086 120 1067 175.5 c 128,-1,117
 1048 231 1048 231 1048 300 c 0,94,95
1225 299 m 0,118,119
 1225 227 1225 227 1262.5 191 c 128,-1,120
 1300 155 1300 155 1372 155 c 0,121,122
 1394 155 1394 155 1415.5 177.5 c 128,-1,123
 1437 200 1437 200 1453.5 231.5 c 128,-1,124
 1470 263 1470 263 1480 298 c 128,-1,125
 1490 333 1490 333 1490 359 c 0,126,127
 1490 381 1490 381 1471 400 c 128,-1,128
 1452 419 1452 419 1425.5 432 c 128,-1,129
 1399 445 1399 445 1370.5 452.5 c 128,-1,130
 1342 460 1342 460 1324 460 c 0,131,132
 1307 460 1307 460 1289.5 444 c 128,-1,133
 1272 428 1272 428 1257.5 403.5 c 128,-1,134
 1243 379 1243 379 1234 351 c 128,-1,135
 1225 323 1225 323 1225 299 c 0,118,119
EndSplineSet
EndChar

StartChar: ampersand
Encoding: 38 38 31
Width: 1338
Flags: W
LayerCount: 2
Fore
SplineSet
210 274 m 0,0,1
 210 329 210 329 220.5 380.5 c 128,-1,2
 231 432 231 432 247.5 482 c 128,-1,3
 264 532 264 532 285 582 c 128,-1,4
 306 632 306 632 328 683 c 0,5,6
 331 692 331 692 338 703.5 c 128,-1,7
 345 715 345 715 351.5 727.5 c 128,-1,8
 358 740 358 740 363 753 c 128,-1,9
 368 766 368 766 368 777 c 256,10,11
 368 788 368 788 364.5 802 c 128,-1,12
 361 816 361 816 356.5 832 c 128,-1,13
 352 848 352 848 348.5 864.5 c 128,-1,14
 345 881 345 881 345 896 c 0,15,16
 345 935 345 935 356.5 975.5 c 128,-1,17
 368 1016 368 1016 391 1049 c 128,-1,18
 414 1082 414 1082 448.5 1103 c 128,-1,19
 483 1124 483 1124 528 1124 c 0,20,21
 559 1124 559 1124 580.5 1108.5 c 128,-1,22
 602 1093 602 1093 614.5 1070.5 c 128,-1,23
 627 1048 627 1048 632.5 1021.5 c 128,-1,24
 638 995 638 995 638 974 c 0,25,26
 638 936 638 936 623 899 c 128,-1,27
 608 862 608 862 597 831 c 1,28,-1
 571 767 l 1,29,30
 572 742 572 742 586 698.5 c 128,-1,31
 600 655 600 655 621 604.5 c 128,-1,32
 642 554 642 554 667.5 503 c 128,-1,33
 693 452 693 452 716.5 411 c 128,-1,34
 740 370 740 370 759.5 345 c 128,-1,35
 779 320 779 320 789 323 c 1,36,-1
 917 440 l 2,37,38
 926 448 926 448 934 468.5 c 128,-1,39
 942 489 942 489 951.5 515.5 c 128,-1,40
 961 542 961 542 972 570.5 c 128,-1,41
 983 599 983 599 998 622.5 c 128,-1,42
 1013 646 1013 646 1032 661.5 c 128,-1,43
 1051 677 1051 677 1076 677 c 0,44,45
 1105 677 1105 677 1123.5 666 c 128,-1,46
 1142 655 1142 655 1153 637.5 c 128,-1,47
 1164 620 1164 620 1168 599 c 128,-1,48
 1172 578 1172 578 1172 557 c 0,49,50
 1172 547 1172 547 1168.5 534.5 c 128,-1,51
 1165 522 1165 522 1160 510.5 c 128,-1,52
 1155 499 1155 499 1150 489 c 128,-1,53
 1145 479 1145 479 1142 475 c 0,54,55
 1112 428 1112 428 1084.5 392 c 128,-1,56
 1057 356 1057 356 1029.5 325.5 c 128,-1,57
 1002 295 1002 295 973 266.5 c 128,-1,58
 944 238 944 238 911 205 c 1,59,-1
 941 172 l 2,60,61
 952 159 952 159 963.5 146.5 c 128,-1,62
 975 134 975 134 985 120 c 128,-1,63
 995 106 995 106 1001 89.5 c 128,-1,64
 1007 73 1007 73 1007 52 c 0,65,66
 1007 26 1007 26 1001.5 10 c 128,-1,67
 996 -6 996 -6 986 -15 c 128,-1,68
 976 -24 976 -24 962 -27 c 128,-1,69
 948 -30 948 -30 932 -30 c 0,70,71
 921 -30 921 -30 900 -24.5 c 128,-1,72
 879 -19 879 -19 862 -2 c 2,73,-1
 752 103 l 1,74,75
 716 83 716 83 679 63.5 c 128,-1,76
 642 44 642 44 604 29 c 128,-1,77
 566 14 566 14 527 5 c 128,-1,78
 488 -4 488 -4 446 -4 c 0,79,80
 368 -4 368 -4 321.5 20.5 c 128,-1,81
 275 45 275 45 250 84.5 c 128,-1,82
 225 124 225 124 217.5 173.5 c 128,-1,83
 210 223 210 223 210 274 c 0,0,1
384 287 m 0,84,85
 384 261 384 261 390.5 239 c 128,-1,86
 397 217 397 217 408.5 201 c 128,-1,87
 420 185 420 185 435.5 176.5 c 128,-1,88
 451 168 451 168 469 168 c 0,89,90
 481 168 481 168 508 174.5 c 128,-1,91
 535 181 535 181 565 191 c 128,-1,92
 595 201 595 201 620.5 213.5 c 128,-1,93
 646 226 646 226 655 238 c 1,94,95
 630 269 630 269 604.5 309 c 128,-1,96
 579 349 579 349 553.5 392.5 c 128,-1,97
 528 436 528 436 503.5 480.5 c 128,-1,98
 479 525 479 525 457 565 c 1,99,100
 448 548 448 548 435 518.5 c 128,-1,101
 422 489 422 489 411 452 c 128,-1,102
 400 415 400 415 392 372.5 c 128,-1,103
 384 330 384 330 384 287 c 0,84,85
EndSplineSet
EndChar

StartChar: quotesingle
Encoding: 39 39 32
Width: 550
Flags: W
LayerCount: 2
Fore
SplineSet
257 814 m 0,0,1
 231 814 231 814 212.5 827.5 c 128,-1,2
 194 841 194 841 183 860.5 c 128,-1,3
 172 880 172 880 167 902.5 c 128,-1,4
 162 925 162 925 162 942 c 2,5,-1
 162 945 l 2,6,7
 162 980 162 980 163 999 c 128,-1,8
 164 1018 164 1018 165 1028.5 c 128,-1,9
 166 1039 166 1039 167 1044.5 c 128,-1,10
 168 1050 168 1050 168 1057 c 0,11,12
 168 1073 168 1073 165.5 1100 c 128,-1,13
 163 1127 163 1127 163 1155 c 0,14,15
 163 1201 163 1201 166.5 1251 c 128,-1,16
 170 1301 170 1301 180.5 1342 c 128,-1,17
 191 1383 191 1383 209.5 1409.5 c 128,-1,18
 228 1436 228 1436 257 1436 c 0,19,20
 264 1436 264 1436 281 1429.5 c 128,-1,21
 298 1423 298 1423 316 1411 c 128,-1,22
 334 1399 334 1399 347.5 1382 c 128,-1,23
 361 1365 361 1365 361 1345 c 2,24,-1
 361 1057 l 2,25,26
 361 1052 361 1052 362.5 1032 c 128,-1,27
 364 1012 364 1012 366.5 989.5 c 128,-1,28
 369 967 369 967 370.5 948 c 128,-1,29
 372 929 372 929 372 925 c 0,30,31
 372 901 372 901 363.5 881 c 128,-1,32
 355 861 355 861 340 846 c 128,-1,33
 325 831 325 831 303.5 822.5 c 128,-1,34
 282 814 282 814 257 814 c 0,0,1
EndSplineSet
EndChar

StartChar: parenleft
Encoding: 40 40 33
Width: 804
Flags: W
LayerCount: 2
Fore
SplineSet
403 -1 m 0,0,1
 359 47 359 47 322.5 113 c 128,-1,2
 286 179 286 179 260 253.5 c 128,-1,3
 234 328 234 328 219.5 406.5 c 128,-1,4
 205 485 205 485 205 560 c 0,5,6
 205 677 205 677 221.5 798 c 128,-1,7
 238 919 238 919 272.5 1032 c 128,-1,8
 307 1145 307 1145 359.5 1244 c 128,-1,9
 412 1343 412 1343 485 1417 c 0,10,11
 504 1435 504 1435 522 1449 c 0,12,13
 538 1461 538 1461 555.5 1471 c 128,-1,14
 573 1481 573 1481 588 1481 c 0,15,16
 633 1481 633 1481 647.5 1456 c 128,-1,17
 662 1431 662 1431 662 1391 c 0,18,19
 662 1361 662 1361 653.5 1335 c 128,-1,20
 645 1309 645 1309 630.5 1286 c 128,-1,21
 616 1263 616 1263 597.5 1242 c 128,-1,22
 579 1221 579 1221 560 1201 c 0,23,24
 529 1169 529 1169 504.5 1121 c 128,-1,25
 480 1073 480 1073 461.5 1015.5 c 128,-1,26
 443 958 443 958 429.5 895 c 128,-1,27
 416 832 416 832 408 771.5 c 128,-1,28
 400 711 400 711 396 656 c 128,-1,29
 392 601 392 601 392 560 c 0,30,31
 392 488 392 488 411.5 412 c 128,-1,32
 431 336 431 336 463.5 266.5 c 128,-1,33
 496 197 496 197 538.5 140.5 c 128,-1,34
 581 84 581 84 628 51 c 0,35,36
 647 37 647 37 662.5 24.5 c 128,-1,37
 678 12 678 12 689 -2.5 c 128,-1,38
 700 -17 700 -17 706 -34.5 c 128,-1,39
 712 -52 712 -52 712 -76 c 0,40,41
 712 -101 712 -101 700.5 -121 c 128,-1,42
 689 -141 689 -141 671 -155.5 c 128,-1,43
 653 -170 653 -170 631 -178 c 128,-1,44
 609 -186 609 -186 587 -186 c 0,45,46
 559 -186 559 -186 540 -172 c 0,47,48
 513 -151 513 -151 499.5 -134 c 128,-1,49
 486 -117 486 -117 474.5 -98.5 c 128,-1,50
 463 -80 463 -80 448 -57 c 128,-1,51
 433 -34 433 -34 403 -1 c 0,0,1
EndSplineSet
EndChar

StartChar: parenright
Encoding: 41 41 34
Width: 774
Flags: W
LayerCount: 2
Fore
SplineSet
88 -83 m 0,0,1
 88 -51 88 -51 105 -14 c 128,-1,2
 122 23 122 23 161 51 c 0,3,4
 207 84 207 84 247 141 c 128,-1,5
 287 198 287 198 317 267 c 128,-1,6
 347 336 347 336 364 412 c 128,-1,7
 381 488 381 488 381 560 c 0,8,9
 381 601 381 601 377.5 656 c 128,-1,10
 374 711 374 711 366.5 771.5 c 128,-1,11
 359 832 359 832 347 895 c 128,-1,12
 335 958 335 958 317 1015.5 c 128,-1,13
 299 1073 299 1073 275 1121 c 128,-1,14
 251 1169 251 1169 220 1201 c 0,15,16
 200 1221 200 1221 182 1244.5 c 128,-1,17
 164 1268 164 1268 149.5 1291.5 c 128,-1,18
 135 1315 135 1315 126.5 1336.5 c 128,-1,19
 118 1358 118 1358 118 1375 c 0,20,21
 118 1427 118 1427 129.5 1454 c 128,-1,22
 141 1481 141 1481 186 1481 c 0,23,24
 200 1481 200 1481 220.5 1471 c 128,-1,25
 241 1461 241 1461 259 1449 c 0,26,27
 280 1435 280 1435 302 1417 c 1,28,29
 375 1343 375 1343 425.5 1244 c 128,-1,30
 476 1145 476 1145 508 1032 c 128,-1,31
 540 919 540 919 554.5 798 c 128,-1,32
 569 677 569 677 569 560 c 0,33,34
 569 485 569 485 554.5 406.5 c 128,-1,35
 540 328 540 328 514 253.5 c 128,-1,36
 488 179 488 179 451.5 113 c 128,-1,37
 415 47 415 47 371 -1 c 0,38,39
 346 -29 346 -29 323 -59 c 128,-1,40
 300 -89 300 -89 277.5 -113.5 c 128,-1,41
 255 -138 255 -138 231.5 -153.5 c 128,-1,42
 208 -169 208 -169 181 -169 c 0,43,44
 137 -169 137 -169 112.5 -145 c 128,-1,45
 88 -121 88 -121 88 -83 c 0,0,1
EndSplineSet
EndChar

StartChar: asterisk
Encoding: 42 42 35
Width: 1217
Flags: W
LayerCount: 2
Fore
SplineSet
477 473 m 0,0,1
 452 473 452 473 427.5 481 c 128,-1,2
 403 489 403 489 384 504.5 c 128,-1,3
 365 520 365 520 353.5 542.5 c 128,-1,4
 342 565 342 565 342 593 c 0,5,6
 342 600 342 600 354.5 626.5 c 128,-1,7
 367 653 367 653 385 689 c 128,-1,8
 403 725 403 725 423.5 763.5 c 128,-1,9
 444 802 444 802 460 833 c 1,10,-1
 254 716 l 2,11,12
 235 706 235 706 215 706 c 0,13,14
 189 706 189 706 170.5 716.5 c 128,-1,15
 152 727 152 727 140 743 c 128,-1,16
 128 759 128 759 122.5 777.5 c 128,-1,17
 117 796 117 796 117 812 c 0,18,19
 117 836 117 836 127.5 857.5 c 128,-1,20
 138 879 138 879 162 887 c 2,21,-1
 159 886 l 2,22,23
 168 890 168 890 194.5 897.5 c 128,-1,24
 221 905 221 905 256 915.5 c 128,-1,25
 291 926 291 926 329.5 939.5 c 128,-1,26
 368 953 368 953 401 968 c 1,27,-1
 155 1048 l 2,28,29
 126 1057 126 1057 115 1080 c 128,-1,30
 104 1103 104 1103 104 1129 c 256,31,32
 104 1155 104 1155 114.5 1172.5 c 128,-1,33
 125 1190 125 1190 141.5 1201 c 128,-1,34
 158 1212 158 1212 177 1217 c 128,-1,35
 196 1222 196 1222 213 1222 c 0,36,37
 237 1222 237 1222 256.5 1218 c 128,-1,38
 276 1214 276 1214 294.5 1206.5 c 128,-1,39
 313 1199 313 1199 332 1187 c 128,-1,40
 351 1175 351 1175 374 1159 c 0,41,42
 399 1141 399 1141 424 1127.5 c 128,-1,43
 449 1114 449 1114 469.5 1104.5 c 128,-1,44
 490 1095 490 1095 504.5 1089.5 c 128,-1,45
 519 1084 519 1084 523 1083 c 1,46,47
 532 1115 532 1115 538.5 1152 c 128,-1,48
 545 1189 545 1189 552 1225.5 c 128,-1,49
 559 1262 559 1262 568.5 1296.5 c 128,-1,50
 578 1331 578 1331 593 1357 c 128,-1,51
 608 1383 608 1383 630.5 1398.5 c 128,-1,52
 653 1414 653 1414 686 1414 c 0,53,54
 700 1414 700 1414 718 1409.5 c 128,-1,55
 736 1405 736 1405 751.5 1397 c 128,-1,56
 767 1389 767 1389 778 1377 c 128,-1,57
 789 1365 789 1365 789 1349 c 0,58,59
 789 1339 789 1339 782 1321 c 128,-1,60
 775 1303 775 1303 763.5 1274.5 c 128,-1,61
 752 1246 752 1246 737 1205.5 c 128,-1,62
 722 1165 722 1165 706 1111 c 1,63,-1
 927 1237 l 2,64,65
 952 1251 952 1251 977 1251 c 0,66,67
 986 1251 986 1251 1000 1243.5 c 128,-1,68
 1014 1236 1014 1236 1027.5 1221 c 128,-1,69
 1041 1206 1041 1206 1051 1185 c 128,-1,70
 1061 1164 1061 1164 1061 1137 c 0,71,72
 1061 1121 1061 1121 1054.5 1109.5 c 128,-1,73
 1048 1098 1048 1098 1038 1090 c 128,-1,74
 1028 1082 1028 1082 1015.5 1076.5 c 128,-1,75
 1003 1071 1003 1071 991 1067 c 2,76,-1
 766 986 l 1,77,-1
 883 958 l 1,78,79
 898 958 898 958 920.5 962.5 c 128,-1,80
 943 967 943 967 963 967 c 0,81,82
 984 967 984 967 999 955.5 c 128,-1,83
 1014 944 1014 944 1024 927 c 128,-1,84
 1034 910 1034 910 1039 891 c 128,-1,85
 1044 872 1044 872 1044 857 c 0,86,87
 1044 837 1044 837 1038.5 816.5 c 128,-1,88
 1033 796 1033 796 1021.5 779.5 c 128,-1,89
 1010 763 1010 763 992.5 753 c 128,-1,90
 975 743 975 743 950 743 c 0,91,92
 930 743 930 743 909.5 747.5 c 128,-1,93
 889 752 889 752 863.5 762 c 128,-1,94
 838 772 838 772 805.5 788 c 128,-1,95
 773 804 773 804 729 827 c 0,96,97
 720 831 720 831 706 836 c 128,-1,98
 692 841 692 841 678 845.5 c 128,-1,99
 664 850 664 850 652.5 853 c 128,-1,100
 641 856 641 856 637 857 c 1,101,102
 604 741 604 741 586.5 667 c 128,-1,103
 569 593 569 593 554.5 549.5 c 128,-1,104
 540 506 540 506 523.5 489.5 c 128,-1,105
 507 473 507 473 477 473 c 0,0,1
EndSplineSet
EndChar

StartChar: plus
Encoding: 43 43 36
Width: 1304
Flags: W
LayerCount: 2
Fore
SplineSet
252 520 m 1,0,1
 236 520 236 520 222 526.5 c 128,-1,2
 208 533 208 533 197.5 543.5 c 128,-1,3
 187 554 187 554 181 567.5 c 128,-1,4
 175 581 175 581 175 595 c 0,5,6
 175 631 175 631 189 654.5 c 128,-1,7
 203 678 203 678 225 691 c 128,-1,8
 247 704 247 704 273.5 709 c 128,-1,9
 300 714 300 714 326 714 c 0,10,11
 341 714 341 714 366.5 711 c 128,-1,12
 392 708 392 708 418 705 c 128,-1,13
 444 702 444 702 465 699 c 128,-1,14
 486 696 486 696 493 696 c 2,15,-1
 545 696 l 2,16,17
 558 696 558 696 572 697 c 1,18,-1
 572 896 l 2,19,20
 572 928 572 928 576.5 958 c 128,-1,21
 581 988 581 988 594 1011.5 c 128,-1,22
 607 1035 607 1035 631.5 1049.5 c 128,-1,23
 656 1064 656 1064 697 1064 c 0,24,25
 722 1064 722 1064 735.5 1058 c 128,-1,26
 749 1052 749 1052 755.5 1041 c 128,-1,27
 762 1030 762 1030 763 1014.5 c 128,-1,28
 764 999 764 999 764 981 c 1,29,30
 761 946 761 946 759 913 c 0,31,32
 757 884 757 884 755.5 852 c 128,-1,33
 754 820 754 820 754 797 c 0,34,35
 754 795 754 795 754 785.5 c 128,-1,36
 754 776 754 776 755 762.5 c 128,-1,37
 756 749 756 749 757.5 734.5 c 128,-1,38
 759 720 759 720 761 709 c 1,39,40
 781 710 781 710 805 711 c 128,-1,41
 829 712 829 712 853.5 713 c 128,-1,42
 878 714 878 714 901 715 c 128,-1,43
 924 716 924 716 944 716 c 1,44,45
 962 724 962 724 983.5 735.5 c 128,-1,46
 1005 747 1005 747 1038 747 c 0,47,48
 1070 747 1070 747 1088 735 c 128,-1,49
 1106 723 1106 723 1115 706 c 128,-1,50
 1124 689 1124 689 1126.5 670 c 128,-1,51
 1129 651 1129 651 1129 636 c 0,52,53
 1129 599 1129 599 1115.5 578.5 c 128,-1,54
 1102 558 1102 558 1080.5 547.5 c 128,-1,55
 1059 537 1059 537 1033 534.5 c 128,-1,56
 1007 532 1007 532 982 532 c 0,57,58
 968 532 968 532 947 532.5 c 128,-1,59
 926 533 926 533 902.5 533.5 c 128,-1,60
 879 534 879 534 856.5 534.5 c 128,-1,61
 834 535 834 535 818 535 c 0,62,63
 795 535 795 535 777.5 533.5 c 128,-1,64
 760 532 760 532 754 527 c 1,65,66
 754 483 754 483 755.5 448 c 128,-1,67
 757 413 757 413 759 382.5 c 128,-1,68
 761 352 761 352 762.5 324 c 128,-1,69
 764 296 764 296 764 267 c 0,70,71
 764 220 764 220 755.5 193.5 c 128,-1,72
 747 167 747 167 733 154.5 c 128,-1,73
 719 142 719 142 699 139 c 128,-1,74
 679 136 679 136 657 136 c 0,75,76
 636 136 636 136 616.5 140.5 c 128,-1,77
 597 145 597 145 583 157 c 128,-1,78
 569 169 569 169 560.5 189 c 128,-1,79
 552 209 552 209 552 240 c 0,80,81
 552 278 552 278 555 303.5 c 128,-1,82
 558 329 558 329 562 356.5 c 128,-1,83
 566 384 566 384 569 421 c 128,-1,84
 572 458 572 458 572 520 c 1,85,-1
 252 520 l 1,86,-1
 252 520 l 1,0,1
EndSplineSet
EndChar

StartChar: comma
Encoding: 44 44 37
Width: 647
Flags: W
LayerCount: 2
Fore
SplineSet
50 -222 m 0,0,1
 50 -205 50 -205 67 -170.5 c 128,-1,2
 84 -136 84 -136 111.5 -93 c 128,-1,3
 139 -50 139 -50 174 -2 c 128,-1,4
 209 46 209 46 245 90 c 128,-1,5
 281 134 281 134 314 170.5 c 128,-1,6
 347 207 347 207 372 228 c 0,7,8
 383 236 383 236 401 245.5 c 128,-1,9
 419 255 419 255 454 255 c 0,10,11
 475 255 475 255 487 247 c 128,-1,12
 499 239 499 239 506 227.5 c 128,-1,13
 513 216 513 216 515 204.5 c 128,-1,14
 517 193 517 193 517 186 c 0,15,16
 517 161 517 161 508.5 139.5 c 128,-1,17
 500 118 500 118 486.5 98.5 c 128,-1,18
 473 79 473 79 456.5 61.5 c 128,-1,19
 440 44 440 44 424 26 c 0,20,21
 416 16 416 16 410.5 9.5 c 128,-1,22
 405 3 405 3 399.5 -3 c 128,-1,23
 394 -9 394 -9 387.5 -16 c 128,-1,24
 381 -23 381 -23 372 -35 c 0,25,26
 358 -53 358 -53 342.5 -80.5 c 128,-1,27
 327 -108 327 -108 310 -139 c 128,-1,28
 293 -170 293 -170 274.5 -200.5 c 128,-1,29
 256 -231 256 -231 235 -255.5 c 128,-1,30
 214 -280 214 -280 191 -295.5 c 128,-1,31
 168 -311 168 -311 142 -311 c 0,32,33
 124 -311 124 -311 107.5 -304.5 c 128,-1,34
 91 -298 91 -298 78.5 -286.5 c 128,-1,35
 66 -275 66 -275 58 -258.5 c 128,-1,36
 50 -242 50 -242 50 -222 c 0,0,1
EndSplineSet
EndChar

StartChar: hyphen
Encoding: 45 45 38
Width: 1081
Flags: W
LayerCount: 2
Fore
SplineSet
281 524 m 0,0,1
 262 524 262 524 243.5 526.5 c 128,-1,2
 225 529 225 529 211 537.5 c 128,-1,3
 197 546 197 546 188 562 c 128,-1,4
 179 578 179 578 179 606 c 0,5,6
 179 633 179 633 186 650.5 c 128,-1,7
 193 668 193 668 209.5 678.5 c 128,-1,8
 226 689 226 689 254 693 c 128,-1,9
 282 697 282 697 324 697 c 0,10,11
 373 697 373 697 424.5 699 c 128,-1,12
 476 701 476 701 527 703 c 0,13,14
 554 704 554 704 586.5 705.5 c 128,-1,15
 619 707 619 707 653 707.5 c 128,-1,16
 687 708 687 708 721 708.5 c 128,-1,17
 755 709 755 709 785 709 c 0,18,19
 826 709 826 709 850.5 684 c 128,-1,20
 875 659 875 659 875 616 c 0,21,22
 875 592 875 592 862 571.5 c 128,-1,23
 849 551 849 551 831 536 c 128,-1,24
 813 521 813 521 794 512.5 c 128,-1,25
 775 504 775 504 763 504 c 0,26,27
 733 504 733 504 700 509 c 128,-1,28
 667 514 667 514 634 519.5 c 128,-1,29
 601 525 601 525 567.5 530 c 128,-1,30
 534 535 534 535 502 535 c 0,31,32
 448 535 448 535 394 529.5 c 128,-1,33
 340 524 340 524 281 524 c 0,0,1
EndSplineSet
EndChar

StartChar: period
Encoding: 46 46 39
Width: 580
Flags: W
LayerCount: 2
Fore
SplineSet
150 90 m 0,0,1
 150 112 150 112 163 134.5 c 128,-1,2
 176 157 176 157 196.5 175 c 128,-1,3
 217 193 217 193 241.5 204 c 128,-1,4
 266 215 266 215 289 215 c 0,5,6
 313 215 313 215 338 210 c 128,-1,7
 363 205 363 205 383.5 192.5 c 128,-1,8
 404 180 404 180 417 157.5 c 128,-1,9
 430 135 430 135 430 101 c 0,10,11
 430 -19 430 -19 305 -19 c 0,12,13
 284 -19 284 -19 257.5 -14.5 c 128,-1,14
 231 -10 231 -10 207 2.5 c 128,-1,15
 183 15 183 15 166.5 36 c 128,-1,16
 150 57 150 57 150 90 c 0,0,1
EndSplineSet
EndChar

StartChar: slash
Encoding: 47 47 40
Width: 919
Flags: W
LayerCount: 2
Fore
SplineSet
169 -66 m 0,0,1
 199 48 199 48 235 181 c 128,-1,2
 271 314 271 314 311 457 c 128,-1,3
 351 600 351 600 394 747.5 c 128,-1,4
 437 895 437 895 481.5 1038 c 128,-1,5
 526 1181 526 1181 570.5 1314.5 c 128,-1,6
 615 1448 615 1448 659 1564 c 0,7,8
 665 1580 665 1580 675 1598.5 c 128,-1,9
 685 1617 685 1617 699.5 1633.5 c 128,-1,10
 714 1650 714 1650 732 1661 c 128,-1,11
 750 1672 750 1672 771 1672 c 0,12,13
 809 1672 809 1672 832.5 1649 c 128,-1,14
 856 1626 856 1626 856 1581 c 0,15,16
 856 1573 856 1573 855 1566 c 128,-1,17
 854 1559 854 1559 851 1551 c 0,18,19
 818 1475 818 1475 781 1379.5 c 128,-1,20
 744 1284 744 1284 708.5 1184 c 128,-1,21
 673 1084 673 1084 642 986 c 128,-1,22
 611 888 611 888 589 806 c 0,23,24
 564 714 564 714 539.5 617 c 128,-1,25
 515 520 515 520 492 425.5 c 128,-1,26
 469 331 469 331 448 245 c 128,-1,27
 427 159 427 159 410.5 90.5 c 128,-1,28
 394 22 394 22 382.5 -24 c 128,-1,29
 371 -70 371 -70 367 -85 c 0,30,31
 361 -104 361 -104 355.5 -127 c 128,-1,32
 350 -150 350 -150 341 -169.5 c 128,-1,33
 332 -189 332 -189 317.5 -202 c 128,-1,34
 303 -215 303 -215 279 -215 c 0,35,36
 262 -215 262 -215 240 -211 c 128,-1,37
 218 -207 218 -207 198.5 -197 c 128,-1,38
 179 -187 179 -187 165.5 -172 c 128,-1,39
 152 -157 152 -157 152 -134 c 0,40,41
 152 -133 152 -133 152.5 -131.5 c 128,-1,42
 153 -130 153 -130 154.5 -123.5 c 128,-1,43
 156 -117 156 -117 159.5 -103.5 c 128,-1,44
 163 -90 163 -90 169 -66 c 0,0,1
EndSplineSet
EndChar

StartChar: zero
Encoding: 48 48 41
Width: 1606
Flags: W
LayerCount: 2
Fore
SplineSet
173 651 m 0,0,1
 173 840 173 840 225 974.5 c 128,-1,2
 277 1109 277 1109 365 1194.5 c 128,-1,3
 453 1280 453 1280 570 1319.5 c 128,-1,4
 687 1359 687 1359 816 1359 c 0,5,6
 969 1359 969 1359 1084.5 1310.5 c 128,-1,7
 1200 1262 1200 1262 1277.5 1169.5 c 128,-1,8
 1355 1077 1355 1077 1394 943 c 128,-1,9
 1433 809 1433 809 1433 638 c 0,10,11
 1433 491 1433 491 1383.5 370.5 c 128,-1,12
 1334 250 1334 250 1249.5 164.5 c 128,-1,13
 1165 79 1165 79 1051.5 32 c 128,-1,14
 938 -15 938 -15 809 -15 c 0,15,16
 719 -15 719 -15 636.5 9 c 128,-1,17
 554 33 554 33 483.5 76.5 c 128,-1,18
 413 120 413 120 355.5 181.5 c 128,-1,19
 298 243 298 243 257.5 317 c 128,-1,20
 217 391 217 391 195 475.5 c 128,-1,21
 173 560 173 560 173 651 c 0,0,1
361 683 m 0,22,23
 361 617 361 617 376.5 552.5 c 128,-1,24
 392 488 392 488 420 429 c 128,-1,25
 448 370 448 370 487 320 c 128,-1,26
 526 270 526 270 574.5 233 c 128,-1,27
 623 196 623 196 679 175 c 128,-1,28
 735 154 735 154 796 154 c 0,29,30
 893 154 893 154 975.5 186.5 c 128,-1,31
 1058 219 1058 219 1118 283 c 128,-1,32
 1178 347 1178 347 1211.5 442 c 128,-1,33
 1245 537 1245 537 1245 662 c 0,34,35
 1245 782 1245 782 1217.5 878 c 128,-1,36
 1190 974 1190 974 1138 1041 c 128,-1,37
 1086 1108 1086 1108 1010.5 1143.5 c 128,-1,38
 935 1179 935 1179 840 1179 c 0,39,40
 741 1179 741 1179 654 1148 c 128,-1,41
 567 1117 567 1117 501.5 1054.5 c 128,-1,42
 436 992 436 992 398.5 899 c 128,-1,43
 361 806 361 806 361 683 c 0,22,23
EndSplineSet
EndChar

StartChar: one
Encoding: 49 49 42
Width: 674
Flags: W
LayerCount: 2
Fore
SplineSet
355 -5 m 0,0,1
 319 -5 319 -5 296 10 c 128,-1,2
 273 25 273 25 259.5 52.5 c 128,-1,3
 246 80 246 80 240 117 c 128,-1,4
 234 154 234 154 232 197.5 c 128,-1,5
 230 241 230 241 231 290 c 128,-1,6
 232 339 232 339 232 389 c 0,7,8
 232 469 232 469 238 561 c 128,-1,9
 244 653 244 653 251.5 749 c 128,-1,10
 259 845 259 845 265 941.5 c 128,-1,11
 271 1038 271 1038 271 1126 c 0,12,13
 271 1141 271 1141 263.5 1156.5 c 128,-1,14
 256 1172 256 1172 246.5 1188.5 c 128,-1,15
 237 1205 237 1205 229.5 1222.5 c 128,-1,16
 222 1240 222 1240 222 1260 c 0,17,18
 222 1278 222 1278 232.5 1297 c 128,-1,19
 243 1316 243 1316 259.5 1331.5 c 128,-1,20
 276 1347 276 1347 294.5 1356.5 c 128,-1,21
 313 1366 313 1366 330 1366 c 0,22,23
 340 1366 340 1366 360.5 1360.5 c 128,-1,24
 381 1355 381 1355 401 1342.5 c 128,-1,25
 421 1330 421 1330 436.5 1310 c 128,-1,26
 452 1290 452 1290 452 1260 c 0,27,28
 452 1148 452 1148 446 1026.5 c 128,-1,29
 440 905 440 905 433 786 c 128,-1,30
 426 667 426 667 420 556.5 c 128,-1,31
 414 446 414 446 414 356 c 0,32,33
 414 326 414 326 418 292.5 c 128,-1,34
 422 259 422 259 426.5 223.5 c 128,-1,35
 431 188 431 188 435 152 c 128,-1,36
 439 116 439 116 439 80 c 0,37,38
 439 45 439 45 416.5 20 c 128,-1,39
 394 -5 394 -5 355 -5 c 0,0,1
EndSplineSet
EndChar

StartChar: two
Encoding: 50 50 43
Width: 1297
Flags: W
LayerCount: 2
Fore
SplineSet
288 52 m 0,0,1
 288 99 288 99 304 134 c 128,-1,2
 320 169 320 169 343 199.5 c 128,-1,3
 366 230 366 230 391 258.5 c 128,-1,4
 416 287 416 287 435 320 c 0,5,6
 461 367 461 367 495.5 426 c 128,-1,7
 530 485 530 485 566 550.5 c 128,-1,8
 602 616 602 616 637 683.5 c 128,-1,9
 672 751 672 751 699 814 c 128,-1,10
 726 877 726 877 743 932 c 128,-1,11
 760 987 760 987 760 1028 c 0,12,13
 760 1073 760 1073 742 1105 c 128,-1,14
 724 1137 724 1137 695.5 1156.5 c 128,-1,15
 667 1176 667 1176 632 1185 c 128,-1,16
 597 1194 597 1194 562 1194 c 0,17,18
 497 1194 497 1194 446 1181.5 c 128,-1,19
 395 1169 395 1169 369 1140 c 0,20,21
 356 1126 356 1126 346 1101.5 c 128,-1,22
 336 1077 336 1077 324.5 1053.5 c 128,-1,23
 313 1030 313 1030 298 1012.5 c 128,-1,24
 283 995 283 995 261 995 c 0,25,26
 238 995 238 995 223.5 1009.5 c 128,-1,27
 209 1024 209 1024 201 1042.5 c 128,-1,28
 193 1061 193 1061 190 1079.5 c 128,-1,29
 187 1098 187 1098 187 1106 c 0,30,31
 187 1138 187 1138 197 1164.5 c 128,-1,32
 207 1191 207 1191 223.5 1214 c 128,-1,33
 240 1237 240 1237 262 1257.5 c 128,-1,34
 284 1278 284 1278 308 1298 c 0,35,36
 337 1322 337 1322 368 1336 c 128,-1,37
 399 1350 399 1350 432.5 1357.5 c 128,-1,38
 466 1365 466 1365 501 1367 c 128,-1,39
 536 1369 536 1369 572 1369 c 0,40,41
 637 1369 637 1369 703.5 1348 c 128,-1,42
 770 1327 770 1327 824 1288 c 128,-1,43
 878 1249 878 1249 912.5 1193 c 128,-1,44
 947 1137 947 1137 947 1067 c 0,45,46
 947 981 947 981 924.5 895.5 c 128,-1,47
 902 810 902 810 865 726.5 c 128,-1,48
 828 643 828 643 781.5 562 c 128,-1,49
 735 481 735 481 687 403 c 0,50,51
 666 369 666 369 647.5 340.5 c 128,-1,52
 629 312 629 312 612.5 285 c 128,-1,53
 596 258 596 258 581 230 c 128,-1,54
 566 202 566 202 553 168 c 1,55,56
 563 166 563 166 578 165 c 128,-1,57
 593 164 593 164 610 164 c 0,58,59
 628 164 628 164 666 166 c 128,-1,60
 704 168 704 168 749.5 171.5 c 128,-1,61
 795 175 795 175 840.5 181 c 128,-1,62
 886 187 886 187 919 195 c 0,63,64
 934 199 934 199 957 209.5 c 128,-1,65
 980 220 980 220 1006 220 c 0,66,67
 1024 220 1024 220 1043.5 206 c 128,-1,68
 1063 192 1063 192 1078.5 173 c 128,-1,69
 1094 154 1094 154 1104.5 133 c 128,-1,70
 1115 112 1115 112 1115 99 c 0,71,72
 1115 77 1115 77 1101.5 60.5 c 128,-1,73
 1088 44 1088 44 1070 32.5 c 128,-1,74
 1052 21 1052 21 1033 14.5 c 128,-1,75
 1014 8 1014 8 1002 5 c 0,76,77
 994 3 994 3 985 2.5 c 128,-1,78
 976 2 976 2 968 2 c 0,79,80
 940 2 940 2 912.5 6.5 c 128,-1,81
 885 11 885 11 857 11 c 0,82,83
 800 11 800 11 738.5 7 c 128,-1,84
 677 3 677 3 613 -1.5 c 128,-1,85
 549 -6 549 -6 485 -10 c 128,-1,86
 421 -14 421 -14 358 -14 c 0,87,88
 346 -14 346 -14 333.5 -6.5 c 128,-1,89
 321 1 321 1 311 11.5 c 128,-1,90
 301 22 301 22 294.5 33.5 c 128,-1,91
 288 45 288 45 288 52 c 0,0,1
EndSplineSet
EndChar

StartChar: three
Encoding: 51 51 44
Width: 1317
Flags: W
LayerCount: 2
Fore
SplineSet
143 88 m 0,0,1
 143 99 143 99 147 119.5 c 128,-1,2
 151 140 151 140 159 159.5 c 128,-1,3
 167 179 167 179 179.5 193.5 c 128,-1,4
 192 208 192 208 210 208 c 0,5,6
 239 208 239 208 258 205 c 128,-1,7
 277 202 277 202 292 198 c 128,-1,8
 307 194 307 194 320.5 189 c 128,-1,9
 334 184 334 184 351 180 c 128,-1,10
 368 176 368 176 392 173 c 128,-1,11
 416 170 416 170 452 170 c 0,12,13
 490 170 490 170 539.5 172.5 c 128,-1,14
 589 175 589 175 642 183.5 c 128,-1,15
 695 192 695 192 746 209.5 c 128,-1,16
 797 227 797 227 837 258 c 128,-1,17
 877 289 877 289 901.5 334.5 c 128,-1,18
 926 380 926 380 926 446 c 0,19,20
 926 485 926 485 906 510.5 c 128,-1,21
 886 536 886 536 852 551 c 128,-1,22
 818 566 818 566 774 572.5 c 128,-1,23
 730 579 730 579 682 579 c 0,24,25
 659 579 659 579 637.5 571.5 c 128,-1,26
 616 564 616 564 593.5 555.5 c 128,-1,27
 571 547 571 547 546 539.5 c 128,-1,28
 521 532 521 532 493 532 c 0,29,30
 440 532 440 532 411.5 551.5 c 128,-1,31
 383 571 383 571 383 610 c 0,32,33
 383 654 383 654 407.5 684 c 128,-1,34
 432 714 432 714 471 735 c 128,-1,35
 510 756 510 756 557 769 c 128,-1,36
 604 782 604 782 649 793 c 1,37,38
 695 823 695 823 746 861.5 c 128,-1,39
 797 900 797 900 840 946.5 c 128,-1,40
 883 993 883 993 911 1045.5 c 128,-1,41
 939 1098 939 1098 939 1155 c 0,42,43
 939 1164 939 1164 924 1170 c 128,-1,44
 909 1176 909 1176 888.5 1179 c 128,-1,45
 868 1182 868 1182 846.5 1183.5 c 128,-1,46
 825 1185 825 1185 812 1185 c 0,47,48
 780 1185 780 1185 743.5 1179.5 c 128,-1,49
 707 1174 707 1174 670 1165 c 128,-1,50
 633 1156 633 1156 599.5 1144.5 c 128,-1,51
 566 1133 566 1133 540 1120 c 0,52,53
 520 1111 520 1111 507.5 1103 c 128,-1,54
 495 1095 495 1095 485 1089 c 128,-1,55
 475 1083 475 1083 466 1079.5 c 128,-1,56
 457 1076 457 1076 444 1076 c 256,57,58
 431 1076 431 1076 415.5 1081 c 128,-1,59
 400 1086 400 1086 386.5 1094.5 c 128,-1,60
 373 1103 373 1103 364 1114.5 c 128,-1,61
 355 1126 355 1126 355 1140 c 0,62,63
 355 1180 355 1180 382.5 1212 c 128,-1,64
 410 1244 410 1244 454 1268 c 128,-1,65
 498 1292 498 1292 553 1309.5 c 128,-1,66
 608 1327 608 1327 663 1338 c 128,-1,67
 718 1349 718 1349 767 1354 c 128,-1,68
 816 1359 816 1359 849 1359 c 0,69,70
 985 1359 985 1359 1058 1304 c 128,-1,71
 1131 1249 1131 1249 1131 1130 c 0,72,73
 1131 1102 1131 1102 1115 1059.5 c 128,-1,74
 1099 1017 1099 1017 1066 965.5 c 128,-1,75
 1033 914 1033 914 983.5 856 c 128,-1,76
 934 798 934 798 867 739 c 1,77,78
 914 724 914 724 959.5 699.5 c 128,-1,79
 1005 675 1005 675 1040.5 642 c 128,-1,80
 1076 609 1076 609 1098 568 c 128,-1,81
 1120 527 1120 527 1120 481 c 0,82,83
 1120 369 1120 369 1093 289 c 128,-1,84
 1066 209 1066 209 1014 154.5 c 128,-1,85
 962 100 962 100 885.5 68 c 128,-1,86
 809 36 809 36 709.5 19.5 c 128,-1,87
 610 3 610 3 489 -2 c 128,-1,88
 368 -7 368 -7 227 -7 c 0,89,90
 200 -7 200 -7 183.5 2.5 c 128,-1,91
 167 12 167 12 158 26 c 128,-1,92
 149 40 149 40 146 57 c 128,-1,93
 143 74 143 74 143 88 c 0,0,1
EndSplineSet
EndChar

StartChar: four
Encoding: 52 52 45
Width: 1234
Flags: W
LayerCount: 2
Fore
SplineSet
486 463 m 1,0,1
 401 466 401 466 335 495 c 128,-1,2
 269 524 269 524 224 575 c 128,-1,3
 179 626 179 626 155.5 695.5 c 128,-1,4
 132 765 132 765 132 849 c 1,5,-1
 139 1129 l 2,6,7
 140 1161 140 1161 164 1184 c 128,-1,8
 188 1207 188 1207 236 1207 c 0,9,10
 261 1207 261 1207 277 1193 c 128,-1,11
 293 1179 293 1179 302.5 1155 c 128,-1,12
 312 1131 312 1131 316 1098.5 c 128,-1,13
 320 1066 320 1066 320 1030 c 0,14,15
 320 988 320 988 316.5 940 c 128,-1,16
 313 892 313 892 313 855 c 0,17,18
 313 785 313 785 333.5 741.5 c 128,-1,19
 354 698 354 698 392.5 673.5 c 128,-1,20
 431 649 431 649 487 639.5 c 128,-1,21
 543 630 543 630 614 629 c 2,22,-1
 812 625 l 1,23,24
 815 654 815 654 817.5 701.5 c 128,-1,25
 820 749 820 749 821.5 806.5 c 128,-1,26
 823 864 823 864 824 927.5 c 128,-1,27
 825 991 825 991 825 1052 c 0,28,29
 825 1137 825 1137 820.5 1206 c 128,-1,30
 816 1275 816 1275 816 1310 c 0,31,32
 816 1363 816 1363 844.5 1385.5 c 128,-1,33
 873 1408 873 1408 911 1408 c 0,34,35
 930 1408 930 1408 946 1398.5 c 128,-1,36
 962 1389 962 1389 973.5 1374.5 c 128,-1,37
 985 1360 985 1360 991.5 1343.5 c 128,-1,38
 998 1327 998 1327 998 1314 c 0,39,40
 998 1220 998 1220 997 1131.5 c 128,-1,41
 996 1043 996 1043 995.5 955.5 c 128,-1,42
 995 868 995 868 994 780 c 128,-1,43
 993 692 993 692 993 600 c 1,44,45
 1004 588 1004 588 1013 567.5 c 128,-1,46
 1022 547 1022 547 1022 526 c 0,47,48
 1022 515 1022 515 1013 498.5 c 128,-1,49
 1004 482 1004 482 993 470 c 1,50,51
 989 435 989 435 987 402.5 c 128,-1,52
 985 370 985 370 985 356 c 0,53,54
 985 296 985 296 995 230 c 128,-1,55
 1005 164 1005 164 1005 92 c 0,56,57
 1005 62 1005 62 994.5 38 c 128,-1,58
 984 14 984 14 966 -3.5 c 128,-1,59
 948 -21 948 -21 924 -30.5 c 128,-1,60
 900 -40 900 -40 872 -40 c 0,61,62
 860 -40 860 -40 847 -33 c 128,-1,63
 834 -26 834 -26 823.5 -14 c 128,-1,64
 813 -2 813 -2 806 13 c 128,-1,65
 799 28 799 28 799 43 c 2,66,-1
 801 452 l 1,67,-1
 486 463 l 1,68,-1
 486 463 l 1,0,1
EndSplineSet
EndChar

StartChar: five
Encoding: 53 53 46
Width: 1370
Flags: W
LayerCount: 2
Fore
SplineSet
201 80 m 2,0,1
 199 83 199 83 199 98 c 256,2,3
 199 113 199 113 203 133.5 c 128,-1,4
 207 154 207 154 216.5 173.5 c 128,-1,5
 226 193 226 193 241.5 206.5 c 128,-1,6
 257 220 257 220 280 220 c 0,7,8
 299 220 299 220 321.5 208.5 c 128,-1,9
 344 197 344 197 373 182.5 c 128,-1,10
 402 168 402 168 438 156.5 c 128,-1,11
 474 145 474 145 520 145 c 0,12,13
 610 145 610 145 684.5 156.5 c 128,-1,14
 759 168 759 168 812.5 197.5 c 128,-1,15
 866 227 866 227 896 276.5 c 128,-1,16
 926 326 926 326 926 403 c 0,17,18
 926 418 926 418 919.5 440.5 c 128,-1,19
 913 463 913 463 899.5 487.5 c 128,-1,20
 886 512 886 512 864 536.5 c 128,-1,21
 842 561 842 561 811 580.5 c 128,-1,22
 780 600 780 600 739 612.5 c 128,-1,23
 698 625 698 625 647 625 c 0,24,25
 605 625 605 625 567 613 c 128,-1,26
 529 601 529 601 500 587 c 0,27,28
 466 570 466 570 436 549 c 1,29,30
 411 549 411 549 382.5 549.5 c 128,-1,31
 354 550 354 550 330 557 c 128,-1,32
 306 564 306 564 290 580 c 128,-1,33
 274 596 274 596 274 627 c 0,34,35
 274 632 274 632 274 636 c 128,-1,36
 274 640 274 640 275 645 c 0,37,38
 282 678 282 678 283.5 738.5 c 128,-1,39
 285 799 285 799 285 871.5 c 128,-1,40
 285 944 285 944 287 1021.5 c 128,-1,41
 289 1099 289 1099 297.5 1166 c 128,-1,42
 306 1233 306 1233 323 1281.5 c 128,-1,43
 340 1330 340 1330 372 1345 c 1,44,45
 429 1351 429 1351 484.5 1353 c 128,-1,46
 540 1355 540 1355 594 1355 c 0,47,48
 645 1355 645 1355 698 1354.5 c 128,-1,49
 751 1354 751 1354 805 1354 c 0,50,51
 868 1354 868 1354 929.5 1355.5 c 128,-1,52
 991 1357 991 1357 1051 1363 c 1,53,54
 1051 1363 1051 1363 1058.5 1364 c 128,-1,55
 1066 1365 1066 1365 1075.5 1366.5 c 128,-1,56
 1085 1368 1085 1368 1095.5 1369.5 c 128,-1,57
 1106 1371 1106 1371 1113 1371 c 0,58,59
 1144 1371 1144 1371 1164.5 1358 c 128,-1,60
 1185 1345 1185 1345 1197 1325 c 128,-1,61
 1209 1305 1209 1305 1213.5 1280.5 c 128,-1,62
 1218 1256 1218 1256 1218 1234 c 0,63,64
 1218 1214 1218 1214 1209 1199 c 128,-1,65
 1200 1184 1200 1184 1186 1174.5 c 128,-1,66
 1172 1165 1172 1165 1155 1160 c 128,-1,67
 1138 1155 1138 1155 1122 1155 c 0,68,69
 1096 1155 1096 1155 1075.5 1160 c 128,-1,70
 1055 1165 1055 1165 1038 1171.5 c 128,-1,71
 1021 1178 1021 1178 1006 1183.5 c 128,-1,72
 991 1189 991 1189 976 1189 c 0,73,74
 974 1189 974 1189 936.5 1189 c 128,-1,75
 899 1189 899 1189 844 1189 c 128,-1,76
 789 1189 789 1189 725.5 1188 c 128,-1,77
 662 1187 662 1187 607.5 1186 c 128,-1,78
 553 1185 553 1185 517 1182.5 c 128,-1,79
 481 1180 481 1180 481 1177 c 0,80,81
 481 1138 481 1138 480 1113.5 c 128,-1,82
 479 1089 479 1089 477.5 1071.5 c 128,-1,83
 476 1054 476 1054 474.5 1041.5 c 128,-1,84
 473 1029 473 1029 471.5 1014 c 128,-1,85
 470 999 470 999 469 978 c 128,-1,86
 468 957 468 957 468 925 c 0,87,88
 468 907 468 907 468.5 887 c 128,-1,89
 469 867 469 867 470 849.5 c 128,-1,90
 471 832 471 832 472.5 821 c 128,-1,91
 474 810 474 810 477 810 c 0,92,93
 496 810 496 810 515 813.5 c 128,-1,94
 534 817 534 817 555 820.5 c 128,-1,95
 576 824 576 824 599.5 827.5 c 128,-1,96
 623 831 623 831 651 831 c 0,97,98
 746 831 746 831 831.5 800.5 c 128,-1,99
 917 770 917 770 982 714.5 c 128,-1,100
 1047 659 1047 659 1085 581.5 c 128,-1,101
 1123 504 1123 504 1123 409 c 0,102,103
 1123 298 1123 298 1080 213.5 c 128,-1,104
 1037 129 1037 129 962 73 c 128,-1,105
 887 17 887 17 784.5 -11.5 c 128,-1,106
 682 -40 682 -40 563 -40 c 0,107,108
 522 -40 522 -40 467.5 -38 c 128,-1,109
 413 -36 413 -36 360 -23.5 c 128,-1,110
 307 -11 307 -11 261.5 15.5 c 128,-1,111
 216 42 216 42 192 92 c 1,112,-1
 201 80 l 2,0,1
EndSplineSet
EndChar

StartChar: six
Encoding: 54 54 47
Width: 1449
Flags: W
LayerCount: 2
Fore
SplineSet
163 616 m 0,0,1
 163 665 163 665 180 739 c 128,-1,2
 197 813 197 813 225 896 c 128,-1,3
 253 979 253 979 289 1062.5 c 128,-1,4
 325 1146 325 1146 363 1212.5 c 128,-1,5
 401 1279 401 1279 437.5 1321 c 128,-1,6
 474 1363 474 1363 503 1363 c 0,7,8
 529 1363 529 1363 545 1355 c 128,-1,9
 561 1347 561 1347 570 1333.5 c 128,-1,10
 579 1320 579 1320 582 1301.5 c 128,-1,11
 585 1283 585 1283 585 1262 c 0,12,13
 585 1245 585 1245 582 1236 c 128,-1,14
 579 1227 579 1227 571 1213 c 0,15,16
 533 1147 533 1147 494 1069.5 c 128,-1,17
 455 992 455 992 423.5 911.5 c 128,-1,18
 392 831 392 831 372 752.5 c 128,-1,19
 352 674 352 674 352 606 c 0,20,21
 352 548 352 548 356 494.5 c 128,-1,22
 360 441 360 441 371.5 394 c 128,-1,23
 383 347 383 347 404 308.5 c 128,-1,24
 425 270 425 270 459 242 c 128,-1,25
 493 214 493 214 542.5 197.5 c 128,-1,26
 592 181 592 181 660 180 c 1,27,28
 664 291 664 291 688.5 393.5 c 128,-1,29
 713 496 713 496 767 574.5 c 128,-1,30
 821 653 821 653 910 699.5 c 128,-1,31
 999 746 999 746 1132 746 c 0,32,33
 1186 746 1186 746 1221.5 730 c 128,-1,34
 1257 714 1257 714 1278.5 685 c 128,-1,35
 1300 656 1300 656 1308.5 615.5 c 128,-1,36
 1317 575 1317 575 1317 526 c 0,37,38
 1317 415 1317 415 1268 318 c 128,-1,39
 1219 221 1219 221 1137 149.5 c 128,-1,40
 1055 78 1055 78 949 37 c 128,-1,41
 843 -4 843 -4 728 -4 c 0,42,43
 578 -4 578 -4 470.5 26.5 c 128,-1,44
 363 57 363 57 295 129 c 128,-1,45
 227 201 227 201 195 320 c 128,-1,46
 163 439 163 439 163 616 c 0,0,1
845 191 m 1,47,48
 906 193 906 193 960 221 c 128,-1,49
 1014 249 1014 249 1055 294.5 c 128,-1,50
 1096 340 1096 340 1120 398 c 128,-1,51
 1144 456 1144 456 1144 518 c 0,52,53
 1144 540 1144 540 1127 548.5 c 128,-1,54
 1110 557 1110 557 1092 557 c 0,55,56
 1031 557 1031 557 984 525.5 c 128,-1,57
 937 494 937 494 905.5 446 c 128,-1,58
 874 398 874 398 858 340.5 c 128,-1,59
 842 283 842 283 842 231 c 0,60,61
 842 223 842 223 842 211 c 128,-1,62
 842 199 842 199 845 191 c 1,47,48
EndSplineSet
EndChar

StartChar: seven
Encoding: 55 55 48
Width: 1141
Flags: W
LayerCount: 2
Fore
SplineSet
351 92 m 0,0,1
 351 97 351 97 352.5 107 c 128,-1,2
 354 117 354 117 360 152 c 0,3,4
 361 159 361 159 373.5 189 c 128,-1,5
 386 219 386 219 407 266 c 128,-1,6
 428 313 428 313 455.5 374 c 128,-1,7
 483 435 483 435 514 502.5 c 128,-1,8
 545 570 545 570 578 642 c 128,-1,9
 611 714 611 714 643.5 782.5 c 128,-1,10
 676 851 676 851 705.5 914.5 c 128,-1,11
 735 978 735 978 758.5 1028.5 c 128,-1,12
 782 1079 782 1079 798.5 1113.5 c 128,-1,13
 815 1148 815 1148 821 1161 c 1,14,15
 790 1165 790 1165 763 1166.5 c 128,-1,16
 736 1168 736 1168 709 1168 c 128,-1,17
 682 1168 682 1168 654 1167.5 c 128,-1,18
 626 1167 626 1167 595 1167 c 0,19,20
 566 1167 566 1167 527.5 1165 c 128,-1,21
 489 1163 489 1163 450 1161 c 128,-1,22
 411 1159 411 1159 375.5 1157 c 128,-1,23
 340 1155 340 1155 315 1155 c 0,24,25
 287 1155 287 1155 251 1158 c 128,-1,26
 215 1161 215 1161 182.5 1171.5 c 128,-1,27
 150 1182 150 1182 127.5 1203 c 128,-1,28
 105 1224 105 1224 105 1259 c 0,29,30
 105 1274 105 1274 111.5 1288 c 128,-1,31
 118 1302 118 1302 130 1313 c 128,-1,32
 142 1324 142 1324 158.5 1331 c 128,-1,33
 175 1338 175 1338 195 1338 c 0,34,35
 325 1338 325 1338 454 1333 c 128,-1,36
 583 1328 583 1328 717 1328 c 0,37,38
 727 1328 727 1328 754 1329.5 c 128,-1,39
 781 1331 781 1331 810 1332.5 c 128,-1,40
 839 1334 839 1334 864.5 1335.5 c 128,-1,41
 890 1337 890 1337 899 1337 c 1,42,43
 912 1346 912 1346 924.5 1348.5 c 128,-1,44
 937 1351 937 1351 947 1351 c 0,45,46
 970 1351 970 1351 986 1340.5 c 128,-1,47
 1002 1330 1002 1330 1011.5 1313 c 128,-1,48
 1021 1296 1021 1296 1025 1275 c 128,-1,49
 1029 1254 1029 1254 1029 1234 c 0,50,51
 1029 1217 1029 1217 1024.5 1203.5 c 128,-1,52
 1020 1190 1020 1190 1012 1172 c 0,53,54
 992 1131 992 1131 961.5 1064 c 128,-1,55
 931 997 931 997 895.5 918 c 128,-1,56
 860 839 860 839 822 756 c 128,-1,57
 784 673 784 673 750 599 c 128,-1,58
 716 525 716 525 689.5 467 c 128,-1,59
 663 409 663 409 649 382 c 0,60,61
 636 356 636 356 623.5 326 c 128,-1,62
 611 296 611 296 600.5 265 c 128,-1,63
 590 234 590 234 582 204 c 128,-1,64
 574 174 574 174 570 147 c 0,65,66
 565 120 565 120 558.5 93.5 c 128,-1,67
 552 67 552 67 537.5 46.5 c 128,-1,68
 523 26 523 26 497.5 13 c 128,-1,69
 472 0 472 0 430 0 c 0,70,71
 410 0 410 0 395 8 c 128,-1,72
 380 16 380 16 370 28.5 c 128,-1,73
 360 41 360 41 355.5 57.5 c 128,-1,74
 351 74 351 74 351 92 c 0,0,1
EndSplineSet
EndChar

StartChar: eight
Encoding: 56 56 49
Width: 1195
Flags: W
LayerCount: 2
Fore
SplineSet
195 238 m 0,0,1
 195 299 195 299 205 353.5 c 128,-1,2
 215 408 215 408 234.5 457.5 c 128,-1,3
 254 507 254 507 282 553.5 c 128,-1,4
 310 600 310 600 347 645 c 1,5,-1
 345 643 l 1,6,7
 354 655 354 655 366.5 666 c 128,-1,8
 379 677 379 677 390 687.5 c 128,-1,9
 401 698 401 698 409 707 c 128,-1,10
 417 716 417 716 417 725 c 1,11,12
 391 756 391 756 365.5 789 c 128,-1,13
 340 822 340 822 320 857.5 c 128,-1,14
 300 893 300 893 288 931 c 128,-1,15
 276 969 276 969 276 1011 c 0,16,17
 276 1081 276 1081 302.5 1135.5 c 128,-1,18
 329 1190 329 1190 373.5 1230.5 c 128,-1,19
 418 1271 418 1271 475 1299 c 128,-1,20
 532 1327 532 1327 594 1344.5 c 128,-1,21
 656 1362 656 1362 718 1369.5 c 128,-1,22
 780 1377 780 1377 833 1377 c 0,23,24
 888 1377 888 1377 933.5 1349.5 c 128,-1,25
 979 1322 979 1322 1011.5 1279.5 c 128,-1,26
 1044 1237 1044 1237 1062 1186 c 128,-1,27
 1080 1135 1080 1135 1080 1088 c 0,28,29
 1080 1034 1080 1034 1051 999.5 c 128,-1,30
 1022 965 1022 965 974 945 c 1,31,-1
 850 819 l 2,32,33
 838 807 838 807 817.5 788.5 c 128,-1,34
 797 770 797 770 774.5 750.5 c 128,-1,35
 752 731 752 731 731.5 714 c 128,-1,36
 711 697 711 697 699 688 c 1,37,38
 729 651 729 651 759.5 596.5 c 128,-1,39
 790 542 790 542 814.5 482.5 c 128,-1,40
 839 423 839 423 854.5 365 c 128,-1,41
 870 307 870 307 870 262 c 0,42,43
 870 123 870 123 784 46.5 c 128,-1,44
 698 -30 698 -30 538 -30 c 0,45,46
 472 -30 472 -30 410 -20 c 128,-1,47
 348 -10 348 -10 300 19.5 c 128,-1,48
 252 49 252 49 223.5 101.5 c 128,-1,49
 195 154 195 154 195 238 c 0,0,1
580 833 m 256,50,51
 589 833 589 833 602.5 841.5 c 128,-1,52
 616 850 616 850 630.5 861.5 c 128,-1,53
 645 873 645 873 658 885 c 128,-1,54
 671 897 671 897 678 904 c 2,55,-1
 818 1047 l 2,56,57
 830 1059 830 1059 845.5 1071 c 128,-1,58
 861 1083 861 1083 875 1094.5 c 128,-1,59
 889 1106 889 1106 898.5 1115 c 128,-1,60
 908 1124 908 1124 908 1130 c 0,61,62
 908 1154 908 1154 893.5 1167 c 128,-1,63
 879 1180 879 1180 858 1186 c 128,-1,64
 837 1192 837 1192 813 1193 c 128,-1,65
 789 1194 789 1194 770 1194 c 0,66,67
 729 1194 729 1194 677 1180.5 c 128,-1,68
 625 1167 625 1167 579 1142 c 128,-1,69
 533 1117 533 1117 501.5 1081 c 128,-1,70
 470 1045 470 1045 470 1000 c 0,71,72
 470 989 470 989 484 962 c 128,-1,73
 498 935 498 935 516.5 906 c 128,-1,74
 535 877 535 877 553 855 c 128,-1,75
 571 833 571 833 580 833 c 256,50,51
375 294 m 0,76,77
 375 253 375 253 382.5 226.5 c 128,-1,78
 390 200 390 200 406.5 185 c 128,-1,79
 423 170 423 170 450 164 c 128,-1,80
 477 158 477 158 515 158 c 0,81,82
 543 158 543 158 572.5 163 c 128,-1,83
 602 168 602 168 625 178.5 c 128,-1,84
 648 189 648 189 663 206 c 128,-1,85
 678 223 678 223 678 247 c 0,86,87
 678 260 678 260 672 289.5 c 128,-1,88
 666 319 666 319 656 356 c 128,-1,89
 646 393 646 393 632.5 432 c 128,-1,90
 619 471 619 471 604.5 503 c 128,-1,91
 590 535 590 535 575 556 c 128,-1,92
 560 577 560 577 547 577 c 0,93,94
 526 577 526 577 505.5 561 c 128,-1,95
 485 545 485 545 466 519 c 128,-1,96
 447 493 447 493 430.5 461 c 128,-1,97
 414 429 414 429 401.5 397.5 c 128,-1,98
 389 366 389 366 382 338.5 c 128,-1,99
 375 311 375 311 375 294 c 0,76,77
EndSplineSet
EndChar

StartChar: nine
Encoding: 57 57 50
Width: 1354
Flags: W
LayerCount: 2
Fore
SplineSet
885 56 m 0,0,1
 885 113 885 113 893 166.5 c 128,-1,2
 901 220 901 220 910.5 280.5 c 128,-1,3
 920 341 920 341 928 414 c 128,-1,4
 936 487 936 487 936 585 c 0,5,6
 936 612 936 612 935 641 c 128,-1,7
 934 670 934 670 932 699 c 1,8,9
 879 673 879 673 813.5 654.5 c 128,-1,10
 748 636 748 636 689 636 c 0,11,12
 627 636 627 636 561.5 645.5 c 128,-1,13
 496 655 496 655 433 675.5 c 128,-1,14
 370 696 370 696 314 728.5 c 128,-1,15
 258 761 258 761 215.5 807 c 128,-1,16
 173 853 173 853 148.5 913 c 128,-1,17
 124 973 124 973 124 1050 c 0,18,19
 124 1105 124 1105 151 1151.5 c 128,-1,20
 178 1198 178 1198 221.5 1236 c 128,-1,21
 265 1274 265 1274 320.5 1303 c 128,-1,22
 376 1332 376 1332 433 1351.5 c 128,-1,23
 490 1371 490 1371 543 1381 c 128,-1,24
 596 1391 596 1391 636 1391 c 0,25,26
 716 1391 716 1391 788.5 1367 c 128,-1,27
 861 1343 861 1343 915.5 1299.5 c 128,-1,28
 970 1256 970 1256 1002.5 1195 c 128,-1,29
 1035 1134 1035 1134 1035 1059 c 0,30,31
 1035 1057 1035 1057 1037 1041 c 128,-1,32
 1039 1025 1039 1025 1039 1009 c 0,33,34
 1039 986 1039 986 1053 974.5 c 128,-1,35
 1067 963 1067 963 1084 950.5 c 128,-1,36
 1101 938 1101 938 1115 918.5 c 128,-1,37
 1129 899 1129 899 1129 860 c 0,38,39
 1129 735 1129 735 1123 630 c 128,-1,40
 1117 525 1117 525 1108.5 425 c 128,-1,41
 1100 325 1100 325 1091.5 222.5 c 128,-1,42
 1083 120 1083 120 1078 2 c 1,43,44
 1078 -67 1078 -67 1009 -67 c 0,45,46
 1000 -67 1000 -67 979.5 -59 c 128,-1,47
 959 -51 959 -51 938 -35 c 128,-1,48
 917 -19 917 -19 901 4 c 128,-1,49
 885 27 885 27 885 56 c 0,0,1
687 810 m 0,50,51
 700 810 700 810 721.5 811.5 c 128,-1,52
 743 813 743 813 768.5 816.5 c 128,-1,53
 794 820 794 820 820 826 c 128,-1,54
 846 832 846 832 866.5 841.5 c 128,-1,55
 887 851 887 851 900.5 864 c 128,-1,56
 914 877 914 877 914 894 c 0,57,58
 914 903 914 903 912 923 c 128,-1,59
 910 943 910 943 907 966.5 c 128,-1,60
 904 990 904 990 901 1011.5 c 128,-1,61
 898 1033 898 1033 896 1045 c 0,62,63
 888 1084 888 1084 859.5 1116.5 c 128,-1,64
 831 1149 831 1149 793.5 1172.5 c 128,-1,65
 756 1196 756 1196 715 1209 c 128,-1,66
 674 1222 674 1222 642 1222 c 0,67,68
 597 1222 597 1222 540.5 1210 c 128,-1,69
 484 1198 484 1198 434 1172.5 c 128,-1,70
 384 1147 384 1147 349.5 1108 c 128,-1,71
 315 1069 315 1069 315 1015 c 0,72,73
 315 983 315 983 333.5 955 c 128,-1,74
 352 927 352 927 382.5 904.5 c 128,-1,75
 413 882 413 882 452 864.5 c 128,-1,76
 491 847 491 847 532.5 834.5 c 128,-1,77
 574 822 574 822 614 816 c 128,-1,78
 654 810 654 810 687 810 c 0,50,51
EndSplineSet
EndChar

StartChar: a
Encoding: 97 97 51
Width: 1529
Flags: W
LayerCount: 2
Fore
SplineSet
133 426 m 0,0,1
 133 504 133 504 155.5 588.5 c 128,-1,2
 178 673 178 673 220 746 c 1,3,4
 260 819 260 819 318.5 883 c 128,-1,5
 377 947 377 947 449 994.5 c 128,-1,6
 521 1042 521 1042 604.5 1069.5 c 128,-1,7
 688 1097 688 1097 779 1097 c 0,8,9
 848 1097 848 1097 912 1078.5 c 128,-1,10
 976 1060 976 1060 1032 1028 c 128,-1,11
 1088 996 1088 996 1134.5 952 c 128,-1,12
 1181 908 1181 908 1214 857.5 c 128,-1,13
 1247 807 1247 807 1265 752 c 128,-1,14
 1283 697 1283 697 1283 642 c 0,15,16
 1283 593 1283 593 1277.5 555.5 c 128,-1,17
 1272 518 1272 518 1264 481 c 1,18,19
 1258 443 1258 443 1252 402.5 c 128,-1,20
 1246 362 1246 362 1246 308 c 0,21,22
 1246 261 1246 261 1253 230.5 c 128,-1,23
 1260 200 1260 200 1273 181 c 128,-1,24
 1286 162 1286 162 1304.5 154.5 c 128,-1,25
 1323 147 1323 147 1346 147 c 0,26,27
 1352 147 1352 147 1361 150.5 c 128,-1,28
 1370 154 1370 154 1378 158.5 c 128,-1,29
 1386 163 1386 163 1392 167.5 c 128,-1,30
 1398 172 1398 172 1400 175 c 0,31,32
 1411 186 1411 186 1421.5 194.5 c 128,-1,33
 1432 203 1432 203 1450 203 c 0,34,35
 1486 203 1486 203 1504.5 186 c 128,-1,36
 1523 169 1523 169 1523 130 c 0,37,38
 1523 106 1523 106 1508.5 80 c 128,-1,39
 1494 54 1494 54 1468 32.5 c 128,-1,40
 1442 11 1442 11 1406 -3 c 128,-1,41
 1370 -17 1370 -17 1326 -17 c 0,42,43
 1238 -17 1238 -17 1175.5 32.5 c 128,-1,44
 1113 82 1113 82 1086 168 c 1,45,46
 1049 129 1049 129 1005 93.5 c 128,-1,47
 961 58 961 58 908 31.5 c 128,-1,48
 855 5 855 5 790.5 -10.5 c 128,-1,49
 726 -26 726 -26 648 -26 c 0,50,51
 589 -26 589 -26 527.5 -10 c 128,-1,52
 466 6 466 6 408.5 35 c 128,-1,53
 351 64 351 64 301 105.5 c 128,-1,54
 251 147 251 147 213.5 197 c 128,-1,55
 176 247 176 247 154.5 305 c 128,-1,56
 133 363 133 363 133 426 c 0,0,1
320 428 m 0,57,58
 320 366 320 366 353.5 314 c 128,-1,59
 387 262 387 262 440 225 c 128,-1,60
 493 188 493 188 558.5 167.5 c 128,-1,61
 624 147 624 147 687 147 c 0,62,63
 771 147 771 147 841.5 179 c 128,-1,64
 912 211 912 211 962.5 262 c 128,-1,65
 1013 313 1013 313 1041 376.5 c 128,-1,66
 1069 440 1069 440 1069 502 c 0,67,68
 1069 537 1069 537 1084.5 563.5 c 128,-1,69
 1100 590 1100 590 1114 614 c 0,70,71
 1118 619 1118 619 1118.5 629.5 c 128,-1,72
 1119 640 1119 640 1118.5 651.5 c 128,-1,73
 1118 663 1118 663 1117 673 c 128,-1,74
 1116 683 1116 683 1116 687 c 0,75,76
 1116 709 1116 709 1101 735 c 128,-1,77
 1086 761 1086 761 1060.5 787 c 128,-1,78
 1035 813 1035 813 1002.5 837.5 c 128,-1,79
 970 862 970 862 936 881 c 128,-1,80
 902 900 902 900 868 911.5 c 128,-1,81
 834 923 834 923 807 923 c 0,82,83
 731 923 731 923 665.5 902 c 128,-1,84
 600 881 600 881 546 845 c 128,-1,85
 492 809 492 809 449.5 760.5 c 128,-1,86
 407 712 407 712 378.5 657 c 128,-1,87
 350 602 350 602 335 543 c 128,-1,88
 320 484 320 484 320 428 c 0,57,58
EndSplineSet
EndChar

StartChar: b
Encoding: 98 98 52
Width: 1342
Flags: W
LayerCount: 2
Fore
SplineSet
188 112 m 0,0,1
 186 147 186 147 185 217.5 c 128,-1,2
 184 288 184 288 184 378.5 c 128,-1,3
 184 469 184 469 185 572.5 c 128,-1,4
 186 676 186 676 186 777 c 128,-1,5
 186 878 186 878 186 968.5 c 128,-1,6
 186 1059 186 1059 185 1124 c 2,7,-1
 182 1289 l 2,8,9
 182 1298 182 1298 182.5 1313.5 c 128,-1,10
 183 1329 183 1329 183 1345 c 128,-1,11
 183 1361 183 1361 183.5 1374 c 128,-1,12
 184 1387 184 1387 184 1391 c 0,13,14
 184 1432 184 1432 203.5 1455 c 128,-1,15
 223 1478 223 1478 278 1478 c 0,16,17
 291 1478 291 1478 307 1473.5 c 128,-1,18
 323 1469 323 1469 337 1461 c 128,-1,19
 351 1453 351 1453 360.5 1441.5 c 128,-1,20
 370 1430 370 1430 370 1416 c 2,21,-1
 372 1321 l 2,22,23
 373 1271 373 1271 372 1226.5 c 128,-1,24
 371 1182 371 1182 369.5 1138.5 c 128,-1,25
 368 1095 368 1095 366.5 1050.5 c 128,-1,26
 365 1006 365 1006 365 957 c 1,27,28
 425 1008 425 1008 505 1040.5 c 128,-1,29
 585 1073 585 1073 688 1073 c 0,30,31
 944 1073 944 1073 1076.5 944 c 128,-1,32
 1209 815 1209 815 1209 544 c 0,33,34
 1209 438 1209 438 1178.5 355.5 c 128,-1,35
 1148 273 1148 273 1097.5 211 c 128,-1,36
 1047 149 1047 149 982 105.5 c 128,-1,37
 917 62 917 62 847.5 35.5 c 128,-1,38
 778 9 778 9 709.5 -3 c 128,-1,39
 641 -15 641 -15 584 -15 c 0,40,41
 532 -15 532 -15 478 -5 c 128,-1,42
 424 5 424 5 376 22 c 1,43,44
 363 4 363 4 340.5 -7 c 128,-1,45
 318 -18 318 -18 288 -18 c 0,46,47
 261 -18 261 -18 243 -6.5 c 128,-1,48
 225 5 225 5 213 23.5 c 128,-1,49
 201 42 201 42 195 65 c 128,-1,50
 189 88 189 88 188 112 c 0,0,1
390 181 m 1,51,52
 405 173 405 173 428 168 c 128,-1,53
 451 163 451 163 477 160 c 128,-1,54
 503 157 503 157 530.5 156 c 128,-1,55
 558 155 558 155 582 156 c 0,56,57
 634 158 634 158 690 171 c 128,-1,58
 746 184 746 184 797.5 208 c 128,-1,59
 849 232 849 232 893 267.5 c 128,-1,60
 937 303 937 303 965 350 c 1,61,62
 984 378 984 378 994.5 413 c 128,-1,63
 1005 448 1005 448 1010 486 c 128,-1,64
 1015 524 1015 524 1016 562.5 c 128,-1,65
 1017 601 1017 601 1017 636 c 1,66,67
 1014 709 1014 709 978.5 759 c 128,-1,68
 943 809 943 809 890.5 840 c 128,-1,69
 838 871 838 871 775.5 884.5 c 128,-1,70
 713 898 713 898 657 898 c 0,71,72
 621 898 621 898 579.5 888 c 128,-1,73
 538 878 538 878 499 860.5 c 128,-1,74
 460 843 460 843 427.5 819 c 128,-1,75
 395 795 395 795 377 767 c 1,76,77
 373 765 373 765 371.5 735 c 128,-1,78
 370 705 370 705 370 660.5 c 128,-1,79
 370 616 370 616 370.5 563 c 128,-1,80
 371 510 371 510 372 460 c 128,-1,81
 373 410 373 410 373.5 370 c 128,-1,82
 374 330 374 330 374 313 c 0,83,84
 374 282 374 282 377.5 245.5 c 128,-1,85
 381 209 381 209 390 181 c 1,51,52
EndSplineSet
EndChar

StartChar: c
Encoding: 99 99 53
Width: 1253
Flags: W
LayerCount: 2
Fore
SplineSet
133 420 m 0,0,1
 133 558 133 558 173 679.5 c 128,-1,2
 213 801 213 801 291 892.5 c 128,-1,3
 369 984 369 984 484 1037 c 128,-1,4
 599 1090 599 1090 748 1090 c 0,5,6
 776 1090 776 1090 812 1080 c 128,-1,7
 848 1070 848 1070 885 1051 c 128,-1,8
 922 1032 922 1032 958 1005.5 c 128,-1,9
 994 979 994 979 1022 946.5 c 128,-1,10
 1050 914 1050 914 1067 876 c 128,-1,11
 1084 838 1084 838 1084 797 c 0,12,13
 1084 785 1084 785 1079 767 c 128,-1,14
 1074 749 1074 749 1065.5 733 c 128,-1,15
 1057 717 1057 717 1045 707 c 128,-1,16
 1033 697 1033 697 1018.5 699.5 c 128,-1,17
 1004 702 1004 702 987 721 c 128,-1,18
 970 740 970 740 952 784 c 0,19,20
 938 816 938 816 912.5 839 c 128,-1,21
 887 862 887 862 854 876.5 c 128,-1,22
 821 891 821 891 783.5 898 c 128,-1,23
 746 905 746 905 709 905 c 0,24,25
 618 905 618 905 545.5 868 c 128,-1,26
 473 831 473 831 422 770.5 c 128,-1,27
 371 710 371 710 344 633 c 128,-1,28
 317 556 317 556 317 477 c 0,29,30
 317 380 317 380 346 318.5 c 128,-1,31
 375 257 375 257 428.5 221.5 c 128,-1,32
 482 186 482 186 556.5 173 c 128,-1,33
 631 160 631 160 722 160 c 0,34,35
 749 160 749 160 774.5 158.5 c 128,-1,36
 800 157 800 157 824.5 157.5 c 128,-1,37
 849 158 849 158 874 162 c 128,-1,38
 899 166 899 166 926 177 c 0,39,40
 948 187 948 187 967 196 c 0,41,42
 984 203 984 203 1000 209 c 128,-1,43
 1016 215 1016 215 1024 215 c 0,44,45
 1034 215 1034 215 1052 209 c 128,-1,46
 1070 203 1070 203 1087.5 189 c 128,-1,47
 1105 175 1105 175 1118 152.5 c 128,-1,48
 1131 130 1131 130 1131 97 c 0,49,50
 1131 80 1131 80 1119.5 62.5 c 128,-1,51
 1108 45 1108 45 1090.5 30.5 c 128,-1,52
 1073 16 1073 16 1054 7 c 128,-1,53
 1035 -2 1035 -2 1020 -2 c 2,54,-1
 941 -2 l 2,55,56
 871 -2 871 -2 804.5 -8 c 128,-1,57
 738 -14 738 -14 666 -14 c 0,58,59
 559 -14 559 -14 462 6.5 c 128,-1,60
 365 27 365 27 292 77 c 128,-1,61
 219 127 219 127 176 210.5 c 128,-1,62
 133 294 133 294 133 420 c 0,0,1
EndSplineSet
EndChar

StartChar: d
Encoding: 100 100 54
Width: 1446
Flags: W
LayerCount: 2
Fore
SplineSet
133 497 m 0,0,1
 133 573 133 573 151.5 647.5 c 128,-1,2
 170 722 170 722 206 789 c 128,-1,3
 242 856 242 856 295 913 c 128,-1,4
 348 970 348 970 418 1011.5 c 128,-1,5
 488 1053 488 1053 573.5 1075.5 c 128,-1,6
 659 1098 659 1098 760 1097 c 0,7,8
 806 1096 806 1096 852.5 1081.5 c 128,-1,9
 899 1067 899 1067 940.5 1044.5 c 128,-1,10
 982 1022 982 1022 1017.5 994.5 c 128,-1,11
 1053 967 1053 967 1077 940 c 1,12,13
 1078 945 1078 945 1078.5 954.5 c 128,-1,14
 1079 964 1079 964 1079.5 973.5 c 128,-1,15
 1080 983 1080 983 1080.5 991.5 c 128,-1,16
 1081 1000 1081 1000 1081 1003 c 2,17,-1
 1081 1375 l 2,18,19
 1081 1476 1081 1476 1184 1476 c 0,20,21
 1206 1476 1206 1476 1220.5 1467 c 128,-1,22
 1235 1458 1235 1458 1243.5 1443.5 c 128,-1,23
 1252 1429 1252 1429 1255.5 1410.5 c 128,-1,24
 1259 1392 1259 1392 1259 1373 c 0,25,26
 1259 1365 1259 1365 1258.5 1345 c 128,-1,27
 1258 1325 1258 1325 1258 1302.5 c 128,-1,28
 1258 1280 1258 1280 1257.5 1259 c 128,-1,29
 1257 1238 1257 1238 1257 1226 c 0,30,31
 1259 1181 1259 1181 1261.5 1104.5 c 128,-1,32
 1264 1028 1264 1028 1264 917 c 0,33,34
 1264 826 1264 826 1261 728 c 128,-1,35
 1258 630 1258 630 1256 530 c 1,36,37
 1252 427 1252 427 1250.5 326 c 128,-1,38
 1249 225 1249 225 1249 129 c 0,39,40
 1249 53 1249 53 1226 17 c 128,-1,41
 1203 -19 1203 -19 1145 -19 c 0,42,43
 1126 -19 1126 -19 1110 -9 c 128,-1,44
 1094 1 1094 1 1082 17.5 c 128,-1,45
 1070 34 1070 34 1061 55.5 c 128,-1,46
 1052 77 1052 77 1048 101 c 1,47,48
 1022 69 1022 69 977.5 46.5 c 128,-1,49
 933 24 933 24 878.5 10 c 128,-1,50
 824 -4 824 -4 763 -10.5 c 128,-1,51
 702 -17 702 -17 642 -17 c 0,52,53
 514 -17 514 -17 418.5 21 c 128,-1,54
 323 59 323 59 259.5 127 c 128,-1,55
 196 195 196 195 164.5 289.5 c 128,-1,56
 133 384 133 384 133 497 c 0,0,1
322 495 m 0,57,58
 322 414 322 414 350 349 c 128,-1,59
 378 284 378 284 426 238.5 c 128,-1,60
 474 193 474 193 537.5 168.5 c 128,-1,61
 601 144 601 144 672 144 c 0,62,63
 769 144 769 144 839.5 163 c 128,-1,64
 910 182 910 182 956 209.5 c 128,-1,65
 1002 237 1002 237 1026.5 267.5 c 128,-1,66
 1051 298 1051 298 1057 321 c 1,67,68
 1063 353 1063 353 1066 383.5 c 128,-1,69
 1069 414 1069 414 1070 445.5 c 128,-1,70
 1071 477 1071 477 1071 511.5 c 128,-1,71
 1071 546 1071 546 1071 587 c 0,72,73
 1071 654 1071 654 1044.5 715.5 c 128,-1,74
 1018 777 1018 777 974 824 c 128,-1,75
 930 871 930 871 874 899 c 128,-1,76
 818 927 818 927 758 927 c 0,77,78
 653 927 653 927 571.5 894.5 c 128,-1,79
 490 862 490 862 434.5 804 c 128,-1,80
 379 746 379 746 350.5 667 c 128,-1,81
 322 588 322 588 322 495 c 0,57,58
EndSplineSet
EndChar

StartChar: e
Encoding: 101 101 55
Width: 1336
Flags: W
LayerCount: 2
Fore
SplineSet
107 475 m 0,0,1
 107 617 107 617 148 732 c 128,-1,2
 189 847 189 847 269 928 c 128,-1,3
 349 1009 349 1009 465.5 1053 c 128,-1,4
 582 1097 582 1097 734 1097 c 0,5,6
 786 1097 786 1097 840.5 1086 c 128,-1,7
 895 1075 895 1075 946 1054 c 128,-1,8
 997 1033 997 1033 1042.5 1002 c 128,-1,9
 1088 971 1088 971 1122 930.5 c 128,-1,10
 1156 890 1156 890 1175.5 840.5 c 128,-1,11
 1195 791 1195 791 1195 733 c 0,12,13
 1195 688 1195 688 1175 668 c 128,-1,14
 1155 648 1155 648 1122 640 c 0,15,16
 1093 632 1093 632 1054.5 625.5 c 128,-1,17
 1016 619 1016 619 968 604 c 2,18,-1
 299 396 l 1,19,20
 312 335 312 335 341.5 292 c 128,-1,21
 371 249 371 249 410.5 220 c 128,-1,22
 450 191 450 191 496.5 174 c 128,-1,23
 543 157 543 157 590 148.5 c 128,-1,24
 637 140 637 140 681.5 137.5 c 128,-1,25
 726 135 726 135 762 135 c 0,26,27
 819 135 819 135 875 148 c 128,-1,28
 931 161 931 161 978 177 c 128,-1,29
 1025 193 1025 193 1060.5 206 c 128,-1,30
 1096 219 1096 219 1112 219 c 0,31,32
 1165 219 1165 219 1189.5 195 c 128,-1,33
 1214 171 1214 171 1214 120 c 0,34,35
 1214 87 1214 87 1180.5 63 c 128,-1,36
 1147 39 1147 39 1094 23 c 128,-1,37
 1041 7 1041 7 976.5 -2.5 c 128,-1,38
 912 -12 912 -12 850.5 -16.5 c 128,-1,39
 789 -21 789 -21 738 -22.5 c 128,-1,40
 687 -24 687 -24 661 -24 c 0,41,42
 592 -24 592 -24 523.5 -6.5 c 128,-1,43
 455 11 455 11 393.5 43 c 128,-1,44
 332 75 332 75 279.5 120.5 c 128,-1,45
 227 166 227 166 188.5 221.5 c 128,-1,46
 150 277 150 277 128.5 341 c 128,-1,47
 107 405 107 405 107 475 c 0,0,1
294 553 m 1,48,49
 341 567 341 567 402 585 c 128,-1,50
 463 603 463 603 530.5 623.5 c 128,-1,51
 598 644 598 644 667.5 666 c 128,-1,52
 737 688 737 688 801.5 709.5 c 128,-1,53
 866 731 866 731 920.5 750.5 c 128,-1,54
 975 770 975 770 1012 787 c 1,55,56
 1001 825 1001 825 975 852.5 c 128,-1,57
 949 880 949 880 909.5 897.5 c 128,-1,58
 870 915 870 915 818 923.5 c 128,-1,59
 766 932 766 932 704 932 c 0,60,61
 676 932 676 932 637.5 924 c 128,-1,62
 599 916 599 916 556.5 898.5 c 128,-1,63
 514 881 514 881 470.5 852 c 128,-1,64
 427 823 427 823 391 781 c 128,-1,65
 355 739 355 739 329 682.5 c 128,-1,66
 303 626 303 626 294 553 c 1,48,49
EndSplineSet
EndChar

StartChar: f
Encoding: 102 102 56
Width: 1114
Flags: W
LayerCount: 2
Fore
SplineSet
376 104 m 0,0,1
 376 113 376 113 373 135.5 c 128,-1,2
 370 158 370 158 366 189 c 128,-1,3
 362 220 362 220 359 255.5 c 128,-1,4
 356 291 356 291 356 326 c 0,5,6
 356 354 356 354 357 410 c 128,-1,7
 358 466 358 466 359 538.5 c 128,-1,8
 360 611 360 611 361 695.5 c 128,-1,9
 362 780 362 780 362 866 c 1,10,-1
 353 866 l 1,11,-1
 166 855 l 1,12,13
 146 855 146 855 129 863 c 128,-1,14
 112 871 112 871 100 883.5 c 128,-1,15
 88 896 88 896 81 911.5 c 128,-1,16
 74 927 74 927 74 943 c 0,17,18
 74 962 74 962 81 979.5 c 128,-1,19
 88 997 88 997 100.5 1010.5 c 128,-1,20
 113 1024 113 1024 130 1031.5 c 128,-1,21
 147 1039 147 1039 166 1039 c 2,22,-1
 360 1035 l 2,23,24
 362 1035 362 1035 365 1034.5 c 128,-1,25
 368 1034 368 1034 370 1034 c 1,26,27
 374 1059 374 1059 379 1087.5 c 128,-1,28
 384 1116 384 1116 388.5 1141.5 c 128,-1,29
 393 1167 393 1167 397 1186.5 c 128,-1,30
 401 1206 401 1206 403 1213 c 0,31,32
 446 1379 446 1379 558 1465 c 128,-1,33
 670 1551 670 1551 837 1551 c 0,34,35
 854 1551 854 1551 882.5 1546 c 128,-1,36
 911 1541 911 1541 943 1531 c 128,-1,37
 975 1521 975 1521 1008 1507 c 128,-1,38
 1041 1493 1041 1493 1067.5 1475 c 128,-1,39
 1094 1457 1094 1457 1111 1435.5 c 128,-1,40
 1128 1414 1128 1414 1128 1390 c 0,41,42
 1128 1381 1128 1381 1126.5 1366 c 128,-1,43
 1125 1351 1125 1351 1119.5 1336.5 c 128,-1,44
 1114 1322 1114 1322 1103.5 1312 c 128,-1,45
 1093 1302 1093 1302 1074 1302 c 0,46,47
 1037 1302 1037 1302 1013.5 1314 c 128,-1,48
 990 1326 990 1326 967.5 1341 c 128,-1,49
 945 1356 945 1356 916.5 1368 c 128,-1,50
 888 1380 888 1380 840 1380 c 0,51,52
 756 1380 756 1380 704.5 1351 c 128,-1,53
 653 1322 653 1322 623.5 1273.5 c 128,-1,54
 594 1225 594 1225 581.5 1162 c 128,-1,55
 569 1099 569 1099 564 1031 c 1,56,57
 604 1030 604 1030 634.5 1030 c 128,-1,58
 665 1030 665 1030 689 1030 c 128,-1,59
 713 1030 713 1030 732 1030.5 c 128,-1,60
 751 1031 751 1031 769 1031 c 0,61,62
 798 1031 798 1031 828 1032 c 128,-1,63
 858 1033 858 1033 887 1035 c 1,64,-1
 889 1035 l 1,65,66
 907 1037 907 1037 926.5 1038 c 128,-1,67
 946 1039 946 1039 966 1039 c 0,68,69
 979 1039 979 1039 993.5 1035.5 c 128,-1,70
 1008 1032 1008 1032 1020 1022.5 c 128,-1,71
 1032 1013 1032 1013 1039.5 996.5 c 128,-1,72
 1047 980 1047 980 1047 954 c 0,73,74
 1047 918 1047 918 1034.5 898.5 c 128,-1,75
 1022 879 1022 879 1004 869 c 128,-1,76
 986 859 986 859 965.5 857 c 128,-1,77
 945 855 945 855 930 855 c 0,78,79
 911 855 911 855 886 857 c 128,-1,80
 861 859 861 859 823 862 c 128,-1,81
 785 865 785 865 731 867 c 128,-1,82
 677 869 677 869 601 869 c 0,83,84
 595 869 595 869 586.5 870 c 128,-1,85
 578 871 578 871 556 872 c 1,86,87
 554 797 554 797 553 713 c 128,-1,88
 552 629 552 629 552 534 c 0,89,90
 552 489 552 489 550 447 c 128,-1,91
 548 405 548 405 548 363 c 0,92,93
 548 344 548 344 549.5 323 c 128,-1,94
 551 302 551 302 555 272 c 128,-1,95
 559 242 559 242 566 199 c 128,-1,96
 573 156 573 156 583 92 c 0,97,98
 592 35 592 35 571 12.5 c 128,-1,99
 550 -10 550 -10 514 -10 c 0,100,101
 473 -10 473 -10 446.5 -4.5 c 128,-1,102
 420 1 420 1 404.5 14 c 128,-1,103
 389 27 389 27 382.5 49 c 128,-1,104
 376 71 376 71 376 104 c 0,0,1
EndSplineSet
EndChar

StartChar: g
Encoding: 103 103 57
Width: 1354
Flags: W
LayerCount: 2
Fore
SplineSet
133 489 m 0,0,1
 133 564 133 564 146.5 638 c 128,-1,2
 160 712 160 712 187.5 779 c 128,-1,3
 215 846 215 846 257 903 c 128,-1,4
 299 960 299 960 355.5 1001.5 c 128,-1,5
 412 1043 412 1043 483.5 1066.5 c 128,-1,6
 555 1090 555 1090 642 1090 c 0,7,8
 738 1090 738 1090 814.5 1065.5 c 128,-1,9
 891 1041 891 1041 948.5 1000.5 c 128,-1,10
 1006 960 1006 960 1045 908 c 128,-1,11
 1084 856 1084 856 1105 800 c 0,12,13
 1116 770 1116 770 1121.5 753.5 c 128,-1,14
 1127 737 1127 737 1133 733 c 0,15,16
 1166 711 1166 711 1184.5 682 c 128,-1,17
 1203 653 1203 653 1203 627 c 2,18,-1
 1202 268 l 1,19,20
 1198 211 1198 211 1193.5 130.5 c 128,-1,21
 1189 50 1189 50 1178 -65 c 0,22,23
 1172 -127 1172 -127 1165 -189 c 128,-1,24
 1158 -251 1158 -251 1144.5 -308.5 c 128,-1,25
 1131 -366 1131 -366 1108 -415 c 128,-1,26
 1085 -464 1085 -464 1047.5 -500.5 c 128,-1,27
 1010 -537 1010 -537 955 -558 c 128,-1,28
 900 -579 900 -579 822 -579 c 0,29,30
 804 -579 804 -579 769.5 -576.5 c 128,-1,31
 735 -574 735 -574 694 -567 c 128,-1,32
 653 -560 653 -560 610.5 -549 c 128,-1,33
 568 -538 568 -538 533 -521.5 c 128,-1,34
 498 -505 498 -505 476 -482 c 128,-1,35
 454 -459 454 -459 454 -428 c 0,36,37
 454 -409 454 -409 457 -392 c 128,-1,38
 460 -375 460 -375 469 -362.5 c 128,-1,39
 478 -350 478 -350 495 -342.5 c 128,-1,40
 512 -335 512 -335 540 -335 c 0,41,42
 561 -335 561 -335 581.5 -348.5 c 128,-1,43
 602 -362 602 -362 627 -372 c 256,44,45
 652 -382 652 -382 684.5 -387 c 128,-1,46
 717 -392 717 -392 747 -394.5 c 128,-1,47
 777 -397 777 -397 800 -397 c 128,-1,48
 823 -397 823 -397 831 -397 c 0,49,50
 877 -397 877 -397 906.5 -368 c 128,-1,51
 936 -339 936 -339 954 -295.5 c 128,-1,52
 972 -252 972 -252 979.5 -200 c 128,-1,53
 987 -148 987 -148 990 -101 c 0,54,55
 991 -79 991 -79 994 -50 c 128,-1,56
 997 -21 997 -21 1000 11.5 c 128,-1,57
 1003 44 1003 44 1006 77 c 128,-1,58
 1009 110 1009 110 1010 139 c 1,59,60
 950 65 950 65 862 19.5 c 128,-1,61
 774 -26 774 -26 652 -26 c 0,62,63
 527 -26 527 -26 430.5 6 c 128,-1,64
 334 38 334 38 268 102 c 128,-1,65
 202 166 202 166 167.5 262.5 c 128,-1,66
 133 359 133 359 133 489 c 0,0,1
325 487 m 0,67,68
 325 383 325 383 352.5 316 c 128,-1,69
 380 249 380 249 427.5 210 c 128,-1,70
 475 171 475 171 539 155.5 c 128,-1,71
 603 140 603 140 676 140 c 0,72,73
 759 140 759 140 820 176.5 c 128,-1,74
 881 213 881 213 923 268 c 128,-1,75
 965 323 965 323 988 388 c 128,-1,76
 1011 453 1011 453 1017 510 c 0,77,78
 1020 538 1020 538 1014 559.5 c 128,-1,79
 1008 581 1008 581 1000 600 c 0,80,81
 990 622 990 622 982 643.5 c 128,-1,82
 974 665 974 665 974 688 c 0,83,84
 974 719 974 719 951.5 758.5 c 128,-1,85
 929 798 929 798 889.5 833 c 128,-1,86
 850 868 850 868 796 892.5 c 128,-1,87
 742 917 742 917 680 917 c 0,88,89
 577 917 577 917 508.5 880.5 c 128,-1,90
 440 844 440 844 399.5 784 c 128,-1,91
 359 724 359 724 342 646.5 c 128,-1,92
 325 569 325 569 325 487 c 0,67,68
EndSplineSet
EndChar

StartChar: h
Encoding: 104 104 58
Width: 1415
Flags: W
LayerCount: 2
Fore
SplineSet
184 1351 m 2,0,1
 184 1367 184 1367 192 1388.5 c 128,-1,2
 200 1410 200 1410 214.5 1429 c 128,-1,3
 229 1448 229 1448 249 1461 c 128,-1,4
 269 1474 269 1474 293 1474 c 0,5,6
 327 1474 327 1474 350.5 1451 c 128,-1,7
 374 1428 374 1428 374 1398 c 0,8,9
 374 1359 374 1359 372.5 1314 c 128,-1,10
 371 1269 371 1269 369.5 1220.5 c 128,-1,11
 368 1172 368 1172 366.5 1122 c 128,-1,12
 365 1072 365 1072 365 1024 c 2,13,-1
 365 949 l 1,14,15
 429 1015 429 1015 513.5 1049.5 c 128,-1,16
 598 1084 598 1084 693 1084 c 0,17,18
 732 1084 732 1084 773 1079.5 c 128,-1,19
 814 1075 814 1075 855 1066 c 128,-1,20
 896 1057 896 1057 934.5 1043.5 c 128,-1,21
 973 1030 973 1030 1007 1011 c 0,22,23
 1098 959 1098 959 1151 905.5 c 128,-1,24
 1204 852 1204 852 1231 792.5 c 128,-1,25
 1258 733 1258 733 1265 665 c 128,-1,26
 1272 597 1272 597 1271 515 c 2,27,-1
 1269 143 l 2,28,29
 1269 122 1269 122 1267.5 91.5 c 128,-1,30
 1266 61 1266 61 1256 32 c 128,-1,31
 1246 3 1246 3 1225 -17.5 c 128,-1,32
 1204 -38 1204 -38 1165 -38 c 0,33,34
 1141 -38 1141 -38 1121 -29 c 128,-1,35
 1101 -20 1101 -20 1086.5 -4.5 c 128,-1,36
 1072 11 1072 11 1064.5 31.5 c 128,-1,37
 1057 52 1057 52 1057 76 c 0,38,39
 1057 130 1057 130 1061.5 182.5 c 128,-1,40
 1066 235 1066 235 1071 287 c 128,-1,41
 1076 339 1076 339 1080.5 391.5 c 128,-1,42
 1085 444 1085 444 1085 497 c 0,43,44
 1085 535 1085 535 1082 580 c 128,-1,45
 1079 625 1079 625 1066.5 670.5 c 128,-1,46
 1054 716 1054 716 1029 758.5 c 128,-1,47
 1004 801 1004 801 960.5 834 c 128,-1,48
 917 867 917 867 851.5 886.5 c 128,-1,49
 786 906 786 906 693 906 c 0,50,51
 629 906 629 906 569.5 883.5 c 128,-1,52
 510 861 510 861 464.5 827 c 128,-1,53
 419 793 419 793 392 753 c 128,-1,54
 365 713 365 713 365 677 c 2,55,-1
 365 256 l 2,56,57
 365 225 365 225 369.5 185.5 c 128,-1,58
 374 146 374 146 374 112 c 0,59,60
 374 92 374 92 372.5 71.5 c 128,-1,61
 371 51 371 51 363.5 34.5 c 128,-1,62
 356 18 356 18 339.5 7 c 128,-1,63
 323 -4 323 -4 293 -4 c 0,64,65
 280 -4 280 -4 261 -1.5 c 128,-1,66
 242 1 242 1 224.5 11.5 c 128,-1,67
 207 22 207 22 194.5 43.5 c 128,-1,68
 182 65 182 65 182 103 c 2,69,-1
 184 1351 l 2,0,1
EndSplineSet
EndChar

StartChar: i
Encoding: 105 105 59
Width: 626
Flags: W
LayerCount: 2
Fore
SplineSet
372 1312 m 0,0,1
 355 1312 355 1312 323.5 1320.5 c 128,-1,2
 292 1329 292 1329 261.5 1346 c 128,-1,3
 231 1363 231 1363 208.5 1389 c 128,-1,4
 186 1415 186 1415 186 1450 c 0,5,6
 186 1467 186 1467 193 1485 c 128,-1,7
 200 1503 200 1503 212.5 1518 c 128,-1,8
 225 1533 225 1533 243 1542.5 c 128,-1,9
 261 1552 261 1552 283 1552 c 0,10,11
 302 1552 302 1552 330.5 1537 c 128,-1,12
 359 1522 359 1522 385 1498.5 c 128,-1,13
 411 1475 411 1475 430 1446.5 c 128,-1,14
 449 1418 449 1418 449 1391 c 0,15,16
 449 1384 449 1384 444.5 1371 c 128,-1,17
 440 1358 440 1358 430.5 1345 c 128,-1,18
 421 1332 421 1332 406.5 1322 c 128,-1,19
 392 1312 392 1312 372 1312 c 0,0,1
233 71 m 0,20,21
 231 79 231 79 228.5 102 c 128,-1,22
 226 125 226 125 223.5 178 c 128,-1,23
 221 231 221 231 219.5 321.5 c 128,-1,24
 218 412 218 412 218 555 c 0,25,26
 218 667 218 667 231.5 784.5 c 128,-1,27
 245 902 245 902 265 1007 c 0,28,29
 266 1016 266 1016 272.5 1031.5 c 128,-1,30
 279 1047 279 1047 290.5 1062.5 c 128,-1,31
 302 1078 302 1078 318 1089.5 c 128,-1,32
 334 1101 334 1101 355 1101 c 0,33,34
 377 1101 377 1101 391 1093.5 c 128,-1,35
 405 1086 405 1086 412.5 1072.5 c 128,-1,36
 420 1059 420 1059 423 1041.5 c 128,-1,37
 426 1024 426 1024 426 1005 c 0,38,39
 426 952 426 952 422 888.5 c 128,-1,40
 418 825 418 825 413.5 759.5 c 128,-1,41
 409 694 409 694 405.5 631 c 128,-1,42
 402 568 402 568 402 517 c 0,43,44
 402 472 402 472 408.5 415 c 128,-1,45
 415 358 415 358 423.5 298 c 128,-1,46
 432 238 432 238 438.5 180.5 c 128,-1,47
 445 123 445 123 445 76 c 0,48,49
 445 27 445 27 420 0.5 c 128,-1,50
 395 -26 395 -26 364 -26 c 0,51,52
 304 -26 304 -26 274 -4.5 c 128,-1,53
 244 17 244 17 233 71 c 0,20,21
EndSplineSet
EndChar

StartChar: j
Encoding: 106 106 60
Width: 627
Flags: W
LayerCount: 2
Fore
SplineSet
341 1291 m 0,0,1
 320 1291 320 1291 292 1309 c 128,-1,2
 264 1327 264 1327 238.5 1350.5 c 128,-1,3
 213 1374 213 1374 195.5 1397.5 c 128,-1,4
 178 1421 178 1421 178 1432 c 0,5,6
 178 1452 178 1452 185.5 1471.5 c 128,-1,7
 193 1491 193 1491 208 1506 c 128,-1,8
 223 1521 223 1521 244.5 1530 c 128,-1,9
 266 1539 266 1539 295 1539 c 0,10,11
 313 1539 313 1539 337.5 1520.5 c 128,-1,12
 362 1502 362 1502 384 1476.5 c 128,-1,13
 406 1451 406 1451 421.5 1424 c 128,-1,14
 437 1397 437 1397 437 1379 c 0,15,16
 437 1353 437 1353 430 1336 c 128,-1,17
 423 1319 423 1319 410.5 1309 c 128,-1,18
 398 1299 398 1299 380.5 1295 c 128,-1,19
 363 1291 363 1291 341 1291 c 0,0,1
225 -117 m 0,20,21
 226 -99 226 -99 229.5 -61 c 128,-1,22
 233 -23 233 -23 237 32 c 128,-1,23
 241 87 241 87 244 158 c 128,-1,24
 247 229 247 229 247 312 c 0,25,26
 247 421 247 421 243.5 506.5 c 128,-1,27
 240 592 240 592 240 653 c 0,28,29
 240 692 240 692 240.5 724 c 128,-1,30
 241 756 241 756 241 785 c 128,-1,31
 241 814 241 814 241.5 842 c 128,-1,32
 242 870 242 870 242 902 c 0,33,34
 242 930 242 930 246 962 c 128,-1,35
 250 994 250 994 260.5 1021 c 128,-1,36
 271 1048 271 1048 290.5 1066 c 128,-1,37
 310 1084 310 1084 342 1084 c 0,38,39
 368 1084 368 1084 386 1075 c 128,-1,40
 404 1066 404 1066 415.5 1051.5 c 128,-1,41
 427 1037 427 1037 432.5 1019 c 128,-1,42
 438 1001 438 1001 439 983 c 0,43,44
 440 968 440 968 439 932.5 c 128,-1,45
 438 897 438 897 436 849.5 c 128,-1,46
 434 802 434 802 431.5 748 c 128,-1,47
 429 694 429 694 427 643.5 c 128,-1,48
 425 593 425 593 424 550.5 c 128,-1,49
 423 508 423 508 424 484 c 1,50,51
 424 388 424 388 428 291 c 128,-1,52
 432 194 432 194 432 100 c 256,53,54
 432 6 432 6 424 -80 c 128,-1,55
 416 -166 416 -166 394 -239.5 c 128,-1,56
 372 -313 372 -313 332 -373 c 128,-1,57
 292 -433 292 -433 229 -475.5 c 128,-1,58
 166 -518 166 -518 75.5 -541 c 128,-1,59
 -15 -564 -15 -564 -138 -564 c 0,60,61
 -158 -564 -158 -564 -188.5 -562.5 c 128,-1,62
 -219 -561 -219 -561 -248 -552 c 128,-1,63
 -277 -543 -277 -543 -299 -523 c 128,-1,64
 -321 -503 -321 -503 -324 -467 c 0,65,66
 -327 -437 -327 -437 -313.5 -421 c 128,-1,67
 -300 -405 -300 -405 -278 -397.5 c 128,-1,68
 -256 -390 -256 -390 -229 -389.5 c 128,-1,69
 -202 -389 -202 -389 -177 -391 c 1,70,71
 -124 -391 -124 -391 -73 -388.5 c 128,-1,72
 -22 -386 -22 -386 25 -374.5 c 128,-1,73
 72 -363 72 -363 114.5 -339.5 c 128,-1,74
 157 -316 157 -316 193 -274 c 0,75,76
 201 -265 201 -265 206.5 -245.5 c 128,-1,77
 212 -226 212 -226 216 -202.5 c 128,-1,78
 220 -179 220 -179 222 -155.5 c 128,-1,79
 224 -132 224 -132 225 -117 c 0,20,21
EndSplineSet
EndChar

StartChar: k
Encoding: 107 107 61
Width: 1243
Flags: W
LayerCount: 2
Fore
SplineSet
182 68 m 0,0,1
 182 106 182 106 186 150.5 c 128,-1,2
 190 195 190 195 194.5 239.5 c 128,-1,3
 199 284 199 284 203 325.5 c 128,-1,4
 207 367 207 367 207 400 c 2,5,-1
 223 1398 l 2,6,7
 223 1420 223 1420 232 1437 c 128,-1,8
 241 1454 241 1454 255 1465.5 c 128,-1,9
 269 1477 269 1477 286 1483 c 128,-1,10
 303 1489 303 1489 321 1489 c 0,11,12
 334 1489 334 1489 350 1483.5 c 128,-1,13
 366 1478 366 1478 380 1466.5 c 128,-1,14
 394 1455 394 1455 403 1437 c 128,-1,15
 412 1419 412 1419 412 1394 c 0,16,17
 412 1319 412 1319 408.5 1246 c 128,-1,18
 405 1173 405 1173 400.5 1101.5 c 128,-1,19
 396 1030 396 1030 392.5 960 c 128,-1,20
 389 890 389 890 389 821 c 0,21,22
 389 763 389 763 389.5 705.5 c 128,-1,23
 390 648 390 648 394 584 c 1,24,25
 460 657 460 657 520 719 c 128,-1,26
 580 781 580 781 638 838.5 c 128,-1,27
 696 896 696 896 752.5 951 c 128,-1,28
 809 1006 809 1006 867 1064 c 0,29,30
 881 1078 881 1078 896 1096 c 128,-1,31
 911 1114 911 1114 928 1129.5 c 128,-1,32
 945 1145 945 1145 963.5 1156 c 128,-1,33
 982 1167 982 1167 1004 1167 c 0,34,35
 1035 1167 1035 1167 1055 1162 c 128,-1,36
 1075 1157 1075 1157 1086.5 1145.5 c 128,-1,37
 1098 1134 1098 1134 1102.5 1117 c 128,-1,38
 1107 1100 1107 1100 1107 1076 c 0,39,40
 1107 1055 1107 1055 1101 1041 c 128,-1,41
 1095 1027 1095 1027 1085.5 1016.5 c 128,-1,42
 1076 1006 1076 1006 1062.5 997.5 c 128,-1,43
 1049 989 1049 989 1034 979 c 0,44,45
 1023 971 1023 971 1006 957.5 c 128,-1,46
 989 944 989 944 969.5 927.5 c 128,-1,47
 950 911 950 911 929 892 c 128,-1,48
 908 873 908 873 888 855 c 0,49,50
 840 812 840 812 787 761 c 1,51,-1
 950 403 l 2,52,53
 971 358 971 358 989.5 324 c 128,-1,54
 1008 290 1008 290 1027 256.5 c 128,-1,55
 1046 223 1046 223 1066 185.5 c 128,-1,56
 1086 148 1086 148 1109 95 c 1,57,58
 1116 75 1116 75 1121 57 c 0,59,60
 1126 41 1126 41 1129.5 25.5 c 128,-1,61
 1133 10 1133 10 1133 0 c 0,62,63
 1133 -26 1133 -26 1125 -52.5 c 128,-1,64
 1117 -79 1117 -79 1102.5 -100.5 c 128,-1,65
 1088 -122 1088 -122 1068.5 -135.5 c 128,-1,66
 1049 -149 1049 -149 1026 -149 c 0,67,68
 997 -149 997 -149 980.5 -126 c 128,-1,69
 964 -103 964 -103 953.5 -71.5 c 128,-1,70
 943 -40 943 -40 936 -6 c 128,-1,71
 929 28 929 28 919 50 c 2,72,-1
 654 634 l 1,73,-1
 589 552 l 2,74,75
 566 523 566 523 542.5 492.5 c 128,-1,76
 519 462 519 462 494 434.5 c 128,-1,77
 469 407 469 407 443 385.5 c 128,-1,78
 417 364 417 364 389 355 c 1,79,-1
 394 71 l 2,80,81
 394 53 394 53 388 34.5 c 128,-1,82
 382 16 382 16 369 0.5 c 128,-1,83
 356 -15 356 -15 337 -25 c 128,-1,84
 318 -35 318 -35 292 -35 c 0,85,86
 263 -35 263 -35 242.5 -23 c 128,-1,87
 222 -11 222 -11 208.5 5.5 c 128,-1,88
 195 22 195 22 188.5 39.5 c 128,-1,89
 182 57 182 57 182 68 c 0,0,1
EndSplineSet
EndChar

StartChar: l
Encoding: 108 108 62
Width: 697
Flags: W
LayerCount: 2
Fore
SplineSet
214 177 m 0,0,1
 209 200 209 200 209 227 c 128,-1,2
 209 254 209 254 209 280 c 0,3,4
 209 347 209 347 206 412.5 c 128,-1,5
 203 478 203 478 199.5 543 c 128,-1,6
 196 608 196 608 193.5 674 c 128,-1,7
 191 740 191 740 193 808 c 2,8,-1
 201 1330 l 1,9,10
 201 1396 201 1396 221 1437 c 128,-1,11
 241 1478 241 1478 293 1478 c 0,12,13
 312 1478 312 1478 327.5 1470 c 128,-1,14
 343 1462 343 1462 354 1449.5 c 128,-1,15
 365 1437 365 1437 371 1422 c 128,-1,16
 377 1407 377 1407 377 1393 c 2,17,-1
 377 659 l 2,18,19
 377 550 377 550 381.5 440.5 c 128,-1,20
 386 331 386 331 406 219 c 0,21,22
 409 201 409 201 415.5 189.5 c 128,-1,23
 422 178 422 178 430.5 171.5 c 128,-1,24
 439 165 439 165 449 163 c 128,-1,25
 459 161 459 161 468 161 c 0,26,27
 483 161 483 161 493 167.5 c 128,-1,28
 503 174 503 174 508 180 c 0,29,30
 514 187 514 187 520.5 193.5 c 128,-1,31
 527 200 527 200 535 205.5 c 128,-1,32
 543 211 543 211 554.5 214 c 128,-1,33
 566 217 566 217 582 217 c 0,34,35
 600 217 600 217 613 209.5 c 128,-1,36
 626 202 626 202 635 190 c 128,-1,37
 644 178 644 178 648.5 163 c 128,-1,38
 653 148 653 148 653 133 c 0,39,40
 653 102 653 102 634.5 76.5 c 128,-1,41
 616 51 616 51 588 33 c 128,-1,42
 560 15 560 15 527 5 c 128,-1,43
 494 -5 494 -5 465 -5 c 0,44,45
 361 -7 361 -7 297.5 39.5 c 128,-1,46
 234 86 234 86 214 177 c 0,0,1
EndSplineSet
EndChar

StartChar: m
Encoding: 109 109 63
Width: 2069
Flags: W
LayerCount: 2
Fore
SplineSet
183 133 m 1,0,1
 181 192 181 192 177 307 c 128,-1,2
 173 422 173 422 173 584 c 0,3,4
 173 659 173 659 173 714.5 c 128,-1,5
 173 770 173 770 174.5 815 c 128,-1,6
 176 860 176 860 178.5 898.5 c 128,-1,7
 181 937 181 937 186 978 c 0,8,9
 190 1009 190 1009 211.5 1030.5 c 128,-1,10
 233 1052 233 1052 259 1052 c 0,11,12
 271 1052 271 1052 285 1049 c 128,-1,13
 299 1046 299 1046 311.5 1038.5 c 128,-1,14
 324 1031 324 1031 333.5 1018 c 128,-1,15
 343 1005 343 1005 348 986 c 1,16,17
 365 1000 365 1000 390.5 1017 c 128,-1,18
 416 1034 416 1034 450 1049 c 128,-1,19
 484 1064 484 1064 527 1074 c 128,-1,20
 570 1084 570 1084 621 1084 c 0,21,22
 673 1084 673 1084 728.5 1068 c 128,-1,23
 784 1052 784 1052 835.5 1020.5 c 128,-1,24
 887 989 887 989 929.5 943 c 128,-1,25
 972 897 972 897 999 837 c 1,26,27
 1030 886 1030 886 1076 924.5 c 128,-1,28
 1122 963 1122 963 1177 990 c 128,-1,29
 1232 1017 1232 1017 1292.5 1031 c 128,-1,30
 1353 1045 1353 1045 1413 1045 c 0,31,32
 1529 1045 1529 1045 1623.5 1006.5 c 128,-1,33
 1718 968 1718 968 1785.5 887.5 c 128,-1,34
 1853 807 1853 807 1889.5 681.5 c 128,-1,35
 1926 556 1926 556 1926 382 c 0,36,37
 1926 341 1926 341 1924 302 c 128,-1,38
 1922 263 1922 263 1918.5 220 c 128,-1,39
 1915 177 1915 177 1910.5 127 c 128,-1,40
 1906 77 1906 77 1902 15 c 0,41,42
 1902 7 1902 7 1896 -7.5 c 128,-1,43
 1890 -22 1890 -22 1879 -35.5 c 128,-1,44
 1868 -49 1868 -49 1852 -59 c 128,-1,45
 1836 -69 1836 -69 1816 -69 c 0,46,47
 1788 -69 1788 -69 1764.5 -56.5 c 128,-1,48
 1741 -44 1741 -44 1723.5 -25.5 c 128,-1,49
 1706 -7 1706 -7 1696.5 14.5 c 128,-1,50
 1687 36 1687 36 1687 54 c 0,51,52
 1687 94 1687 94 1695 122 c 128,-1,53
 1703 150 1703 150 1713 178.5 c 128,-1,54
 1723 207 1723 207 1731 242 c 128,-1,55
 1739 277 1739 277 1739 332 c 0,56,57
 1739 380 1739 380 1737.5 425 c 128,-1,58
 1736 470 1736 470 1736 518 c 0,59,60
 1736 575 1736 575 1713.5 638 c 128,-1,61
 1691 701 1691 701 1648 754 c 128,-1,62
 1605 807 1605 807 1543.5 842 c 128,-1,63
 1482 877 1482 877 1404 877 c 0,64,65
 1365 877 1365 877 1316 865 c 128,-1,66
 1267 853 1267 853 1221.5 827.5 c 128,-1,67
 1176 802 1176 802 1139.5 762 c 128,-1,68
 1103 722 1103 722 1089 667 c 1,69,-1
 1089 235 l 2,70,71
 1089 230 1089 230 1090 214.5 c 128,-1,72
 1091 199 1091 199 1092.5 182 c 128,-1,73
 1094 165 1094 165 1095 149.5 c 128,-1,74
 1096 134 1096 134 1096 130 c 0,75,76
 1096 108 1096 108 1090 87.5 c 128,-1,77
 1084 67 1084 67 1072 51.5 c 128,-1,78
 1060 36 1060 36 1043.5 26.5 c 128,-1,79
 1027 17 1027 17 1006 17 c 0,80,81
 984 17 984 17 960 21 c 128,-1,82
 936 25 936 25 916.5 36.5 c 128,-1,83
 897 48 897 48 884.5 68 c 128,-1,84
 872 88 872 88 872 120 c 0,85,86
 872 126 872 126 874.5 144 c 128,-1,87
 877 162 877 162 879.5 182 c 128,-1,88
 882 202 882 202 884.5 218.5 c 128,-1,89
 887 235 887 235 887 238 c 2,90,-1
 887 575 l 2,91,92
 887 628 887 628 868.5 686.5 c 128,-1,93
 850 745 850 745 815.5 794.5 c 128,-1,94
 781 844 781 844 732 876.5 c 128,-1,95
 683 909 683 909 622 909 c 0,96,97
 545 909 545 909 494.5 894 c 128,-1,98
 444 879 444 879 414.5 847.5 c 128,-1,99
 385 816 385 816 373.5 767 c 128,-1,100
 362 718 362 718 362 649 c 0,101,102
 362 576 362 576 364 499.5 c 128,-1,103
 366 423 366 423 374 355 c 2,104,-1
 405 103 l 1,105,106
 405 80 405 80 393 62 c 128,-1,107
 381 44 381 44 364.5 32 c 128,-1,108
 348 20 348 20 331.5 13.5 c 128,-1,109
 315 7 315 7 305 7 c 0,110,111
 246 7 246 7 218 34.5 c 128,-1,112
 190 62 190 62 183 133 c 1,0,1
EndSplineSet
EndChar

StartChar: n
Encoding: 110 110 64
Width: 1428
Flags: W
LayerCount: 2
Fore
SplineSet
196 90 m 0,0,1
 196 105 196 105 197 131 c 128,-1,2
 198 157 198 157 198 199 c 0,3,4
 198 267 198 267 194 342.5 c 128,-1,5
 190 418 190 418 185.5 499.5 c 128,-1,6
 181 581 181 581 177.5 667.5 c 128,-1,7
 174 754 174 754 174 845 c 0,8,9
 174 880 174 880 177 923.5 c 128,-1,10
 180 967 180 967 189 1004.5 c 128,-1,11
 198 1042 198 1042 215 1067.5 c 128,-1,12
 232 1093 232 1093 261 1093 c 0,13,14
 292 1093 292 1093 309.5 1073.5 c 128,-1,15
 327 1054 327 1054 335.5 1023.5 c 128,-1,16
 344 993 344 993 345.5 954.5 c 128,-1,17
 347 916 347 916 347 877 c 1,18,19
 382 928 382 928 436 969.5 c 128,-1,20
 490 1011 490 1011 551.5 1040 c 128,-1,21
 613 1069 613 1069 676 1085 c 128,-1,22
 739 1101 739 1101 793 1101 c 0,23,24
 891 1101 891 1101 965.5 1072.5 c 128,-1,25
 1040 1044 1040 1044 1094.5 995 c 128,-1,26
 1149 946 1149 946 1185.5 881.5 c 128,-1,27
 1222 817 1222 817 1244 745 c 128,-1,28
 1266 673 1266 673 1275.5 597.5 c 128,-1,29
 1285 522 1285 522 1285 452 c 2,30,-1
 1285 282 l 2,31,32
 1285 217 1285 217 1276.5 156.5 c 128,-1,33
 1268 96 1268 96 1252 49.5 c 128,-1,34
 1236 3 1236 3 1212.5 -25.5 c 128,-1,35
 1189 -54 1189 -54 1159 -54 c 0,36,37
 1137 -54 1137 -54 1118 -51 c 128,-1,38
 1099 -48 1099 -48 1084.5 -36.5 c 128,-1,39
 1070 -25 1070 -25 1062 -1 c 128,-1,40
 1054 23 1054 23 1054 65 c 0,41,42
 1054 104 1054 104 1062 146.5 c 128,-1,43
 1070 189 1070 189 1079.5 232 c 128,-1,44
 1089 275 1089 275 1097 318 c 128,-1,45
 1105 361 1105 361 1105 403 c 0,46,47
 1105 450 1105 450 1102.5 496.5 c 128,-1,48
 1100 543 1100 543 1092 588 c 128,-1,49
 1084 633 1084 633 1069.5 675.5 c 128,-1,50
 1055 718 1055 718 1030 757 c 0,51,52
 1010 789 1010 789 988.5 819.5 c 128,-1,53
 967 850 967 850 936.5 874 c 128,-1,54
 906 898 906 898 863 912.5 c 128,-1,55
 820 927 820 927 757 927 c 0,56,57
 714 927 714 927 659 909.5 c 128,-1,58
 604 892 604 892 548.5 859.5 c 128,-1,59
 493 827 493 827 442.5 781.5 c 128,-1,60
 392 736 392 736 358 680 c 1,61,-1
 358 424 l 2,62,63
 358 411 358 411 359.5 390.5 c 128,-1,64
 361 370 361 370 364 345 c 128,-1,65
 367 320 367 320 371.5 292 c 128,-1,66
 376 264 376 264 381 237 c 0,67,68
 389 195 389 195 400 157 c 128,-1,69
 411 119 411 119 411 86 c 0,70,71
 411 63 411 63 409 42 c 128,-1,72
 407 21 407 21 398.5 5.5 c 128,-1,73
 390 -10 390 -10 372 -19 c 128,-1,74
 354 -28 354 -28 322 -28 c 0,75,76
 301 -28 301 -28 279 -24.5 c 128,-1,77
 257 -21 257 -21 238.5 -9 c 128,-1,78
 220 3 220 3 208 26.5 c 128,-1,79
 196 50 196 50 196 90 c 0,0,1
EndSplineSet
EndChar

StartChar: o
Encoding: 111 111 65
Width: 1381
Flags: W
LayerCount: 2
Fore
SplineSet
133 532 m 0,0,1
 133 687 133 687 183 795 c 128,-1,2
 233 903 233 903 314.5 970.5 c 128,-1,3
 396 1038 396 1038 499.5 1068.5 c 128,-1,4
 603 1099 603 1099 711 1099 c 0,5,6
 836 1099 836 1099 935.5 1058 c 128,-1,7
 1035 1017 1035 1017 1104 940 c 128,-1,8
 1173 863 1173 863 1210 753.5 c 128,-1,9
 1247 644 1247 644 1247 508 c 0,10,11
 1247 429 1247 429 1226 359 c 128,-1,12
 1205 289 1205 289 1168 229.5 c 128,-1,13
 1131 170 1131 170 1079.5 123 c 128,-1,14
 1028 76 1028 76 967 42.5 c 128,-1,15
 906 9 906 9 838 -8.5 c 128,-1,16
 770 -26 770 -26 700 -26 c 0,17,18
 624 -26 624 -26 552.5 -2.5 c 128,-1,19
 481 21 481 21 418 62 c 128,-1,20
 355 103 355 103 302.5 157.5 c 128,-1,21
 250 212 250 212 212.5 274 c 128,-1,22
 175 336 175 336 154 402 c 128,-1,23
 133 468 133 468 133 532 c 0,0,1
306 557 m 0,24,25
 306 483 306 483 338 408.5 c 128,-1,26
 370 334 370 334 422.5 274 c 128,-1,27
 475 214 475 214 542.5 176.5 c 128,-1,28
 610 139 610 139 680 139 c 0,29,30
 756 139 756 139 827.5 165 c 128,-1,31
 899 191 899 191 953.5 241 c 128,-1,32
 1008 291 1008 291 1041 363 c 128,-1,33
 1074 435 1074 435 1074 527 c 0,34,35
 1074 617 1074 617 1049.5 691.5 c 128,-1,36
 1025 766 1025 766 982 820 c 128,-1,37
 939 874 939 874 879 903.5 c 128,-1,38
 819 933 819 933 749 933 c 0,39,40
 671 933 671 933 592 908.5 c 128,-1,41
 513 884 513 884 449.5 836.5 c 128,-1,42
 386 789 386 789 346 719 c 128,-1,43
 306 649 306 649 306 557 c 0,24,25
EndSplineSet
EndChar

StartChar: p
Encoding: 112 112 66
Width: 1424
Flags: W
LayerCount: 2
Fore
SplineSet
196 869 m 1,0,1
 226 928 226 928 277 968 c 128,-1,2
 328 1008 328 1008 388 1032.5 c 128,-1,3
 448 1057 448 1057 510.5 1067.5 c 128,-1,4
 573 1078 573 1078 625 1078 c 0,5,6
 782 1078 782 1078 903.5 1041.5 c 128,-1,7
 1025 1005 1025 1005 1107.5 941.5 c 128,-1,8
 1190 878 1190 878 1233 792.5 c 128,-1,9
 1276 707 1276 707 1276 610 c 0,10,11
 1276 462 1276 462 1233 346.5 c 128,-1,12
 1190 231 1190 231 1109 151.5 c 128,-1,13
 1028 72 1028 72 912 30.5 c 128,-1,14
 796 -11 796 -11 651 -11 c 0,15,16
 562 -11 562 -11 499.5 -1.5 c 128,-1,17
 437 8 437 8 381 28 c 1,18,-1
 381 -50 l 1,19,20
 380 -97 380 -97 385.5 -146 c 128,-1,21
 391 -195 391 -195 397.5 -243.5 c 128,-1,22
 404 -292 404 -292 410 -339.5 c 128,-1,23
 416 -387 416 -387 416 -430 c 0,24,25
 416 -450 416 -450 406 -465 c 128,-1,26
 396 -480 396 -480 380.5 -490 c 128,-1,27
 365 -500 365 -500 346 -505 c 128,-1,28
 327 -510 327 -510 309 -510 c 0,29,30
 286 -510 286 -510 266.5 -504 c 128,-1,31
 247 -498 247 -498 232 -484 c 128,-1,32
 217 -470 217 -470 208.5 -446 c 128,-1,33
 200 -422 200 -422 200 -387 c 0,34,35
 200 -365 200 -365 200 -334 c 128,-1,36
 200 -303 200 -303 199.5 -269.5 c 128,-1,37
 199 -236 199 -236 198.5 -203 c 128,-1,38
 198 -170 198 -170 198 -145 c 2,39,-1
 196 99 l 1,40,-1
 196 869 l 1,0,1
381 201 m 1,41,42
 379 185 379 185 401.5 176 c 128,-1,43
 424 167 424 167 454.5 162.5 c 128,-1,44
 485 158 485 158 516 157 c 128,-1,45
 547 156 547 156 563 156 c 0,46,47
 668 156 668 156 763 178.5 c 128,-1,48
 858 201 858 201 930 250.5 c 128,-1,49
 1002 300 1002 300 1044.5 380 c 128,-1,50
 1087 460 1087 460 1087 576 c 0,51,52
 1087 658 1087 658 1055 720.5 c 128,-1,53
 1023 783 1023 783 963.5 825 c 128,-1,54
 904 867 904 867 818.5 888 c 128,-1,55
 733 909 733 909 626 909 c 0,56,57
 596 909 596 909 554.5 900.5 c 128,-1,58
 513 892 513 892 474 875 c 128,-1,59
 435 858 435 858 406 833 c 128,-1,60
 377 808 377 808 371 775 c 1,61,-1
 369 493 l 2,62,63
 369 483 369 483 369.5 465 c 128,-1,64
 370 447 370 447 371 424.5 c 128,-1,65
 372 402 372 402 373 377 c 128,-1,66
 374 352 374 352 375 327 c 0,67,68
 378 269 378 269 381 201 c 1,41,42
EndSplineSet
EndChar

StartChar: q
Encoding: 113 113 67
Width: 1383
Flags: W
LayerCount: 2
Fore
SplineSet
133 520 m 0,0,1
 133 644 133 644 173.5 748.5 c 128,-1,2
 214 853 214 853 286 928.5 c 128,-1,3
 358 1004 358 1004 456.5 1046 c 128,-1,4
 555 1088 555 1088 670 1088 c 0,5,6
 722 1088 722 1088 781 1076.5 c 128,-1,7
 840 1065 840 1065 898 1041.5 c 128,-1,8
 956 1018 956 1018 1010 983 c 128,-1,9
 1064 948 1064 948 1105 901.5 c 128,-1,10
 1146 855 1146 855 1171 796 c 128,-1,11
 1196 737 1196 737 1197 667 c 1,12,13
 1201 661 1201 661 1205.5 650 c 128,-1,14
 1210 639 1210 639 1210 624 c 2,15,-1
 1210 346 l 2,16,17
 1210 300 1210 300 1209.5 257.5 c 128,-1,18
 1209 215 1209 215 1207 172 c 0,19,20
 1205 135 1205 135 1203.5 97.5 c 128,-1,21
 1202 60 1202 60 1202 13 c 0,22,23
 1203 -94 1203 -94 1206.5 -208.5 c 128,-1,24
 1210 -323 1210 -323 1210 -432 c 0,25,26
 1210 -454 1210 -454 1199 -469 c 128,-1,27
 1188 -484 1188 -484 1172.5 -493 c 128,-1,28
 1157 -502 1157 -502 1139.5 -506 c 128,-1,29
 1122 -510 1122 -510 1109 -510 c 0,30,31
 1059 -510 1059 -510 1031.5 -492 c 128,-1,32
 1004 -474 1004 -474 1004 -421 c 1,33,-1
 1019 -45 l 1,34,35
 1019 -13 1019 -13 1019 41 c 128,-1,36
 1019 95 1019 95 1021 177 c 1,37,38
 996 141 996 141 958 108 c 128,-1,39
 920 75 920 75 873.5 50 c 128,-1,40
 827 25 827 25 774 10 c 128,-1,41
 721 -5 721 -5 664 -5 c 0,42,43
 539 -5 539 -5 440 42 c 128,-1,44
 341 89 341 89 273 164.5 c 128,-1,45
 205 240 205 240 169 333.5 c 128,-1,46
 133 427 133 427 133 520 c 0,0,1
318 542 m 0,47,48
 318 479 318 479 339 413 c 128,-1,49
 360 347 360 347 404.5 293.5 c 128,-1,50
 449 240 449 240 517 206 c 128,-1,51
 585 172 585 172 680 172 c 0,52,53
 734 172 734 172 791 194.5 c 128,-1,54
 848 217 848 217 894.5 259 c 128,-1,55
 941 301 941 301 970.5 360.5 c 128,-1,56
 1000 420 1000 420 1000 495 c 0,57,58
 1000 510 1000 510 1003.5 531 c 128,-1,59
 1007 552 1007 552 1013 575 c 128,-1,60
 1019 598 1019 598 1026 621 c 128,-1,61
 1033 644 1033 644 1041 662 c 1,62,63
 1026 726 1026 726 990 774.5 c 128,-1,64
 954 823 954 823 907.5 855 c 128,-1,65
 861 887 861 887 809 903 c 128,-1,66
 757 919 757 919 711 919 c 0,67,68
 633 919 633 919 562 894.5 c 128,-1,69
 491 870 491 870 436.5 822 c 128,-1,70
 382 774 382 774 350 703.5 c 128,-1,71
 318 633 318 633 318 542 c 0,47,48
EndSplineSet
EndChar

StartChar: r
Encoding: 114 114 68
Width: 1158
Flags: W
LayerCount: 2
Fore
SplineSet
188 129 m 0,0,1
 188 155 188 155 191 183 c 128,-1,2
 194 211 194 211 194 237 c 0,3,4
 194 298 194 298 188 364 c 0,5,6
 183 417 183 417 182.5 475 c 128,-1,7
 182 533 182 533 186 577 c 2,8,-1
 219 972 l 2,9,10
 223 1020 223 1020 243.5 1048.5 c 128,-1,11
 264 1077 264 1077 317 1077 c 0,12,13
 339 1077 339 1077 355.5 1069.5 c 128,-1,14
 372 1062 372 1062 383.5 1050 c 128,-1,15
 395 1038 395 1038 402 1023.5 c 128,-1,16
 409 1009 409 1009 412 995 c 1,17,18
 453 1026 453 1026 502 1048 c 128,-1,19
 551 1070 551 1070 603 1084 c 128,-1,20
 655 1098 655 1098 708 1104.5 c 128,-1,21
 761 1111 761 1111 811 1111 c 0,22,23
 853 1111 853 1111 907 1105.5 c 128,-1,24
 961 1100 961 1100 1009 1082 c 128,-1,25
 1057 1064 1057 1064 1090 1030 c 128,-1,26
 1123 996 1123 996 1123 938 c 0,27,28
 1123 897 1123 897 1097.5 871.5 c 128,-1,29
 1072 846 1072 846 1030 846 c 0,30,31
 998 846 998 846 980 860.5 c 128,-1,32
 962 875 962 875 948 893 c 0,33,34
 942 900 942 900 934 908 c 128,-1,35
 926 916 926 916 911.5 923 c 128,-1,36
 897 930 897 930 874 934 c 128,-1,37
 851 938 851 938 815 938 c 0,38,39
 702 938 702 938 619 914.5 c 128,-1,40
 536 891 536 891 482 841 c 128,-1,41
 428 791 428 791 402 712.5 c 128,-1,42
 376 634 376 634 376 524 c 0,43,44
 376 483 376 483 377 446.5 c 128,-1,45
 378 410 378 410 380.5 374 c 128,-1,46
 383 338 383 338 386 301 c 128,-1,47
 389 264 389 264 392 222 c 0,48,49
 394 190 394 190 398 156 c 128,-1,50
 402 122 402 122 402 90 c 0,51,52
 402 81 402 81 397 65 c 128,-1,53
 392 49 392 49 380.5 33.5 c 128,-1,54
 369 18 369 18 350.5 6.5 c 128,-1,55
 332 -5 332 -5 305 -5 c 0,56,57
 270 -5 270 -5 247.5 3 c 128,-1,58
 225 11 225 11 211.5 27.5 c 128,-1,59
 198 44 198 44 193 69.5 c 128,-1,60
 188 95 188 95 188 129 c 0,0,1
EndSplineSet
EndChar

StartChar: s
Encoding: 115 115 69
Width: 1339
Flags: W
LayerCount: 2
Fore
SplineSet
250 157 m 0,0,1
 250 170 250 170 261 192.5 c 128,-1,2
 272 215 272 215 288.5 233 c 128,-1,3
 305 251 305 251 325 256.5 c 128,-1,4
 345 262 345 262 363 242 c 0,5,6
 396 205 396 205 422.5 184 c 128,-1,7
 449 163 449 163 478.5 153 c 128,-1,8
 508 143 508 143 543.5 141 c 128,-1,9
 579 139 579 139 629 139 c 0,10,11
 689 139 689 139 751.5 152.5 c 128,-1,12
 814 166 814 166 866 184.5 c 128,-1,13
 918 203 918 203 951 223 c 128,-1,14
 984 243 984 243 984 255 c 0,15,16
 984 271 984 271 963.5 288 c 128,-1,17
 943 305 943 305 908 320 c 128,-1,18
 873 335 873 335 826 348.5 c 128,-1,19
 779 362 779 362 726 371 c 1,20,21
 664 379 664 379 599.5 389 c 128,-1,22
 535 399 535 399 474 415 c 128,-1,23
 413 431 413 431 359 453.5 c 128,-1,24
 305 476 305 476 264 510 c 128,-1,25
 223 544 223 544 199.5 591 c 128,-1,26
 176 638 176 638 176 701 c 0,27,28
 176 769 176 769 199.5 827 c 128,-1,29
 223 885 223 885 263.5 933 c 128,-1,30
 304 981 304 981 358.5 1018 c 128,-1,31
 413 1055 413 1055 476 1080 c 128,-1,32
 539 1105 539 1105 607 1118 c 128,-1,33
 675 1131 675 1131 742 1131 c 0,34,35
 812 1131 812 1131 869.5 1113.5 c 128,-1,36
 927 1096 927 1096 967 1067.5 c 128,-1,37
 1007 1039 1007 1039 1029 1002 c 128,-1,38
 1051 965 1051 965 1051 925 c 0,39,40
 1051 900 1051 900 1050 868 c 128,-1,41
 1049 836 1049 836 1041.5 807.5 c 128,-1,42
 1034 779 1034 779 1017 759.5 c 128,-1,43
 1000 740 1000 740 968 740 c 0,44,45
 948 740 948 740 937.5 748.5 c 128,-1,46
 927 757 927 757 922 769 c 128,-1,47
 917 781 917 781 916 795.5 c 128,-1,48
 915 810 915 810 915 822 c 0,49,50
 915 861 915 861 901.5 885 c 128,-1,51
 888 909 888 909 862 923 c 128,-1,52
 836 937 836 937 798.5 942 c 128,-1,53
 761 947 761 947 713 947 c 0,54,55
 680 947 680 947 641 938 c 128,-1,56
 602 929 602 929 562.5 913.5 c 128,-1,57
 523 898 523 898 485.5 876 c 128,-1,58
 448 854 448 854 419.5 827.5 c 128,-1,59
 391 801 391 801 373.5 772 c 128,-1,60
 356 743 356 743 356 712 c 0,61,62
 356 673 356 673 387 647.5 c 128,-1,63
 418 622 418 622 469 605 c 128,-1,64
 520 588 520 588 584.5 576.5 c 128,-1,65
 649 565 649 565 716 555 c 0,66,67
 799 542 799 542 879.5 522.5 c 128,-1,68
 960 503 960 503 1024 470 c 128,-1,69
 1088 437 1088 437 1127 385.5 c 128,-1,70
 1166 334 1166 334 1166 258 c 0,71,72
 1166 204 1166 204 1135 161.5 c 128,-1,73
 1104 119 1104 119 1054.5 86.5 c 128,-1,74
 1005 54 1005 54 943 31 c 128,-1,75
 881 8 881 8 818.5 -6.5 c 128,-1,76
 756 -21 756 -21 699 -28 c 128,-1,77
 642 -35 642 -35 603 -35 c 0,78,79
 573 -35 573 -35 535 -32.5 c 128,-1,80
 497 -30 497 -30 457.5 -23 c 128,-1,81
 418 -16 418 -16 381 -3 c 128,-1,82
 344 10 344 10 314.5 31.5 c 128,-1,83
 285 53 285 53 267.5 83.5 c 128,-1,84
 250 114 250 114 250 157 c 0,0,1
EndSplineSet
EndChar

StartChar: t
Encoding: 116 116 70
Width: 1163
Flags: W
LayerCount: 2
Fore
SplineSet
726 -15 m 0,0,1
 627 -15 627 -15 562 24.5 c 128,-1,2
 497 64 497 64 457 130.5 c 128,-1,3
 417 197 417 197 397 282.5 c 128,-1,4
 377 368 377 368 369 460.5 c 128,-1,5
 361 553 361 553 360 645 c 128,-1,6
 359 737 359 737 357 815 c 1,7,8
 330 815 330 815 308.5 815 c 128,-1,9
 287 815 287 815 266 814 c 0,10,11
 254 813 254 813 244 812.5 c 128,-1,12
 234 812 234 812 222.5 811.5 c 128,-1,13
 211 811 211 811 196.5 810.5 c 128,-1,14
 182 810 182 810 161 810 c 0,15,16
 149 810 149 810 129 816 c 128,-1,17
 109 822 109 822 89 833 c 128,-1,18
 69 844 69 844 54.5 860.5 c 128,-1,19
 40 877 40 877 40 898 c 256,20,21
 40 919 40 919 49 937 c 128,-1,22
 58 955 58 955 73.5 967.5 c 128,-1,23
 89 980 89 980 110 987 c 128,-1,24
 131 994 131 994 154 994 c 2,25,-1
 364 989 l 1,26,27
 367 1014 367 1014 370 1039 c 128,-1,28
 373 1064 373 1064 375 1088 c 0,29,30
 378 1117 378 1117 379 1142 c 128,-1,31
 380 1167 380 1167 382 1190.5 c 128,-1,32
 384 1214 384 1214 386.5 1237.5 c 128,-1,33
 389 1261 389 1261 395 1287 c 0,34,35
 398 1304 398 1304 409 1320.5 c 128,-1,36
 420 1337 420 1337 434.5 1350 c 128,-1,37
 449 1363 449 1363 465.5 1371 c 128,-1,38
 482 1379 482 1379 497 1379 c 0,39,40
 509 1379 509 1379 522 1373 c 128,-1,41
 535 1367 535 1367 546 1355.5 c 128,-1,42
 557 1344 557 1344 564.5 1328.5 c 128,-1,43
 572 1313 572 1313 572 1294 c 0,44,45
 572 1254 572 1254 571.5 1227 c 128,-1,46
 571 1200 571 1200 569.5 1181 c 128,-1,47
 568 1162 568 1162 566 1148 c 128,-1,48
 564 1134 564 1134 562 1120 c 0,49,50
 560 1109 560 1109 558.5 1096.5 c 128,-1,51
 557 1084 557 1084 555.5 1068 c 128,-1,52
 554 1052 554 1052 552 1031.5 c 128,-1,53
 550 1011 550 1011 547 983 c 1,54,55
 604 984 604 984 655.5 985.5 c 128,-1,56
 707 987 707 987 757 988.5 c 128,-1,57
 807 990 807 990 859 991 c 128,-1,58
 911 992 911 992 970 992 c 0,59,60
 990 992 990 992 1005.5 981.5 c 128,-1,61
 1021 971 1021 971 1031.5 956 c 128,-1,62
 1042 941 1042 941 1047.5 924.5 c 128,-1,63
 1053 908 1053 908 1053 896 c 0,64,65
 1053 875 1053 875 1044 858.5 c 128,-1,66
 1035 842 1035 842 1022 831 c 128,-1,67
 1009 820 1009 820 993 815 c 128,-1,68
 977 810 977 810 964 810 c 2,69,-1
 555 817 l 1,70,71
 551 813 551 813 551 808 c 0,72,73
 551 755 551 755 549 686.5 c 128,-1,74
 547 618 547 618 548.5 547 c 128,-1,75
 550 476 550 476 557 407.5 c 128,-1,76
 564 339 564 339 582.5 285.5 c 128,-1,77
 601 232 601 232 633 199 c 128,-1,78
 665 166 665 166 717 166 c 0,79,80
 734 166 734 166 757.5 172.5 c 128,-1,81
 781 179 781 179 804 188 c 128,-1,82
 827 197 827 197 847 208 c 128,-1,83
 867 219 867 219 878 228 c 0,84,85
 889 238 889 238 907 246 c 128,-1,86
 925 254 925 254 937 254 c 0,87,88
 975 254 975 254 985.5 235.5 c 128,-1,89
 996 217 996 217 996 185 c 0,90,91
 996 174 996 174 991 158.5 c 128,-1,92
 986 143 986 143 978 133 c 0,93,94
 959 109 959 109 928.5 82.5 c 128,-1,95
 898 56 898 56 863 34.5 c 128,-1,96
 828 13 828 13 792 -1 c 128,-1,97
 756 -15 756 -15 726 -15 c 0,0,1
EndSplineSet
EndChar

StartChar: u
Encoding: 117 117 71
Width: 1336
Flags: W
LayerCount: 2
Fore
SplineSet
153 577 m 0,0,1
 153 608 153 608 155 647 c 128,-1,2
 157 686 157 686 161 728 c 128,-1,3
 165 770 165 770 170.5 813.5 c 128,-1,4
 176 857 176 857 183 897.5 c 128,-1,5
 190 938 190 938 198.5 972.5 c 128,-1,6
 207 1007 207 1007 216 1032 c 1,7,8
 227 1059 227 1059 251 1076.5 c 128,-1,9
 275 1094 275 1094 315 1094 c 0,10,11
 351 1094 351 1094 372.5 1068 c 128,-1,12
 394 1042 394 1042 394 1006 c 0,13,14
 394 1000 394 1000 384.5 968.5 c 128,-1,15
 375 937 375 937 363.5 884.5 c 128,-1,16
 352 832 352 832 342.5 760.5 c 128,-1,17
 333 689 333 689 333 604 c 0,18,19
 333 571 333 571 336.5 523 c 128,-1,20
 340 475 340 475 350 422.5 c 128,-1,21
 360 370 360 370 378 317.5 c 128,-1,22
 396 265 396 265 426.5 223 c 128,-1,23
 457 181 457 181 501 155 c 128,-1,24
 545 129 545 129 606 129 c 0,25,26
 658 129 658 129 702 145 c 128,-1,27
 746 161 746 161 782.5 186.5 c 128,-1,28
 819 212 819 212 848.5 244 c 128,-1,29
 878 276 878 276 901.5 308 c 128,-1,30
 925 340 925 340 942.5 368 c 128,-1,31
 960 396 960 396 973 415 c 1,32,33
 979 473 979 473 982 517.5 c 128,-1,34
 985 562 985 562 986.5 599 c 128,-1,35
 988 636 988 636 988.5 668.5 c 128,-1,36
 989 701 989 701 989 735.5 c 128,-1,37
 989 770 989 770 988.5 809.5 c 128,-1,38
 988 849 988 849 988 900 c 2,39,-1
 988 1019 l 2,40,41
 988 1040 988 1040 997.5 1054 c 128,-1,42
 1007 1068 1007 1068 1021 1077 c 128,-1,43
 1035 1086 1035 1086 1052 1089.5 c 128,-1,44
 1069 1093 1069 1093 1083 1093 c 0,45,46
 1095 1093 1095 1093 1109 1089 c 128,-1,47
 1123 1085 1123 1085 1135 1077 c 128,-1,48
 1147 1069 1147 1069 1155 1055.5 c 128,-1,49
 1163 1042 1163 1042 1163 1024 c 2,50,-1
 1161 75 l 2,51,52
 1161 24 1161 24 1141 6.5 c 128,-1,53
 1121 -11 1121 -11 1080 -11 c 0,54,55
 1043 -11 1043 -11 1022.5 -5.5 c 128,-1,56
 1002 0 1002 0 992.5 15 c 128,-1,57
 983 30 983 30 981 56 c 128,-1,58
 979 82 979 82 979 123 c 2,59,-1
 979 191 l 1,60,61
 953 144 953 144 920.5 101.5 c 128,-1,62
 888 59 888 59 845 27 c 128,-1,63
 802 -5 802 -5 746 -24 c 128,-1,64
 690 -43 690 -43 618 -43 c 0,65,66
 514 -43 514 -43 439.5 -11.5 c 128,-1,67
 365 20 365 20 313.5 71.5 c 128,-1,68
 262 123 262 123 230.5 189 c 128,-1,69
 199 255 199 255 181.5 324 c 128,-1,70
 164 393 164 393 158.5 459 c 128,-1,71
 153 525 153 525 153 577 c 0,0,1
EndSplineSet
EndChar

StartChar: v
Encoding: 118 118 72
Width: 1294
Flags: W
LayerCount: 2
Fore
SplineSet
497 -6 m 0,0,1
 404 128 404 128 339 279 c 128,-1,2
 274 430 274 430 226 580 c 0,3,4
 212 625 212 625 197 671.5 c 128,-1,5
 182 718 182 718 165 763 c 0,6,7
 154 791 154 791 140.5 818 c 128,-1,8
 127 845 127 845 114.5 872 c 128,-1,9
 102 899 102 899 93.5 927.5 c 128,-1,10
 85 956 85 956 85 989 c 0,11,12
 85 1003 85 1003 87.5 1018 c 128,-1,13
 90 1033 90 1033 98.5 1046 c 128,-1,14
 107 1059 107 1059 121.5 1067 c 128,-1,15
 136 1075 136 1075 160 1075 c 0,16,17
 191 1075 191 1075 211 1069.5 c 128,-1,18
 231 1064 231 1064 245 1051 c 128,-1,19
 259 1038 259 1038 268.5 1016.5 c 128,-1,20
 278 995 278 995 289 964 c 0,21,22
 317 881 317 881 345.5 794.5 c 128,-1,23
 374 708 374 708 406.5 620.5 c 128,-1,24
 439 533 439 533 475.5 445.5 c 128,-1,25
 512 358 512 358 557 273 c 0,26,27
 561 265 561 265 566 250.5 c 128,-1,28
 571 236 571 236 576.5 221.5 c 128,-1,29
 582 207 582 207 587.5 196 c 128,-1,30
 593 185 593 185 599 185 c 0,31,32
 607 185 607 185 626 217 c 128,-1,33
 645 249 645 249 670 299 c 128,-1,34
 695 349 695 349 724 410 c 128,-1,35
 753 471 753 471 780.5 530 c 128,-1,36
 808 589 808 589 831 638.5 c 128,-1,37
 854 688 854 688 868 715 c 0,38,39
 879 737 879 737 896.5 770.5 c 128,-1,40
 914 804 914 804 935 843.5 c 128,-1,41
 956 883 956 883 978 923.5 c 128,-1,42
 1000 964 1000 964 1021 999.5 c 128,-1,43
 1042 1035 1042 1035 1060 1061.5 c 128,-1,44
 1078 1088 1078 1088 1090 1099 c 1,45,46
 1104 1109 1104 1109 1119 1115.5 c 128,-1,47
 1134 1122 1134 1122 1147 1122 c 0,48,49
 1183 1122 1183 1122 1205 1092 c 128,-1,50
 1227 1062 1227 1062 1227 1017 c 0,51,52
 1227 977 1227 977 1198.5 927 c 128,-1,53
 1170 877 1170 877 1132 817 c 0,54,55
 1105 775 1105 775 1076 727.5 c 128,-1,56
 1047 680 1047 680 1028 635 c 0,57,58
 1010 593 1010 593 985 540.5 c 128,-1,59
 960 488 960 488 930 430.5 c 128,-1,60
 900 373 900 373 866.5 313 c 128,-1,61
 833 253 833 253 799.5 197 c 128,-1,62
 766 141 766 141 733.5 91 c 128,-1,63
 701 41 701 41 673 4 c 0,64,65
 659 -15 659 -15 629 -23.5 c 128,-1,66
 599 -32 599 -32 570 -32 c 0,67,68
 547 -32 547 -32 524.5 -23 c 128,-1,69
 502 -14 502 -14 497 -6 c 0,0,1
EndSplineSet
EndChar

